STARTFONT 2.1
COMMENT
COMMENT Converted from OpenType font "ipag.ttf" by "otf2bdf 3.0".
COMMENT
FONT -FreeType-IPAGothic-Medium-R-Normal--24-240-72-72-P-210-ISO10646-1
SIZE 24 72 72
FONTBOUNDINGBOX 24 24 0 -3
STARTPROPERTIES 19
FOUNDRY "FreeType"
FAMILY_NAME "IPAGothic"
WEIGHT_NAME "Medium"
SLANT "R"
SETWIDTH_NAME "Normal"
ADD_STYLE_NAME ""
PIXEL_SIZE 24
POINT_SIZE 240
RESOLUTION_X 72
RESOLUTION_Y 72
SPACING "P"
AVERAGE_WIDTH 210
CHARSET_REGISTRY "ISO10646"
CHARSET_ENCODING "1"
FONT_ASCENT 21
FONT_DESCENT 2
COPYRIGHT "Copyright(c) Information-technology Promotion Agency, Japan (IPA), 2003-2011. You must accept "http://ipafont.ipa.go.jp/ipa_font_license_v1.html" to use this product."
_OTF_FONTFILE "ipag.ttf"
_OTF_PSNAME "IPAGothic"
ENDPROPERTIES
CHARS 11158
STARTCHAR 0020
ENCODING 32
SWIDTH 500 0
DWIDTH 12 0
BBX 0 0 0 0
BITMAP
ENDCHAR
STARTCHAR 0021
ENCODING 33
SWIDTH 500 0
DWIDTH 12 0
BBX 2 19 5 0
BITMAP
C0
C0
C0
C0
C0
C0
C0
C0
C0
C0
C0
C0
C0
C0
00
00
C0
C0
C0
ENDCHAR
STARTCHAR 0022
ENCODING 34
SWIDTH 500 0
DWIDTH 12 0
BBX 8 6 2 14
BITMAP
E7
E7
E7
62
46
84
ENDCHAR
STARTCHAR 0023
ENCODING 35
SWIDTH 500 0
DWIDTH 12 0
BBX 10 20 1 -1
BITMAP
1980
1180
1180
1100
1100
7FC0
7FC0
3100
3300
3300
3300
2300
2300
FF80
FF80
6200
6200
6200
6600
6600
ENDCHAR
STARTCHAR 0024
ENCODING 36
SWIDTH 500 0
DWIDTH 12 0
BBX 10 21 1 -1
BITMAP
0C00
0C00
3F00
6F80
CD80
CD80
CC00
6C00
7C00
3C00
0E00
0F00
0D80
0CC0
CCC0
CCC0
6CC0
7F80
3F00
0C00
0C00
ENDCHAR
STARTCHAR 0025
ENCODING 37
SWIDTH 500 0
DWIDTH 12 0
BBX 10 22 1 -2
BITMAP
0040
70C0
F080
D980
9980
9900
9B00
DA00
F600
7400
0C00
0C00
0B80
1BC0
16C0
3640
2640
6640
66C0
43C0
C380
8000
ENDCHAR
STARTCHAR 0026
ENCODING 38
SWIDTH 500 0
DWIDTH 12 0
BBX 10 17 1 1
BITMAP
1E00
3F00
6300
6100
6100
2300
3600
1C00
3800
6CC0
4CC0
C6C0
C380
C380
E180
7F80
3EC0
ENDCHAR
STARTCHAR 0027
ENCODING 39
SWIDTH 500 0
DWIDTH 12 0
BBX 3 6 2 14
BITMAP
E0
E0
E0
60
40
80
ENDCHAR
STARTCHAR 0028
ENCODING 40
SWIDTH 500 0
DWIDTH 12 0
BBX 6 22 4 -2
BITMAP
0C
18
30
30
60
60
C0
C0
C0
C0
C0
C0
C0
C0
C0
C0
60
60
20
30
18
0C
ENDCHAR
STARTCHAR 0029
ENCODING 41
SWIDTH 500 0
DWIDTH 12 0
BBX 6 22 2 -2
BITMAP
C0
60
30
30
18
18
0C
0C
0C
0C
0C
0C
0C
0C
0C
0C
18
18
30
30
60
C0
ENDCHAR
STARTCHAR 002A
ENCODING 42
SWIDTH 500 0
DWIDTH 12 0
BBX 10 12 1 4
BITMAP
0C00
0C00
0C00
CCC0
EDC0
3B00
0C00
3B00
EDC0
CCC0
0C00
0C00
ENDCHAR
STARTCHAR 002B
ENCODING 43
SWIDTH 500 0
DWIDTH 12 0
BBX 10 14 1 2
BITMAP
0C00
0C00
0C00
0C00
0C00
0C00
FFC0
FFC0
0C00
0C00
0C00
0C00
0C00
0C00
ENDCHAR
STARTCHAR 002C
ENCODING 44
SWIDTH 500 0
DWIDTH 12 0
BBX 3 7 2 -3
BITMAP
60
E0
E0
E0
C0
C0
80
ENDCHAR
STARTCHAR 002D
ENCODING 45
SWIDTH 500 0
DWIDTH 12 0
BBX 10 2 1 8
BITMAP
FFC0
FFC0
ENDCHAR
STARTCHAR 002E
ENCODING 46
SWIDTH 500 0
DWIDTH 12 0
BBX 3 3 2 0
BITMAP
E0
E0
E0
ENDCHAR
STARTCHAR 002F
ENCODING 47
SWIDTH 500 0
DWIDTH 12 0
BBX 10 21 1 -2
BITMAP
0040
0040
0080
0080
0180
0100
0300
0200
0600
0400
0400
0800
0800
1000
1000
2000
2000
6000
4000
C000
8000
ENDCHAR
STARTCHAR 0030
ENCODING 48
SWIDTH 500 0
DWIDTH 12 0
BBX 10 17 1 1
BITMAP
1E00
3F00
7180
6180
6380
E280
C4C0
C4C0
CCC0
C8C0
C8C0
5180
7180
6180
6380
3F00
1E00
ENDCHAR
STARTCHAR 0031
ENCODING 49
SWIDTH 500 0
DWIDTH 12 0
BBX 4 17 3 1
BITMAP
30
70
F0
B0
30
30
30
30
30
30
30
30
30
30
30
30
30
ENDCHAR
STARTCHAR 0032
ENCODING 50
SWIDTH 500 0
DWIDTH 12 0
BBX 10 17 1 1
BITMAP
1E00
7F80
6180
C0C0
C0C0
0180
0180
0380
0700
0E00
1C00
3000
3000
6000
6000
FFC0
FFC0
ENDCHAR
STARTCHAR 0033
ENCODING 51
SWIDTH 500 0
DWIDTH 12 0
BBX 10 17 1 1
BITMAP
1E00
7F00
6180
C180
0080
0180
0180
1F00
1F00
0180
00C0
00C0
C0C0
C0C0
6180
7F80
1E00
ENDCHAR
STARTCHAR 0034
ENCODING 52
SWIDTH 500 0
DWIDTH 12 0
BBX 10 17 1 1
BITMAP
0300
0700
0700
0D00
0900
1900
3100
3100
6100
C100
C100
FFC0
FFC0
0100
0100
0100
0100
ENDCHAR
STARTCHAR 0035
ENCODING 53
SWIDTH 500 0
DWIDTH 12 0
BBX 10 17 1 1
BITMAP
7F80
7F80
6000
6000
6000
6E00
7F80
7180
61C0
00C0
00C0
00C0
00C0
C0C0
6180
7F00
1E00
ENDCHAR
STARTCHAR 0036
ENCODING 54
SWIDTH 500 0
DWIDTH 12 0
BBX 10 17 1 1
BITMAP
1E00
3F80
3180
60C0
6000
4000
C000
DE00
FF80
E180
E0C0
C0C0
40C0
60C0
6180
3F80
1E00
ENDCHAR
STARTCHAR 0037
ENCODING 55
SWIDTH 500 0
DWIDTH 12 0
BBX 10 17 1 1
BITMAP
FFC0
FFC0
0080
0180
0180
0300
0300
0300
0600
0600
0600
0C00
0C00
0C00
1800
1800
1800
ENDCHAR
STARTCHAR 0038
ENCODING 56
SWIDTH 500 0
DWIDTH 12 0
BBX 10 17 1 1
BITMAP
1E00
3F00
6180
6180
4080
6180
6180
3F00
3F00
6180
C0C0
C0C0
C0C0
C0C0
E1C0
7F80
1F00
ENDCHAR
STARTCHAR 0039
ENCODING 57
SWIDTH 500 0
DWIDTH 12 0
BBX 10 17 1 1
BITMAP
1E00
3F00
6380
4180
C0C0
C0C0
C0C0
61C0
63C0
7FC0
1CC0
00C0
0080
6180
6380
3F00
1E00
ENDCHAR
STARTCHAR 003A
ENCODING 58
SWIDTH 500 0
DWIDTH 12 0
BBX 2 12 5 1
BITMAP
C0
C0
C0
00
00
00
00
00
00
C0
C0
C0
ENDCHAR
STARTCHAR 003B
ENCODING 59
SWIDTH 500 0
DWIDTH 12 0
BBX 3 15 4 -3
BITMAP
60
60
60
00
00
00
00
00
00
60
60
E0
C0
C0
80
ENDCHAR
STARTCHAR 003C
ENCODING 60
SWIDTH 500 0
DWIDTH 12 0
BBX 10 19 1 -1
BITMAP
0040
00C0
01C0
0300
0600
0C00
1800
3000
6000
C000
C000
6000
3800
1C00
0E00
0700
0380
00C0
0040
ENDCHAR
STARTCHAR 003D
ENCODING 61
SWIDTH 500 0
DWIDTH 12 0
BBX 10 6 1 6
BITMAP
FFC0
FFC0
0000
0000
FFC0
FFC0
ENDCHAR
STARTCHAR 003E
ENCODING 62
SWIDTH 500 0
DWIDTH 12 0
BBX 10 19 1 -1
BITMAP
8000
C000
E000
3000
1800
0C00
0600
0300
0180
00C0
00C0
0380
0700
0E00
1C00
3800
7000
C000
8000
ENDCHAR
STARTCHAR 003F
ENCODING 63
SWIDTH 500 0
DWIDTH 12 0
BBX 10 19 1 0
BITMAP
1E00
3F80
61C0
E0C0
C0C0
C0C0
0180
0380
0700
0600
0C00
0C00
0C00
0C00
0000
0000
1C00
1C00
1C00
ENDCHAR
STARTCHAR 0040
ENCODING 64
SWIDTH 500 0
DWIDTH 12 0
BBX 10 18 1 0
BITMAP
1E00
3F00
6180
C0C0
CD40
9340
9340
B340
B340
B240
B240
B640
BFC0
DD80
C080
61C0
7F80
1E00
ENDCHAR
STARTCHAR 0041
ENCODING 65
SWIDTH 500 0
DWIDTH 12 0
BBX 10 17 1 1
BITMAP
0C00
1E00
1E00
1E00
1200
3300
3300
3300
3300
6180
7F80
7F80
6180
E0C0
C0C0
C0C0
C0C0
ENDCHAR
STARTCHAR 0042
ENCODING 66
SWIDTH 500 0
DWIDTH 12 0
BBX 9 17 2 1
BITMAP
FC00
FE00
C700
C300
C300
C300
C700
FC00
FE00
C300
C180
C180
C180
C180
C300
FF00
FC00
ENDCHAR
STARTCHAR 0043
ENCODING 67
SWIDTH 500 0
DWIDTH 12 0
BBX 10 17 1 1
BITMAP
1E00
3F00
7180
6180
60C0
C000
C000
C000
C000
C000
C000
C0C0
60C0
6180
7180
3F00
1E00
ENDCHAR
STARTCHAR 0044
ENCODING 68
SWIDTH 500 0
DWIDTH 12 0
BBX 10 17 1 1
BITMAP
FC00
FF00
6380
6180
6180
60C0
60C0
60C0
60C0
60C0
60C0
60C0
6180
6180
6380
FF00
FC00
ENDCHAR
STARTCHAR 0045
ENCODING 69
SWIDTH 500 0
DWIDTH 12 0
BBX 9 17 2 1
BITMAP
FF00
FF00
C000
C000
C000
C000
C000
FE00
FE00
C000
C000
C000
C000
C000
C000
FF80
FF80
ENDCHAR
STARTCHAR 0046
ENCODING 70
SWIDTH 500 0
DWIDTH 12 0
BBX 8 17 2 1
BITMAP
FF
FF
C0
C0
C0
C0
C0
FE
FE
C0
C0
C0
C0
C0
C0
C0
C0
ENDCHAR
STARTCHAR 0047
ENCODING 71
SWIDTH 500 0
DWIDTH 12 0
BBX 10 17 1 1
BITMAP
1E00
3F00
7180
6180
60C0
C000
C000
C000
C000
C3C0
C3C0
C0C0
E0C0
61C0
71C0
3FC0
1EC0
ENDCHAR
STARTCHAR 0048
ENCODING 72
SWIDTH 500 0
DWIDTH 12 0
BBX 10 17 1 1
BITMAP
C0C0
C0C0
C0C0
C0C0
C0C0
C0C0
C0C0
FFC0
FFC0
C0C0
C0C0
C0C0
C0C0
C0C0
C0C0
C0C0
C0C0
ENDCHAR
STARTCHAR 0049
ENCODING 73
SWIDTH 500 0
DWIDTH 12 0
BBX 6 17 3 1
BITMAP
FC
FC
30
30
30
30
30
30
30
30
30
30
30
30
30
FC
FC
ENDCHAR
STARTCHAR 004A
ENCODING 74
SWIDTH 500 0
DWIDTH 12 0
BBX 9 17 1 1
BITMAP
0180
0180
0180
0180
0180
0180
0180
0180
0180
0180
0180
0180
C180
C180
6300
7F00
3E00
ENDCHAR
STARTCHAR 004B
ENCODING 75
SWIDTH 500 0
DWIDTH 12 0
BBX 9 17 2 1
BITMAP
8300
8700
8600
8C00
8C00
9800
B800
B800
F800
CC00
CC00
8600
8600
8700
8300
8380
8180
ENDCHAR
STARTCHAR 004C
ENCODING 76
SWIDTH 500 0
DWIDTH 12 0
BBX 9 17 2 1
BITMAP
C000
C000
C000
C000
C000
C000
C000
C000
C000
C000
C000
C000
C000
C000
C000
FF80
FF80
ENDCHAR
STARTCHAR 004D
ENCODING 77
SWIDTH 500 0
DWIDTH 12 0
BBX 10 17 1 1
BITMAP
E1C0
E1C0
E1C0
E1C0
E1C0
F3C0
F3C0
D3C0
D2C0
D2C0
D2C0
DEC0
DEC0
CEC0
CCC0
CCC0
CCC0
ENDCHAR
STARTCHAR 004E
ENCODING 78
SWIDTH 500 0
DWIDTH 12 0
BBX 10 17 1 1
BITMAP
E0C0
E0C0
F0C0
F0C0
D0C0
D8C0
C8C0
CCC0
CCC0
C4C0
C6C0
C6C0
C2C0
C3C0
C3C0
C1C0
C1C0
ENDCHAR
STARTCHAR 004F
ENCODING 79
SWIDTH 500 0
DWIDTH 12 0
BBX 10 17 1 1
BITMAP
1E00
3F00
7380
6180
6180
C0C0
C0C0
C0C0
C0C0
C0C0
C0C0
C0C0
6180
6180
7380
3F00
1E00
ENDCHAR
STARTCHAR 0050
ENCODING 80
SWIDTH 500 0
DWIDTH 12 0
BBX 9 17 2 1
BITMAP
FC00
FF00
C300
C180
C180
C180
C180
C300
FF00
FC00
C000
C000
C000
C000
C000
C000
C000
ENDCHAR
STARTCHAR 0051
ENCODING 81
SWIDTH 500 0
DWIDTH 12 0
BBX 10 19 1 -1
BITMAP
1E00
3F00
7380
6180
6180
C0C0
C0C0
C0C0
C0C0
C0C0
C0C0
C0C0
6CC0
6780
7780
3F00
1F00
0100
0100
ENDCHAR
STARTCHAR 0052
ENCODING 82
SWIDTH 500 0
DWIDTH 12 0
BBX 9 17 2 1
BITMAP
FC00
FF00
C300
C180
C180
C180
C300
FF00
FC00
CC00
CC00
C600
C600
C300
C300
C380
C180
ENDCHAR
STARTCHAR 0053
ENCODING 83
SWIDTH 500 0
DWIDTH 12 0
BBX 10 17 1 1
BITMAP
1E00
7F80
6180
6180
6000
6000
3000
1800
0E00
0300
0180
00C0
C0C0
C0C0
61C0
7F80
1F00
ENDCHAR
STARTCHAR 0054
ENCODING 84
SWIDTH 500 0
DWIDTH 12 0
BBX 10 17 1 1
BITMAP
FFC0
FFC0
0C00
0C00
0C00
0C00
0C00
0C00
0C00
0C00
0C00
0C00
0C00
0C00
0C00
0C00
0C00
ENDCHAR
STARTCHAR 0055
ENCODING 85
SWIDTH 500 0
DWIDTH 12 0
BBX 10 17 1 1
BITMAP
C0C0
C0C0
C0C0
C0C0
C0C0
C0C0
C0C0
C0C0
C0C0
C0C0
C0C0
C0C0
C0C0
6180
6180
7F80
1E00
ENDCHAR
STARTCHAR 0056
ENCODING 86
SWIDTH 500 0
DWIDTH 12 0
BBX 10 17 1 1
BITMAP
C0C0
C0C0
C0C0
6180
6180
6180
6180
3300
3300
3300
3300
3300
1E00
1E00
1E00
1E00
0C00
ENDCHAR
STARTCHAR 0057
ENCODING 87
SWIDTH 500 0
DWIDTH 12 0
BBX 10 17 1 1
BITMAP
CCC0
CCC0
CCC0
CCC0
CCC0
DEC0
DEC0
DEC0
52C0
5280
5280
5280
5280
7380
7380
7380
6180
ENDCHAR
STARTCHAR 0058
ENCODING 88
SWIDTH 500 0
DWIDTH 12 0
BBX 10 17 1 1
BITMAP
6180
6180
3300
3300
3F00
1E00
1E00
0C00
1E00
1E00
1E00
3300
3300
6180
6180
E1C0
C0C0
ENDCHAR
STARTCHAR 0059
ENCODING 89
SWIDTH 500 0
DWIDTH 12 0
BBX 10 17 1 1
BITMAP
C0C0
C0C0
6180
6180
3300
3300
3300
1E00
1E00
0C00
0C00
0C00
0C00
0C00
0C00
0C00
0C00
ENDCHAR
STARTCHAR 005A
ENCODING 90
SWIDTH 500 0
DWIDTH 12 0
BBX 9 17 2 1
BITMAP
FF00
FF00
0300
0600
0600
0C00
0C00
1800
1800
3000
3000
6000
6000
C000
C000
FF80
FF80
ENDCHAR
STARTCHAR 005B
ENCODING 91
SWIDTH 500 0
DWIDTH 12 0
BBX 7 22 3 -2
BITMAP
FE
FE
80
80
80
80
80
80
80
80
80
80
80
80
80
80
80
80
80
80
FE
FE
ENDCHAR
STARTCHAR 005C
ENCODING 92
SWIDTH 500 0
DWIDTH 12 0
BBX 10 17 1 1
BITMAP
C0C0
61C0
6180
3300
3300
1E00
0C00
FFC0
FFC0
0C00
0C00
FFC0
FFC0
0C00
0C00
0C00
0C00
ENDCHAR
STARTCHAR 005D
ENCODING 93
SWIDTH 500 0
DWIDTH 12 0
BBX 7 22 2 -2
BITMAP
FE
FE
02
02
02
02
02
02
02
02
02
02
02
02
02
02
02
02
02
02
FE
FE
ENDCHAR
STARTCHAR 005E
ENCODING 94
SWIDTH 500 0
DWIDTH 12 0
BBX 8 3 2 15
BITMAP
3C
66
C3
ENDCHAR
STARTCHAR 005F
ENCODING 95
SWIDTH 500 0
DWIDTH 12 0
BBX 12 1 0 -3
BITMAP
FFF0
ENDCHAR
STARTCHAR 0060
ENCODING 96
SWIDTH 500 0
DWIDTH 12 0
BBX 5 3 3 15
BITMAP
E0
30
18
ENDCHAR
STARTCHAR 0061
ENCODING 97
SWIDTH 500 0
DWIDTH 12 0
BBX 10 12 1 1
BITMAP
1E00
3F00
6380
6180
0180
0F80
3D80
6180
C180
C380
7FC0
3CC0
ENDCHAR
STARTCHAR 0062
ENCODING 98
SWIDTH 500 0
DWIDTH 12 0
BBX 9 17 2 1
BITMAP
C000
C000
C000
C000
C000
DE00
FF00
E300
C180
C180
C180
C180
C180
C300
E300
FF00
9C00
ENDCHAR
STARTCHAR 0063
ENCODING 99
SWIDTH 500 0
DWIDTH 12 0
BBX 9 12 1 1
BITMAP
1E00
3F00
7180
6180
4000
C000
C000
4000
6180
7180
3F00
1E00
ENDCHAR
STARTCHAR 0064
ENCODING 100
SWIDTH 500 0
DWIDTH 12 0
BBX 9 17 1 1
BITMAP
0180
0180
0180
0180
0180
3D80
7F80
6380
6180
C180
C180
C180
C180
E180
6380
7F80
3C80
ENDCHAR
STARTCHAR 0065
ENCODING 101
SWIDTH 500 0
DWIDTH 12 0
BBX 10 12 1 1
BITMAP
1E00
3F00
6180
6180
4080
FF80
FFC0
4000
6180
6180
3F00
1E00
ENDCHAR
STARTCHAR 0066
ENCODING 102
SWIDTH 500 0
DWIDTH 12 0
BBX 8 17 2 1
BITMAP
0F
1F
18
18
18
FF
FF
18
18
18
18
18
18
18
18
18
18
ENDCHAR
STARTCHAR 0067
ENCODING 103
SWIDTH 500 0
DWIDTH 12 0
BBX 9 16 1 -3
BITMAP
1E80
7F80
6180
C180
C080
C080
C180
6380
7F80
1E80
0080
0080
4180
6180
7F00
1E00
ENDCHAR
STARTCHAR 0068
ENCODING 104
SWIDTH 500 0
DWIDTH 12 0
BBX 8 17 2 1
BITMAP
C0
C0
C0
C0
C0
DE
FF
E3
C1
C1
C1
C1
C1
C1
C1
C1
C1
ENDCHAR
STARTCHAR 0069
ENCODING 105
SWIDTH 500 0
DWIDTH 12 0
BBX 2 17 5 1
BITMAP
C0
C0
00
00
00
C0
C0
C0
C0
C0
C0
C0
C0
C0
C0
C0
C0
ENDCHAR
STARTCHAR 006A
ENCODING 106
SWIDTH 500 0
DWIDTH 12 0
BBX 6 20 2 -2
BITMAP
0C
0C
00
00
00
0C
0C
0C
0C
0C
0C
0C
0C
0C
0C
0C
0C
0C
F8
F8
ENDCHAR
STARTCHAR 006B
ENCODING 107
SWIDTH 500 0
DWIDTH 12 0
BBX 9 17 2 1
BITMAP
C000
C000
C000
C000
C000
C700
C600
CC00
D800
F800
F800
EC00
CC00
C600
C700
C300
C180
ENDCHAR
STARTCHAR 006C
ENCODING 108
SWIDTH 500 0
DWIDTH 12 0
BBX 5 17 5 1
BITMAP
C0
C0
C0
C0
C0
C0
C0
C0
C0
C0
C0
C0
C0
C0
C0
F8
78
ENDCHAR
STARTCHAR 006D
ENCODING 109
SWIDTH 500 0
DWIDTH 12 0
BBX 10 12 1 1
BITMAP
FB80
FFC0
CCC0
CCC0
CCC0
CCC0
CCC0
CCC0
CCC0
CCC0
CCC0
CCC0
ENDCHAR
STARTCHAR 006E
ENCODING 110
SWIDTH 500 0
DWIDTH 12 0
BBX 8 12 2 1
BITMAP
9E
FF
E3
C1
C1
C1
C1
C1
C1
C1
C1
C1
ENDCHAR
STARTCHAR 006F
ENCODING 111
SWIDTH 500 0
DWIDTH 12 0
BBX 10 12 1 1
BITMAP
1E00
3F00
7180
6180
4080
C0C0
C0C0
4180
6180
7380
3F00
1E00
ENDCHAR
STARTCHAR 0070
ENCODING 112
SWIDTH 500 0
DWIDTH 12 0
BBX 9 15 2 -2
BITMAP
9C00
FF00
E300
C380
C180
C180
C180
C180
C100
E300
FF00
DE00
C000
C000
C000
ENDCHAR
STARTCHAR 0071
ENCODING 113
SWIDTH 500 0
DWIDTH 12 0
BBX 9 15 1 -2
BITMAP
3C80
7F80
6380
4180
C180
C180
C180
C180
6180
6380
7F80
3D80
0180
0180
0180
ENDCHAR
STARTCHAR 0072
ENCODING 114
SWIDTH 500 0
DWIDTH 12 0
BBX 6 12 4 1
BITMAP
8C
BC
F0
E0
C0
80
80
80
80
80
80
80
ENDCHAR
STARTCHAR 0073
ENCODING 115
SWIDTH 500 0
DWIDTH 12 0
BBX 8 12 2 1
BITMAP
3C
FE
C3
C0
60
38
06
03
81
C3
FF
3E
ENDCHAR
STARTCHAR 0074
ENCODING 116
SWIDTH 500 0
DWIDTH 12 0
BBX 7 15 2 1
BITMAP
18
18
18
FE
FE
18
18
18
18
18
18
18
18
1E
1E
ENDCHAR
STARTCHAR 0075
ENCODING 117
SWIDTH 500 0
DWIDTH 12 0
BBX 8 12 2 1
BITMAP
C1
C1
C1
C1
C1
C1
C1
C1
C3
C7
FF
79
ENDCHAR
STARTCHAR 0076
ENCODING 118
SWIDTH 500 0
DWIDTH 12 0
BBX 10 12 1 1
BITMAP
C0C0
6180
6180
6180
3300
3300
3300
1200
1E00
1E00
0C00
0C00
ENDCHAR
STARTCHAR 0077
ENCODING 119
SWIDTH 500 0
DWIDTH 12 0
BBX 10 12 1 1
BITMAP
8C40
CCC0
CCC0
DEC0
DEC0
D2C0
5280
5280
5280
7380
7380
6180
ENDCHAR
STARTCHAR 0078
ENCODING 120
SWIDTH 500 0
DWIDTH 12 0
BBX 10 12 1 1
BITMAP
6180
3300
3300
1E00
1E00
0C00
1E00
1E00
3300
3300
6180
E1C0
ENDCHAR
STARTCHAR 0079
ENCODING 121
SWIDTH 500 0
DWIDTH 12 0
BBX 9 15 2 -2
BITMAP
C180
C300
C300
6300
6600
2600
3600
3400
1C00
1C00
1800
1800
1000
F000
E000
ENDCHAR
STARTCHAR 007A
ENCODING 122
SWIDTH 500 0
DWIDTH 12 0
BBX 8 12 2 1
BITMAP
FF
FF
06
06
0C
18
30
30
60
C0
FF
FF
ENDCHAR
STARTCHAR 007B
ENCODING 123
SWIDTH 500 0
DWIDTH 12 0
BBX 6 22 4 -2
BITMAP
0C
1C
30
30
30
30
30
30
30
60
E0
E0
20
30
30
30
30
30
30
30
1C
04
ENDCHAR
STARTCHAR 007C
ENCODING 124
SWIDTH 500 0
DWIDTH 12 0
BBX 2 24 5 -3
BITMAP
C0
C0
C0
C0
C0
C0
C0
C0
C0
C0
C0
C0
C0
C0
C0
C0
C0
C0
C0
C0
C0
C0
C0
C0
ENDCHAR
STARTCHAR 007D
ENCODING 125
SWIDTH 500 0
DWIDTH 12 0
BBX 6 22 2 -2
BITMAP
C0
E0
30
30
30
30
30
30
30
18
1C
1C
30
30
30
30
30
30
30
30
E0
80
ENDCHAR
STARTCHAR 007E
ENCODING 126
SWIDTH 500 0
DWIDTH 12 0
BBX 8 2 2 16
BITMAP
FF
FF
ENDCHAR
STARTCHAR 00A0
ENCODING 160
SWIDTH 500 0
DWIDTH 12 0
BBX 0 0 0 0
BITMAP
ENDCHAR
STARTCHAR 00A1
ENCODING 161
SWIDTH 500 0
DWIDTH 12 0
BBX 2 19 5 0
BITMAP
C0
C0
C0
00
00
C0
C0
C0
C0
C0
C0
C0
C0
C0
C0
C0
C0
C0
C0
ENDCHAR
STARTCHAR 00A2
ENCODING 162
SWIDTH 1000 0
DWIDTH 24 0
BBX 12 18 6 1
BITMAP
00C0
0080
0180
1F80
3FC0
7360
E360
C200
C600
C600
CC00
CC70
68E0
3FC0
1F80
1000
3000
3000
ENDCHAR
STARTCHAR 00A3
ENCODING 163
SWIDTH 1000 0
DWIDTH 24 0
BBX 16 17 4 1
BITMAP
03E0
07F8
0618
0C18
0C00
0600
3FF0
3FF0
0300
0300
0100
7900
FF02
C703
C7C7
FEFE
7C3C
ENDCHAR
STARTCHAR 00A4
ENCODING 164
SWIDTH 500 0
DWIDTH 12 0
BBX 8 8 2 6
BITMAP
81
7E
42
42
42
42
7E
81
ENDCHAR
STARTCHAR 00A5
ENCODING 165
SWIDTH 1000 0
DWIDTH 24 0
BBX 14 17 5 1
BITMAP
E01C
6018
3030
1860
1CE0
0FC0
FFFC
FFFC
0300
0300
0300
FFFC
FFFC
0300
0300
0300
0300
ENDCHAR
STARTCHAR 00A6
ENCODING 166
SWIDTH 500 0
DWIDTH 12 0
BBX 2 22 5 -2
BITMAP
C0
C0
C0
C0
C0
C0
C0
C0
C0
C0
00
00
C0
C0
C0
C0
C0
C0
C0
C0
C0
C0
ENDCHAR
STARTCHAR 00A7
ENCODING 167
SWIDTH 1000 0
DWIDTH 24 0
BBX 10 22 7 -2
BITMAP
1E00
7F00
6180
E180
C0C0
6000
7000
3C00
6F00
C380
C0C0
C0C0
70C0
3D80
0F00
0380
0180
C0C0
C1C0
6180
7F80
1E00
ENDCHAR
STARTCHAR 00A8
ENCODING 168
SWIDTH 1000 0
DWIDTH 24 0
BBX 8 2 8 16
BITMAP
C3
C3
ENDCHAR
STARTCHAR 00A9
ENCODING 169
SWIDTH 500 0
DWIDTH 12 0
BBX 10 11 1 4
BITMAP
1E00
6180
DE80
B340
A140
A040
A040
A140
F340
7E80
1F00
ENDCHAR
STARTCHAR 00AA
ENCODING 170
SWIDTH 500 0
DWIDTH 12 0
BBX 7 10 1 8
BITMAP
78
44
04
7C
C4
C4
CC
76
00
FE
ENDCHAR
STARTCHAR 00AB
ENCODING 171
SWIDTH 500 0
DWIDTH 12 0
BBX 7 10 3 2
BITMAP
32
26
6C
C8
98
98
C8
6C
26
32
ENDCHAR
STARTCHAR 00AC
ENCODING 172
SWIDTH 1000 0
DWIDTH 24 0
BBX 21 10 1 4
BITMAP
FFFFF8
FFFFF8
000018
000018
000018
000018
000018
000018
000018
000018
ENDCHAR
STARTCHAR 00AD
ENCODING 173
SWIDTH 500 0
DWIDTH 12 0
BBX 10 2 1 8
BITMAP
FFC0
FFC0
ENDCHAR
STARTCHAR 00AE
ENCODING 174
SWIDTH 500 0
DWIDTH 12 0
BBX 10 11 1 4
BITMAP
1E00
6180
BEC0
A140
A140
BE40
A640
A240
E180
6180
1E00
ENDCHAR
STARTCHAR 00AF
ENCODING 175
SWIDTH 500 0
DWIDTH 12 0
BBX 8 1 2 16
BITMAP
FF
ENDCHAR
STARTCHAR 00B0
ENCODING 176
SWIDTH 1000 0
DWIDTH 24 0
BBX 6 5 1 15
BITMAP
78
C8
84
C8
78
ENDCHAR
STARTCHAR 00B1
ENCODING 177
SWIDTH 1000 0
DWIDTH 24 0
BBX 16 17 4 1
BITMAP
0180
0180
0180
0180
0180
0180
FFFF
FFFF
0180
0180
0180
0180
0180
0000
0000
FFFF
FFFF
ENDCHAR
STARTCHAR 00B2
ENCODING 178
SWIDTH 500 0
DWIDTH 12 0
BBX 6 9 1 12
BITMAP
38
4C
44
0C
18
30
60
40
FC
ENDCHAR
STARTCHAR 00B3
ENCODING 179
SWIDTH 500 0
DWIDTH 12 0
BBX 6 8 1 12
BITMAP
78
4C
08
38
08
04
CC
78
ENDCHAR
STARTCHAR 00B4
ENCODING 180
SWIDTH 1000 0
DWIDTH 24 0
BBX 5 3 10 15
BITMAP
38
60
C0
ENDCHAR
STARTCHAR 00B6
ENCODING 182
SWIDTH 1000 0
DWIDTH 24 0
BBX 10 22 6 -2
BITMAP
3FC0
7CC0
FCC0
FCC0
FCC0
FCC0
7CC0
7CC0
0CC0
0CC0
0CC0
0CC0
0CC0
0CC0
0CC0
0CC0
0CC0
0CC0
0CC0
0CC0
0CC0
0CC0
ENDCHAR
STARTCHAR 00B7
ENCODING 183
SWIDTH 500 0
DWIDTH 12 0
BBX 4 3 4 8
BITMAP
F0
F0
F0
ENDCHAR
STARTCHAR 00B8
ENCODING 184
SWIDTH 500 0
DWIDTH 12 0
BBX 6 5 3 -1
BITMAP
60
40
7C
04
F8
ENDCHAR
STARTCHAR 00B9
ENCODING 185
SWIDTH 500 0
DWIDTH 12 0
BBX 2 8 3 12
BITMAP
40
C0
40
40
40
40
40
40
ENDCHAR
STARTCHAR 00BA
ENCODING 186
SWIDTH 500 0
DWIDTH 12 0
BBX 7 10 1 8
BITMAP
38
64
C6
C2
C2
C6
44
38
00
FE
ENDCHAR
STARTCHAR 00BB
ENCODING 187
SWIDTH 500 0
DWIDTH 12 0
BBX 7 10 2 2
BITMAP
98
C8
6C
26
32
32
26
6C
C8
98
ENDCHAR
STARTCHAR 00BC
ENCODING 188
SWIDTH 500 0
DWIDTH 12 0
BBX 10 22 1 -2
BITMAP
20C0
E080
2080
2100
2100
2300
2200
2600
2400
2400
2800
0980
1B80
1280
1680
2480
2C80
6880
5FC0
C080
8080
8080
ENDCHAR
STARTCHAR 00BD
ENCODING 189
SWIDTH 500 0
DWIDTH 12 0
BBX 11 22 1 -2
BITMAP
20C0
E080
2080
2100
2100
2300
2200
2600
2400
2400
2800
0B80
1E40
1440
1040
20C0
20C0
6180
4300
4600
8600
87E0
ENDCHAR
STARTCHAR 00BE
ENCODING 190
SWIDTH 500 0
DWIDTH 12 0
BBX 11 22 1 -2
BITMAP
7040
D840
88C0
0880
1980
6100
1900
0A00
8A00
CE00
7400
0580
0980
0B80
1A80
1480
3C80
2880
2FE0
4080
4080
C080
ENDCHAR
STARTCHAR 00BF
ENCODING 191
SWIDTH 500 0
DWIDTH 12 0
BBX 10 19 1 0
BITMAP
0E00
0E00
0E00
0000
0000
0C00
0C00
0C00
0C00
1800
3800
7000
6000
C0C0
C0C0
C1C0
E180
7F00
3E00
ENDCHAR
STARTCHAR 00C0
ENCODING 192
SWIDTH 500 0
DWIDTH 12 0
BBX 10 20 1 1
BITMAP
1800
0400
0000
0C00
1E00
1E00
1E00
1200
3300
3300
3300
3300
6180
7F80
7F80
6180
E0C0
C0C0
C0C0
C0C0
ENDCHAR
STARTCHAR 00C1
ENCODING 193
SWIDTH 500 0
DWIDTH 12 0
BBX 10 20 1 1
BITMAP
0600
0800
0000
0C00
1E00
1E00
1E00
1200
3300
3300
3300
3300
6180
7F80
7F80
6180
E0C0
C0C0
C0C0
C0C0
ENDCHAR
STARTCHAR 00C2
ENCODING 194
SWIDTH 500 0
DWIDTH 12 0
BBX 10 20 1 1
BITMAP
1E00
3300
0000
0C00
1E00
1E00
1E00
1200
3300
3300
3300
3300
6180
7F80
7F80
6180
E0C0
C0C0
C0C0
C0C0
ENDCHAR
STARTCHAR 00C3
ENCODING 195
SWIDTH 500 0
DWIDTH 12 0
BBX 10 20 1 1
BITMAP
1800
2700
0000
0C00
1E00
1E00
1E00
1200
3300
3300
3300
3300
6180
7F80
7F80
6180
E0C0
C0C0
C0C0
C0C0
ENDCHAR
STARTCHAR 00C4
ENCODING 196
SWIDTH 500 0
DWIDTH 12 0
BBX 10 20 1 1
BITMAP
3300
3300
0000
0C00
1E00
1E00
1E00
1200
3300
3300
3300
3300
6180
7F80
7F80
6180
E0C0
C0C0
C0C0
C0C0
ENDCHAR
STARTCHAR 00C5
ENCODING 197
SWIDTH 500 0
DWIDTH 12 0
BBX 10 20 1 1
BITMAP
0C00
1200
1200
0C00
1E00
1E00
1E00
1200
3300
3300
3300
3300
6180
7F80
7F80
6180
E0C0
C0C0
C0C0
C0C0
ENDCHAR
STARTCHAR 00C6
ENCODING 198
SWIDTH 500 0
DWIDTH 12 0
BBX 10 17 1 1
BITMAP
0FC0
1FC0
1E00
1E00
1600
3600
3600
37C0
27C0
6600
7E00
7E00
6600
C600
C600
C7C0
C7C0
ENDCHAR
STARTCHAR 00C7
ENCODING 199
SWIDTH 500 0
DWIDTH 12 0
BBX 10 21 1 -3
BITMAP
1E00
3F00
7180
6180
60C0
C000
C000
C000
C000
C000
C000
C0C0
E0C0
6180
6180
3F00
1E00
0800
1E00
0200
1E00
ENDCHAR
STARTCHAR 00C8
ENCODING 200
SWIDTH 500 0
DWIDTH 12 0
BBX 9 20 2 1
BITMAP
3000
0800
0000
FF00
FF00
C000
C000
C000
C000
C000
FE00
FE00
C000
C000
C000
C000
C000
C000
FF80
FF80
ENDCHAR
STARTCHAR 00C9
ENCODING 201
SWIDTH 500 0
DWIDTH 12 0
BBX 9 20 2 1
BITMAP
0C00
1000
0000
FF00
FF00
C000
C000
C000
C000
C000
FE00
FE00
C000
C000
C000
C000
C000
C000
FF80
FF80
ENDCHAR
STARTCHAR 00CA
ENCODING 202
SWIDTH 500 0
DWIDTH 12 0
BBX 9 20 2 1
BITMAP
3C00
6600
0000
FF00
FF00
C000
C000
C000
C000
C000
FE00
FE00
C000
C000
C000
C000
C000
C000
FF80
FF80
ENDCHAR
STARTCHAR 00CB
ENCODING 203
SWIDTH 500 0
DWIDTH 12 0
BBX 9 20 2 1
BITMAP
6600
6600
0000
FF00
FF00
C000
C000
C000
C000
C000
FE00
FE00
C000
C000
C000
C000
C000
C000
FF80
FF80
ENDCHAR
STARTCHAR 00CC
ENCODING 204
SWIDTH 500 0
DWIDTH 12 0
BBX 3 20 4 1
BITMAP
C0
20
00
60
60
60
60
60
60
60
60
60
60
60
60
60
60
60
60
60
ENDCHAR
STARTCHAR 00CD
ENCODING 205
SWIDTH 500 0
DWIDTH 12 0
BBX 3 20 5 1
BITMAP
60
80
00
C0
C0
C0
C0
C0
C0
C0
C0
C0
C0
C0
C0
C0
C0
C0
C0
C0
ENDCHAR
STARTCHAR 00CE
ENCODING 206
SWIDTH 500 0
DWIDTH 12 0
BBX 6 20 3 1
BITMAP
38
CC
00
30
30
30
30
30
30
30
30
30
30
30
30
30
30
30
30
30
ENDCHAR
STARTCHAR 00CF
ENCODING 207
SWIDTH 500 0
DWIDTH 12 0
BBX 6 20 3 1
BITMAP
CC
CC
00
30
30
30
30
30
30
30
30
30
30
30
30
30
30
30
30
30
ENDCHAR
STARTCHAR 00D0
ENCODING 208
SWIDTH 500 0
DWIDTH 12 0
BBX 10 17 1 1
BITMAP
7C00
7F00
6380
6180
6180
60C0
60C0
FCC0
60C0
60C0
60C0
60C0
6180
6180
6380
7F00
7C00
ENDCHAR
STARTCHAR 00D1
ENCODING 209
SWIDTH 500 0
DWIDTH 12 0
BBX 10 20 1 1
BITMAP
1800
2700
0000
E0C0
E0C0
F0C0
F0C0
D0C0
D8C0
C8C0
CCC0
CCC0
C4C0
C6C0
C6C0
C2C0
C3C0
C3C0
C1C0
C1C0
ENDCHAR
STARTCHAR 00D2
ENCODING 210
SWIDTH 500 0
DWIDTH 12 0
BBX 10 20 1 1
BITMAP
1800
0400
0000
1E00
3F00
7380
6180
6180
C0C0
C0C0
C0C0
C0C0
C0C0
C0C0
C0C0
6180
6180
7380
3F00
1E00
ENDCHAR
STARTCHAR 00D3
ENCODING 211
SWIDTH 500 0
DWIDTH 12 0
BBX 10 20 1 1
BITMAP
0600
0800
0000
1E00
3F00
7380
6180
6180
C0C0
C0C0
C0C0
C0C0
C0C0
C0C0
C0C0
6180
6180
7380
3F00
1E00
ENDCHAR
STARTCHAR 00D4
ENCODING 212
SWIDTH 500 0
DWIDTH 12 0
BBX 10 20 1 1
BITMAP
1E00
3300
0000
1E00
3F00
7380
6180
6180
C0C0
C0C0
C0C0
C0C0
C0C0
C0C0
C0C0
6180
6180
7380
3F00
1E00
ENDCHAR
STARTCHAR 00D5
ENCODING 213
SWIDTH 500 0
DWIDTH 12 0
BBX 10 20 1 1
BITMAP
1800
2700
0000
1E00
3F00
7380
6180
6180
C0C0
C0C0
C0C0
C0C0
C0C0
C0C0
C0C0
6180
6180
7380
3F00
1E00
ENDCHAR
STARTCHAR 00D6
ENCODING 214
SWIDTH 500 0
DWIDTH 12 0
BBX 10 20 1 1
BITMAP
3300
3300
0000
1E00
3F00
7380
6180
6180
C0C0
C0C0
C0C0
C0C0
C0C0
C0C0
C0C0
6180
6180
7380
3F00
1E00
ENDCHAR
STARTCHAR 00D7
ENCODING 215
SWIDTH 1000 0
DWIDTH 24 0
BBX 14 14 5 3
BITMAP
C00C
6018
3038
1870
0CE0
07C0
0380
0780
0FC0
1CE0
3870
7038
E01C
C00C
ENDCHAR
STARTCHAR 00D8
ENCODING 216
SWIDTH 500 0
DWIDTH 12 0
BBX 10 20 1 0
BITMAP
0040
00C0
1E80
3F80
7180
6180
62C0
C2C0
C4C0
C4C0
CCC0
C8C0
C8C0
D0C0
D180
6180
6380
7F00
5E00
8000
ENDCHAR
STARTCHAR 00D9
ENCODING 217
SWIDTH 500 0
DWIDTH 12 0
BBX 10 20 1 1
BITMAP
1800
0400
0000
C0C0
C0C0
C0C0
C0C0
C0C0
C0C0
C0C0
C0C0
C0C0
C0C0
C0C0
C0C0
C0C0
6180
6180
7F80
1E00
ENDCHAR
STARTCHAR 00DA
ENCODING 218
SWIDTH 500 0
DWIDTH 12 0
BBX 10 20 1 1
BITMAP
0600
0800
0000
C0C0
C0C0
C0C0
C0C0
C0C0
C0C0
C0C0
C0C0
C0C0
C0C0
C0C0
C0C0
C0C0
6180
6180
7F80
1E00
ENDCHAR
STARTCHAR 00DB
ENCODING 219
SWIDTH 500 0
DWIDTH 12 0
BBX 10 20 1 1
BITMAP
1E00
3300
0000
C0C0
C0C0
C0C0
C0C0
C0C0
C0C0
C0C0
C0C0
C0C0
C0C0
C0C0
C0C0
C0C0
6180
6180
7F80
1E00
ENDCHAR
STARTCHAR 00DC
ENCODING 220
SWIDTH 500 0
DWIDTH 12 0
BBX 10 20 1 1
BITMAP
3300
3300
0000
C0C0
C0C0
C0C0
C0C0
C0C0
C0C0
C0C0
C0C0
C0C0
C0C0
C0C0
C0C0
C0C0
6180
6180
7F80
1E00
ENDCHAR
STARTCHAR 00DD
ENCODING 221
SWIDTH 500 0
DWIDTH 12 0
BBX 10 20 1 1
BITMAP
0600
0800
0000
C0C0
C0C0
6180
6180
3300
3300
3300
1E00
1E00
0C00
0C00
0C00
0C00
0C00
0C00
0C00
0C00
ENDCHAR
STARTCHAR 00DE
ENCODING 222
SWIDTH 500 0
DWIDTH 12 0
BBX 9 17 2 1
BITMAP
C000
C000
C000
FC00
FF00
C300
C180
C180
C180
C180
C300
FF00
FC00
C000
C000
C000
C000
ENDCHAR
STARTCHAR 00DF
ENCODING 223
SWIDTH 500 0
DWIDTH 12 0
BBX 9 17 2 1
BITMAP
3C00
7E00
E700
C300
C300
C300
C600
DC00
DE00
C700
C300
C180
C180
C180
C300
DF00
DE00
ENDCHAR
STARTCHAR 00E0
ENCODING 224
SWIDTH 500 0
DWIDTH 12 0
BBX 10 15 1 1
BITMAP
1800
0400
0000
1E00
3F00
6380
6180
0180
0F80
3D80
6180
C180
C380
7FC0
3CC0
ENDCHAR
STARTCHAR 00E1
ENCODING 225
SWIDTH 500 0
DWIDTH 12 0
BBX 10 15 1 1
BITMAP
0600
0800
0000
1E00
3F00
6380
6180
0180
0F80
3D80
6180
C180
C380
7FC0
3CC0
ENDCHAR
STARTCHAR 00E2
ENCODING 226
SWIDTH 500 0
DWIDTH 12 0
BBX 10 15 1 1
BITMAP
1E00
3300
0000
1E00
3F00
6380
6180
0180
0F80
3D80
6180
C180
C380
7FC0
3CC0
ENDCHAR
STARTCHAR 00E3
ENCODING 227
SWIDTH 500 0
DWIDTH 12 0
BBX 10 16 1 1
BITMAP
1900
2700
0000
0000
1E00
3F00
6380
6180
0180
0F80
3D80
6180
C180
C380
7FC0
3CC0
ENDCHAR
STARTCHAR 00E4
ENCODING 228
SWIDTH 500 0
DWIDTH 12 0
BBX 10 15 1 1
BITMAP
3300
3300
0000
1E00
3F00
6380
6180
0180
0F80
3D80
6180
C180
C380
7FC0
3CC0
ENDCHAR
STARTCHAR 00E5
ENCODING 229
SWIDTH 500 0
DWIDTH 12 0
BBX 10 17 1 1
BITMAP
0C00
1200
1C00
0000
0000
1E00
3F00
6380
6180
0180
0F80
3D80
6180
C180
C380
7FC0
3CC0
ENDCHAR
STARTCHAR 00E6
ENCODING 230
SWIDTH 500 0
DWIDTH 12 0
BBX 10 12 1 1
BITMAP
7B80
7F80
CCC0
CCC0
0CC0
1FC0
6C00
CC00
CC40
CCC0
FFC0
7B80
ENDCHAR
STARTCHAR 00E7
ENCODING 231
SWIDTH 500 0
DWIDTH 12 0
BBX 9 16 1 -3
BITMAP
1E00
3F00
7180
6180
4000
C000
C000
4000
6180
7180
3F00
1E00
0800
1E00
0200
1E00
ENDCHAR
STARTCHAR 00E8
ENCODING 232
SWIDTH 500 0
DWIDTH 12 0
BBX 10 15 1 1
BITMAP
1800
0400
0000
1E00
3F00
6180
6180
4080
FF80
FFC0
4000
6180
6180
3F00
1E00
ENDCHAR
STARTCHAR 00E9
ENCODING 233
SWIDTH 500 0
DWIDTH 12 0
BBX 10 15 1 1
BITMAP
0600
0800
0000
1E00
3F00
6180
6180
4080
FF80
FFC0
4000
6180
6180
3F00
1E00
ENDCHAR
STARTCHAR 00EA
ENCODING 234
SWIDTH 500 0
DWIDTH 12 0
BBX 10 15 1 1
BITMAP
1E00
3300
0000
1E00
3F00
6180
6180
4080
FF80
FFC0
4000
6180
6180
3F00
1E00
ENDCHAR
STARTCHAR 00EB
ENCODING 235
SWIDTH 500 0
DWIDTH 12 0
BBX 10 15 1 1
BITMAP
3300
3300
0000
1E00
3F00
6180
6180
4080
FF80
FFC0
4000
6180
6180
3F00
1E00
ENDCHAR
STARTCHAR 00EC
ENCODING 236
SWIDTH 500 0
DWIDTH 12 0
BBX 3 15 4 1
BITMAP
C0
60
00
60
60
60
60
60
60
60
60
60
60
60
60
ENDCHAR
STARTCHAR 00ED
ENCODING 237
SWIDTH 500 0
DWIDTH 12 0
BBX 3 15 5 1
BITMAP
60
C0
00
C0
C0
C0
C0
C0
C0
C0
C0
C0
C0
C0
C0
ENDCHAR
STARTCHAR 00EE
ENCODING 238
SWIDTH 500 0
DWIDTH 12 0
BBX 6 15 3 1
BITMAP
38
CC
00
30
30
30
30
30
30
30
30
30
30
30
30
ENDCHAR
STARTCHAR 00EF
ENCODING 239
SWIDTH 500 0
DWIDTH 12 0
BBX 6 15 3 1
BITMAP
CC
CC
00
30
30
30
30
30
30
30
30
30
30
30
30
ENDCHAR
STARTCHAR 00F0
ENCODING 240
SWIDTH 500 0
DWIDTH 12 0
BBX 10 18 1 1
BITMAP
1100
1E00
0E00
1E00
0300
0180
1F80
3F80
7380
6180
41C0
C0C0
C080
4080
6180
7180
3F00
1E00
ENDCHAR
STARTCHAR 00F1
ENCODING 241
SWIDTH 500 0
DWIDTH 12 0
BBX 8 16 2 1
BITMAP
30
4E
00
00
9E
FF
E3
C1
C1
C1
C1
C1
C1
C1
C1
C1
ENDCHAR
STARTCHAR 00F2
ENCODING 242
SWIDTH 500 0
DWIDTH 12 0
BBX 10 15 1 1
BITMAP
1800
0400
0000
1E00
3F00
7180
6180
4080
C0C0
C0C0
4180
6180
7380
3F00
1E00
ENDCHAR
STARTCHAR 00F3
ENCODING 243
SWIDTH 500 0
DWIDTH 12 0
BBX 10 15 1 1
BITMAP
0600
0800
0000
1E00
3F00
7180
6180
4080
C0C0
C0C0
4180
6180
7380
3F00
1E00
ENDCHAR
STARTCHAR 00F4
ENCODING 244
SWIDTH 500 0
DWIDTH 12 0
BBX 10 15 1 1
BITMAP
1E00
3300
0000
1E00
3F00
7180
6180
4080
C0C0
C0C0
4180
6180
7380
3F00
1E00
ENDCHAR
STARTCHAR 00F5
ENCODING 245
SWIDTH 500 0
DWIDTH 12 0
BBX 10 16 1 1
BITMAP
1900
2700
0000
0000
1E00
3F00
7180
6180
4080
C0C0
C0C0
4180
6180
7380
3F00
1E00
ENDCHAR
STARTCHAR 00F6
ENCODING 246
SWIDTH 500 0
DWIDTH 12 0
BBX 10 15 1 1
BITMAP
3300
3300
0000
1E00
3F00
7180
6180
4080
C0C0
C0C0
4180
6180
7380
3F00
1E00
ENDCHAR
STARTCHAR 00F7
ENCODING 247
SWIDTH 1000 0
DWIDTH 24 0
BBX 16 14 4 2
BITMAP
0180
0180
0180
0000
0000
0000
FFFF
FFFF
0000
0000
0000
0180
0180
0180
ENDCHAR
STARTCHAR 00F8
ENCODING 248
SWIDTH 500 0
DWIDTH 12 0
BBX 10 14 1 1
BITMAP
0080
1F80
3F00
7380
6380
6480
C4C0
C8C0
4980
7180
7380
7F00
7E00
4000
ENDCHAR
STARTCHAR 00F9
ENCODING 249
SWIDTH 500 0
DWIDTH 12 0
BBX 8 15 2 1
BITMAP
30
08
00
C1
C1
C1
C1
C1
C1
C1
C1
C3
C7
FF
79
ENDCHAR
STARTCHAR 00FA
ENCODING 250
SWIDTH 500 0
DWIDTH 12 0
BBX 8 15 2 1
BITMAP
0C
10
00
C1
C1
C1
C1
C1
C1
C1
C1
C3
C7
FF
79
ENDCHAR
STARTCHAR 00FB
ENCODING 251
SWIDTH 500 0
DWIDTH 12 0
BBX 8 15 2 1
BITMAP
1C
66
00
C1
C1
C1
C1
C1
C1
C1
C1
C3
C7
FF
79
ENDCHAR
STARTCHAR 00FC
ENCODING 252
SWIDTH 500 0
DWIDTH 12 0
BBX 8 15 2 1
BITMAP
66
66
00
C1
C1
C1
C1
C1
C1
C1
C1
C3
C7
FF
79
ENDCHAR
STARTCHAR 00FD
ENCODING 253
SWIDTH 500 0
DWIDTH 12 0
BBX 9 18 2 -2
BITMAP
0C00
1800
0000
C180
C300
C300
6300
6600
2600
3600
3400
1C00
1C00
1800
1800
1800
F000
E000
ENDCHAR
STARTCHAR 00FE
ENCODING 254
SWIDTH 500 0
DWIDTH 12 0
BBX 9 20 2 -2
BITMAP
C000
C000
C000
C000
C000
DC00
FF00
E300
C380
C180
C180
C180
C180
C100
E300
FF00
DE00
C000
C000
C000
ENDCHAR
STARTCHAR 00FF
ENCODING 255
SWIDTH 500 0
DWIDTH 12 0
BBX 9 18 2 -2
BITMAP
6300
6300
0000
C180
C300
C300
6300
6600
2600
3600
3400
1C00
1C00
1800
1800
1800
F000
E000
ENDCHAR
STARTCHAR 0100
ENCODING 256
SWIDTH 500 0
DWIDTH 12 0
BBX 10 20 1 1
BITMAP
3F00
0000
0000
0C00
1E00
1E00
1E00
1200
3300
3300
3300
3300
6180
7F80
7F80
6180
E0C0
C0C0
C0C0
C0C0
ENDCHAR
STARTCHAR 0101
ENCODING 257
SWIDTH 500 0
DWIDTH 12 0
BBX 10 15 1 1
BITMAP
3F00
0000
0000
1E00
3F00
6380
6180
0180
0F80
3D80
6180
C180
C380
7FC0
3CC0
ENDCHAR
STARTCHAR 0102
ENCODING 258
SWIDTH 500 0
DWIDTH 12 0
BBX 10 20 1 1
BITMAP
3300
1E00
0000
0C00
1E00
1E00
1E00
1200
3300
3300
3300
3300
6180
7F80
7F80
6180
E0C0
C0C0
C0C0
C0C0
ENDCHAR
STARTCHAR 0103
ENCODING 259
SWIDTH 500 0
DWIDTH 12 0
BBX 10 15 1 1
BITMAP
2100
1E00
0000
1E00
3F00
6380
6180
0180
0F80
3D80
6180
C180
C380
7FC0
3CC0
ENDCHAR
STARTCHAR 0104
ENCODING 260
SWIDTH 500 0
DWIDTH 12 0
BBX 11 21 1 -3
BITMAP
0C00
1E00
1E00
1E00
1200
3300
3300
3300
3300
6180
7F80
7F80
6180
C0C0
C0C0
C0C0
C0C0
0080
0100
0120
01C0
ENDCHAR
STARTCHAR 0105
ENCODING 261
SWIDTH 500 0
DWIDTH 12 0
BBX 10 16 1 -3
BITMAP
1E00
3F00
6380
6180
0180
0F80
3D80
6180
C180
C380
7FC0
3DC0
0180
0100
0300
01C0
ENDCHAR
STARTCHAR 0106
ENCODING 262
SWIDTH 500 0
DWIDTH 12 0
BBX 10 20 1 1
BITMAP
0600
0800
0000
1E00
3F00
7180
6180
60C0
C000
C000
C000
C000
C000
C000
C0C0
60C0
6180
7180
3F00
1E00
ENDCHAR
STARTCHAR 0107
ENCODING 263
SWIDTH 500 0
DWIDTH 12 0
BBX 9 15 1 1
BITMAP
0600
0800
0000
1E00
3F00
7180
6180
4000
C000
C000
4000
6180
7180
3F00
1E00
ENDCHAR
STARTCHAR 0108
ENCODING 264
SWIDTH 500 0
DWIDTH 12 0
BBX 10 20 1 1
BITMAP
1E00
3300
0000
1E00
3F00
7180
6180
60C0
C000
C000
C000
C000
C000
C000
C0C0
60C0
6180
7180
3F00
1E00
ENDCHAR
STARTCHAR 0109
ENCODING 265
SWIDTH 500 0
DWIDTH 12 0
BBX 9 15 1 1
BITMAP
1E00
3300
0000
1E00
3F00
7180
6180
4000
C000
C000
4000
6180
7180
3F00
1E00
ENDCHAR
STARTCHAR 010C
ENCODING 268
SWIDTH 500 0
DWIDTH 12 0
BBX 10 20 1 1
BITMAP
3300
1E00
0000
1E00
3F00
7180
6180
60C0
C000
C000
C000
C000
C000
C000
C0C0
60C0
6180
7180
3F00
1E00
ENDCHAR
STARTCHAR 010D
ENCODING 269
SWIDTH 500 0
DWIDTH 12 0
BBX 9 15 1 1
BITMAP
3300
1E00
0000
1E00
3F00
7180
6180
4000
C000
C000
4000
6180
7180
3F00
1E00
ENDCHAR
STARTCHAR 010E
ENCODING 270
SWIDTH 500 0
DWIDTH 12 0
BBX 9 20 2 1
BITMAP
4400
3800
0000
F800
FE00
C600
C300
C300
C180
C180
C180
C180
C180
C180
C180
C300
C300
C600
FE00
F800
ENDCHAR
STARTCHAR 010F
ENCODING 271
SWIDTH 500 0
DWIDTH 12 0
BBX 11 19 1 1
BITMAP
00E0
00E0
02E0
0240
02C0
0200
0200
3A00
7E00
C600
C600
C200
C200
C200
C600
C600
C600
7E00
3A00
ENDCHAR
STARTCHAR 0111
ENCODING 273
SWIDTH 500 0
DWIDTH 12 0
BBX 11 17 1 1
BITMAP
0180
0180
07E0
0180
0180
3D80
7F80
6380
C180
C180
C180
C180
C180
C180
6380
7F80
3C80
ENDCHAR
STARTCHAR 0112
ENCODING 274
SWIDTH 500 0
DWIDTH 12 0
BBX 9 20 2 1
BITMAP
7E00
0000
0000
FF00
FF00
C000
C000
C000
C000
C000
FE00
FE00
C000
C000
C000
C000
C000
C000
FF80
FF80
ENDCHAR
STARTCHAR 0113
ENCODING 275
SWIDTH 500 0
DWIDTH 12 0
BBX 10 15 1 1
BITMAP
3F00
0000
0000
1E00
3F00
6180
6180
4080
FF80
FFC0
4000
6180
6180
3F00
1E00
ENDCHAR
STARTCHAR 0118
ENCODING 280
SWIDTH 500 0
DWIDTH 12 0
BBX 9 21 2 -3
BITMAP
FF00
FF00
C000
C000
C000
C000
C000
FE00
FE00
C000
C000
C000
C000
C000
C000
FF80
FF80
1000
3000
2000
3C00
ENDCHAR
STARTCHAR 0119
ENCODING 281
SWIDTH 500 0
DWIDTH 12 0
BBX 10 16 1 -3
BITMAP
1E00
3F00
6180
6180
4080
FF80
FFC0
4000
4080
6180
2300
1E00
0800
1000
1200
1C00
ENDCHAR
STARTCHAR 011A
ENCODING 282
SWIDTH 500 0
DWIDTH 12 0
BBX 9 20 2 1
BITMAP
6600
3C00
0000
FF00
FF00
C000
C000
C000
C000
C000
FE00
FE00
C000
C000
C000
C000
C000
C000
FF80
FF80
ENDCHAR
STARTCHAR 011B
ENCODING 283
SWIDTH 500 0
DWIDTH 12 0
BBX 10 15 1 1
BITMAP
3300
1E00
0000
1E00
3F00
6180
6180
4080
FF80
FFC0
4000
6180
6180
3F00
1E00
ENDCHAR
STARTCHAR 011C
ENCODING 284
SWIDTH 500 0
DWIDTH 12 0
BBX 10 20 1 1
BITMAP
1E00
3300
0000
1E00
3F00
7180
6180
60C0
C000
C000
C000
C000
C3C0
C3C0
C0C0
E0C0
61C0
71C0
3FC0
1EC0
ENDCHAR
STARTCHAR 011D
ENCODING 285
SWIDTH 500 0
DWIDTH 12 0
BBX 9 19 1 -3
BITMAP
1C00
3200
0000
1E80
7F80
6180
C180
C080
C080
C180
6380
7F80
1E80
0080
0080
4180
6180
7F00
1E00
ENDCHAR
STARTCHAR 0124
ENCODING 292
SWIDTH 500 0
DWIDTH 12 0
BBX 10 20 1 1
BITMAP
1E00
3300
0000
C0C0
C0C0
C0C0
C0C0
C0C0
C0C0
C0C0
FFC0
FFC0
C0C0
C0C0
C0C0
C0C0
C0C0
C0C0
C0C0
C0C0
ENDCHAR
STARTCHAR 0125
ENCODING 293
SWIDTH 500 0
DWIDTH 12 0
BBX 8 20 2 1
BITMAP
1C
66
00
C0
C0
C0
C0
C0
DE
FF
E3
C1
C1
C1
C1
C1
C1
C1
C1
C1
ENDCHAR
STARTCHAR 0127
ENCODING 295
SWIDTH 500 0
DWIDTH 12 0
BBX 10 17 0 1
BITMAP
3000
3000
FC00
3000
3000
3780
3FC0
38C0
3040
3040
3040
3040
3040
3040
3040
3040
3040
ENDCHAR
STARTCHAR 012A
ENCODING 298
SWIDTH 500 0
DWIDTH 12 0
BBX 6 20 3 1
BITMAP
FC
00
00
30
30
30
30
30
30
30
30
30
30
30
30
30
30
30
30
30
ENDCHAR
STARTCHAR 012B
ENCODING 299
SWIDTH 500 0
DWIDTH 12 0
BBX 6 15 3 1
BITMAP
FC
00
00
30
30
30
30
30
30
30
30
30
30
30
30
ENDCHAR
STARTCHAR 0134
ENCODING 308
SWIDTH 500 0
DWIDTH 12 0
BBX 10 20 1 1
BITMAP
0380
0440
0000
0180
0180
0180
0180
0180
0180
0180
0180
0180
0180
0180
0180
C180
C180
6300
7F00
3E00
ENDCHAR
STARTCHAR 0135
ENCODING 309
SWIDTH 500 0
DWIDTH 12 0
BBX 7 18 2 -2
BITMAP
1C
22
00
0C
0C
0C
0C
0C
0C
0C
0C
0C
0C
0C
0C
0C
F8
F8
ENDCHAR
STARTCHAR 0139
ENCODING 313
SWIDTH 500 0
DWIDTH 12 0
BBX 9 20 2 1
BITMAP
0C00
1000
0000
C000
C000
C000
C000
C000
C000
C000
C000
C000
C000
C000
C000
C000
C000
C000
FF80
FF80
ENDCHAR
STARTCHAR 013A
ENCODING 314
SWIDTH 500 0
DWIDTH 12 0
BBX 3 20 5 1
BITMAP
60
80
00
C0
C0
C0
C0
C0
C0
C0
C0
C0
C0
C0
C0
C0
C0
C0
C0
C0
ENDCHAR
STARTCHAR 013D
ENCODING 317
SWIDTH 500 0
DWIDTH 12 0
BBX 9 19 2 1
BITMAP
0E00
0E00
CE00
C400
CC00
C000
C000
C000
C000
C000
C000
C000
C000
C000
C000
C000
C000
FF80
FF80
ENDCHAR
STARTCHAR 013E
ENCODING 318
SWIDTH 500 0
DWIDTH 12 0
BBX 6 19 5 1
BITMAP
1C
1C
DC
C8
D8
C0
C0
C0
C0
C0
C0
C0
C0
C0
C0
C0
C0
C0
C0
ENDCHAR
STARTCHAR 0141
ENCODING 321
SWIDTH 500 0
DWIDTH 12 0
BBX 10 17 1 1
BITMAP
6000
6000
6000
6000
6000
6C00
7800
7000
6000
E000
E000
6000
6000
6000
6000
7FC0
7FC0
ENDCHAR
STARTCHAR 0142
ENCODING 322
SWIDTH 500 0
DWIDTH 12 0
BBX 6 17 3 1
BITMAP
30
30
30
30
30
34
38
30
30
70
B0
30
30
30
30
30
30
ENDCHAR
STARTCHAR 0143
ENCODING 323
SWIDTH 500 0
DWIDTH 12 0
BBX 10 20 1 1
BITMAP
0600
0800
0000
E0C0
E0C0
F0C0
F0C0
D0C0
D8C0
C8C0
CCC0
CCC0
C4C0
C6C0
C6C0
C2C0
C3C0
C3C0
C1C0
C1C0
ENDCHAR
STARTCHAR 0144
ENCODING 324
SWIDTH 500 0
DWIDTH 12 0
BBX 8 15 2 1
BITMAP
0C
10
00
9E
FF
E3
C1
C1
C1
C1
C1
C1
C1
C1
C1
ENDCHAR
STARTCHAR 0147
ENCODING 327
SWIDTH 500 0
DWIDTH 12 0
BBX 10 20 1 1
BITMAP
3300
1E00
0000
E0C0
E0C0
F0C0
F0C0
D0C0
D8C0
C8C0
CCC0
CCC0
C4C0
C6C0
C6C0
C2C0
C3C0
C3C0
C1C0
C1C0
ENDCHAR
STARTCHAR 0148
ENCODING 328
SWIDTH 500 0
DWIDTH 12 0
BBX 8 15 2 1
BITMAP
66
3C
00
9E
FF
E3
C1
C1
C1
C1
C1
C1
C1
C1
C1
ENDCHAR
STARTCHAR 014B
ENCODING 331
SWIDTH 500 0
DWIDTH 12 0
BBX 8 15 2 -2
BITMAP
9E
FF
E3
C1
C1
C1
C1
C1
C1
C1
C1
C1
01
0F
0F
ENDCHAR
STARTCHAR 014C
ENCODING 332
SWIDTH 500 0
DWIDTH 12 0
BBX 10 20 1 1
BITMAP
3F00
0000
0000
1E00
3F00
7380
6180
6180
C0C0
C0C0
C0C0
C0C0
C0C0
C0C0
C0C0
6180
6180
7380
3F00
1E00
ENDCHAR
STARTCHAR 014D
ENCODING 333
SWIDTH 500 0
DWIDTH 12 0
BBX 10 15 1 1
BITMAP
3F00
0000
0000
1E00
3F00
7180
6180
4080
C0C0
C0C0
4180
6180
7380
3F00
1E00
ENDCHAR
STARTCHAR 0150
ENCODING 336
SWIDTH 500 0
DWIDTH 12 0
BBX 10 20 1 1
BITMAP
0D00
1200
0000
1E00
3F00
7380
6180
6180
C0C0
C0C0
C0C0
C0C0
C0C0
C0C0
C0C0
6180
6180
7380
3F00
1E00
ENDCHAR
STARTCHAR 0151
ENCODING 337
SWIDTH 500 0
DWIDTH 12 0
BBX 10 15 1 1
BITMAP
0D80
1A00
0000
1E00
3F00
7180
6180
4080
C0C0
C0C0
4180
6180
7380
3F00
1E00
ENDCHAR
STARTCHAR 0152
ENCODING 338
SWIDTH 500 0
DWIDTH 12 0
BBX 10 17 1 1
BITMAP
1FC0
3FC0
6600
6600
C600
C600
C600
C7C0
C7C0
C600
C600
C600
C600
4600
6600
3FC0
1FC0
ENDCHAR
STARTCHAR 0153
ENCODING 339
SWIDTH 500 0
DWIDTH 12 0
BBX 10 13 1 0
BITMAP
3380
7F80
CCC0
CCC0
CC40
8FC0
8C00
8C00
CC40
CCC0
CEC0
7FC0
3380
ENDCHAR
STARTCHAR 0154
ENCODING 340
SWIDTH 500 0
DWIDTH 12 0
BBX 9 20 2 1
BITMAP
0C00
1000
0000
FC00
FF00
C300
C180
C180
C180
C300
FF00
FC00
CC00
CC00
C600
C600
C300
C300
C380
C180
ENDCHAR
STARTCHAR 0155
ENCODING 341
SWIDTH 500 0
DWIDTH 12 0
BBX 6 15 4 1
BITMAP
30
40
00
8C
BC
F0
E0
C0
80
80
80
80
80
80
80
ENDCHAR
STARTCHAR 0158
ENCODING 344
SWIDTH 500 0
DWIDTH 12 0
BBX 9 20 2 1
BITMAP
4400
3800
0000
FC00
FF00
C300
C180
C180
C180
C300
FF00
FC00
CC00
CC00
C600
C600
C300
C300
C380
C180
ENDCHAR
STARTCHAR 0159
ENCODING 345
SWIDTH 500 0
DWIDTH 12 0
BBX 7 15 3 1
BITMAP
CC
78
00
C6
DE
F8
F0
E0
C0
C0
C0
C0
C0
C0
C0
ENDCHAR
STARTCHAR 015A
ENCODING 346
SWIDTH 500 0
DWIDTH 12 0
BBX 10 20 1 1
BITMAP
0600
0800
0000
1E00
7F80
6180
6180
6000
6000
3000
1800
0E00
0300
0180
00C0
C0C0
C0C0
61C0
7F80
1F00
ENDCHAR
STARTCHAR 015B
ENCODING 347
SWIDTH 500 0
DWIDTH 12 0
BBX 8 15 2 1
BITMAP
0C
10
00
3C
FE
C3
C0
60
38
06
03
81
C3
FF
3E
ENDCHAR
STARTCHAR 015C
ENCODING 348
SWIDTH 500 0
DWIDTH 12 0
BBX 10 20 1 1
BITMAP
1E00
3300
0000
1E00
7F80
6180
6180
6000
6000
3000
1800
0E00
0300
0180
00C0
C0C0
C0C0
61C0
7F80
1F00
ENDCHAR
STARTCHAR 015D
ENCODING 349
SWIDTH 500 0
DWIDTH 12 0
BBX 8 15 2 1
BITMAP
3C
66
00
3C
FE
C3
C0
60
38
06
03
81
C3
FF
3E
ENDCHAR
STARTCHAR 015E
ENCODING 350
SWIDTH 500 0
DWIDTH 12 0
BBX 10 21 1 -3
BITMAP
1E00
7F80
6180
6180
6000
6000
3000
1C00
0700
0180
00C0
C0C0
C0C0
61C0
7F80
1F00
0000
0C00
0C00
0400
0C00
ENDCHAR
STARTCHAR 015F
ENCODING 351
SWIDTH 500 0
DWIDTH 12 0
BBX 8 16 2 -3
BITMAP
7C
FF
C3
C0
60
1C
03
81
C3
FF
3E
00
18
18
08
18
ENDCHAR
STARTCHAR 0160
ENCODING 352
SWIDTH 500 0
DWIDTH 12 0
BBX 10 20 1 1
BITMAP
3300
1E00
0000
1E00
7F80
6180
6180
6000
6000
3000
1800
0E00
0300
0180
00C0
C0C0
C0C0
61C0
7F80
1F00
ENDCHAR
STARTCHAR 0161
ENCODING 353
SWIDTH 500 0
DWIDTH 12 0
BBX 8 15 2 1
BITMAP
66
3C
00
3C
FE
C3
C0
60
38
06
03
81
C3
FF
3E
ENDCHAR
STARTCHAR 0162
ENCODING 354
SWIDTH 500 0
DWIDTH 12 0
BBX 10 21 1 -3
BITMAP
FFC0
FFC0
0C00
0C00
0C00
0C00
0C00
0C00
0C00
0C00
0C00
0C00
0C00
0C00
0C00
0C00
0000
0C00
0C00
0400
0800
ENDCHAR
STARTCHAR 0163
ENCODING 355
SWIDTH 500 0
DWIDTH 12 0
BBX 7 19 2 -3
BITMAP
18
18
18
FE
FE
18
18
18
18
18
18
18
1E
1E
00
1C
1C
08
18
ENDCHAR
STARTCHAR 0164
ENCODING 356
SWIDTH 500 0
DWIDTH 12 0
BBX 10 20 1 1
BITMAP
3300
1E00
0000
FFC0
FFC0
0C00
0C00
0C00
0C00
0C00
0C00
0C00
0C00
0C00
0C00
0C00
0C00
0C00
0C00
0C00
ENDCHAR
STARTCHAR 0165
ENCODING 357
SWIDTH 500 0
DWIDTH 12 0
BBX 8 19 2 1
BITMAP
03
03
03
01
1B
18
18
FE
FE
18
18
18
18
18
18
18
18
1E
1E
ENDCHAR
STARTCHAR 016A
ENCODING 362
SWIDTH 500 0
DWIDTH 12 0
BBX 10 20 1 1
BITMAP
3F00
0000
0000
C0C0
C0C0
C0C0
C0C0
C0C0
C0C0
C0C0
C0C0
C0C0
C0C0
C0C0
C0C0
C0C0
6180
6180
7F80
1E00
ENDCHAR
STARTCHAR 016B
ENCODING 363
SWIDTH 500 0
DWIDTH 12 0
BBX 8 15 2 1
BITMAP
7E
00
00
C1
C1
C1
C1
C1
C1
C1
C1
C3
C7
FF
79
ENDCHAR
STARTCHAR 016C
ENCODING 364
SWIDTH 500 0
DWIDTH 12 0
BBX 10 20 1 1
BITMAP
3300
1E00
0000
C0C0
C0C0
C0C0
C0C0
C0C0
C0C0
C0C0
C0C0
C0C0
C0C0
C0C0
C0C0
C0C0
6180
6180
7F80
1E00
ENDCHAR
STARTCHAR 016D
ENCODING 365
SWIDTH 500 0
DWIDTH 12 0
BBX 8 15 2 1
BITMAP
42
3C
00
C1
C1
C1
C1
C1
C1
C1
C1
C3
C7
FF
79
ENDCHAR
STARTCHAR 016E
ENCODING 366
SWIDTH 500 0
DWIDTH 12 0
BBX 10 20 1 1
BITMAP
0C00
1200
1C00
C0C0
C0C0
C0C0
C0C0
C0C0
C0C0
C0C0
C0C0
C0C0
C0C0
C0C0
C0C0
C0C0
6180
6180
7F80
1E00
ENDCHAR
STARTCHAR 016F
ENCODING 367
SWIDTH 500 0
DWIDTH 12 0
BBX 8 17 2 1
BITMAP
18
24
38
00
00
C1
C1
C1
C1
C1
C1
C1
C1
C3
C7
FF
79
ENDCHAR
STARTCHAR 0170
ENCODING 368
SWIDTH 500 0
DWIDTH 12 0
BBX 10 20 1 1
BITMAP
0D00
1200
0000
C0C0
C0C0
C0C0
C0C0
C0C0
C0C0
C0C0
C0C0
C0C0
C0C0
C0C0
C0C0
C0C0
6180
6180
7F80
1E00
ENDCHAR
STARTCHAR 0171
ENCODING 369
SWIDTH 500 0
DWIDTH 12 0
BBX 8 15 2 1
BITMAP
1B
24
00
C1
C1
C1
C1
C1
C1
C1
C1
C3
C7
FF
79
ENDCHAR
STARTCHAR 0179
ENCODING 377
SWIDTH 500 0
DWIDTH 12 0
BBX 9 20 2 1
BITMAP
0C00
1000
0000
FF00
FF00
0300
0600
0600
0C00
0C00
1800
1800
3000
3000
6000
6000
C000
C000
FF80
FF80
ENDCHAR
STARTCHAR 017A
ENCODING 378
SWIDTH 500 0
DWIDTH 12 0
BBX 8 15 2 1
BITMAP
0C
10
00
FF
FF
06
06
0C
18
30
30
60
C0
FF
FF
ENDCHAR
STARTCHAR 017B
ENCODING 379
SWIDTH 500 0
DWIDTH 12 0
BBX 9 20 2 1
BITMAP
1800
1800
0000
FF00
FF00
0300
0600
0600
0C00
0C00
1800
1800
3000
3000
6000
6000
C000
C000
FF80
FF80
ENDCHAR
STARTCHAR 017C
ENCODING 380
SWIDTH 500 0
DWIDTH 12 0
BBX 8 15 2 1
BITMAP
18
18
00
FF
FF
06
06
0C
18
30
30
60
C0
FF
FF
ENDCHAR
STARTCHAR 017D
ENCODING 381
SWIDTH 500 0
DWIDTH 12 0
BBX 9 20 2 1
BITMAP
6600
3C00
0000
FF00
FF00
0300
0600
0600
0C00
0C00
1800
1800
3000
3000
6000
6000
C000
C000
FF80
FF80
ENDCHAR
STARTCHAR 017E
ENCODING 382
SWIDTH 500 0
DWIDTH 12 0
BBX 8 15 2 1
BITMAP
66
3C
00
FF
FF
06
06
0C
18
30
30
60
C0
FF
FF
ENDCHAR
STARTCHAR 0193
ENCODING 403
SWIDTH 500 0
DWIDTH 12 0
BBX 11 19 1 1
BITMAP
00E0
01E0
1F80
3F80
6380
6180
C180
C000
C000
C000
C000
C780
C780
C180
C180
6180
6380
3E80
1C80
ENDCHAR
STARTCHAR 01C2
ENCODING 450
SWIDTH 500 0
DWIDTH 12 0
BBX 8 20 2 -2
BITMAP
18
18
18
18
18
FF
FF
18
18
18
18
18
18
FF
FF
18
18
18
18
18
ENDCHAR
STARTCHAR 01CD
ENCODING 461
SWIDTH 1000 0
DWIDTH 24 0
BBX 16 20 4 1
BITMAP
0660
03C0
0000
03C0
03C0
03C0
0660
0660
0E70
0C30
0C30
1C38
1818
1FF8
300C
300C
700E
6006
6006
E007
ENDCHAR
STARTCHAR 01CE
ENCODING 462
SWIDTH 1000 0
DWIDTH 24 0
BBX 12 15 6 1
BITMAP
1980
0F00
0000
1F00
3FC0
70C0
6060
0060
0FE0
3C60
6060
C060
E1E0
7FF0
7E70
ENDCHAR
STARTCHAR 01D0
ENCODING 464
SWIDTH 1000 0
DWIDTH 24 0
BBX 6 15 9 1
BITMAP
CC
78
00
30
30
30
30
30
30
30
30
30
30
30
30
ENDCHAR
STARTCHAR 01D1
ENCODING 465
SWIDTH 1000 0
DWIDTH 24 0
BBX 16 20 4 1
BITMAP
0660
03C0
0000
07E0
1FF8
3C3C
300C
700E
6006
E007
E007
C003
C007
E007
6006
700E
300C
3C3C
1FF8
07E0
ENDCHAR
STARTCHAR 01D2
ENCODING 466
SWIDTH 1000 0
DWIDTH 24 0
BBX 12 15 6 1
BITMAP
1980
0F00
0000
0F00
3FC0
70E0
6070
C030
C030
C030
C030
E070
70E0
7FC0
1F80
ENDCHAR
STARTCHAR 01D4
ENCODING 468
SWIDTH 1000 0
DWIDTH 24 0
BBX 10 15 7 1
BITMAP
3300
1E00
0000
C0C0
C0C0
C0C0
C0C0
C0C0
C0C0
C0C0
C0C0
C1C0
E3C0
7FC0
3E40
ENDCHAR
STARTCHAR 01D6
ENCODING 470
SWIDTH 1000 0
DWIDTH 24 0
BBX 10 17 7 1
BITMAP
7F80
0000
6180
0000
0000
C0C0
C0C0
C0C0
C0C0
C0C0
C0C0
C0C0
C0C0
C1C0
E3C0
7FC0
3E40
ENDCHAR
STARTCHAR 01D8
ENCODING 472
SWIDTH 1000 0
DWIDTH 24 0
BBX 10 17 7 1
BITMAP
0700
0C00
6180
0000
0000
C0C0
C0C0
C0C0
C0C0
C0C0
C0C0
C0C0
C0C0
C1C0
E3C0
7FC0
3E40
ENDCHAR
STARTCHAR 01DA
ENCODING 474
SWIDTH 1000 0
DWIDTH 24 0
BBX 10 17 7 1
BITMAP
1300
0E00
6180
0000
0000
C0C0
C0C0
C0C0
C0C0
C0C0
C0C0
C0C0
C0C0
C1C0
E3C0
7FC0
3E40
ENDCHAR
STARTCHAR 01DC
ENCODING 476
SWIDTH 1000 0
DWIDTH 24 0
BBX 10 17 7 1
BITMAP
3800
0C00
6180
0000
0000
C0C0
C0C0
C0C0
C0C0
C0C0
C0C0
C0C0
C0C0
C1C0
E3C0
7FC0
3E40
ENDCHAR
STARTCHAR 01F8
ENCODING 504
SWIDTH 500 0
DWIDTH 12 0
BBX 10 20 1 1
BITMAP
1800
0400
0000
E0C0
E0C0
F0C0
F0C0
D0C0
D8C0
C8C0
CCC0
CCC0
C4C0
C6C0
C6C0
C2C0
C3C0
C3C0
C1C0
C1C0
ENDCHAR
STARTCHAR 01F9
ENCODING 505
SWIDTH 500 0
DWIDTH 12 0
BBX 8 15 2 1
BITMAP
30
18
00
9E
FF
E3
C1
C1
C1
C1
C1
C1
C1
C1
C1
ENDCHAR
STARTCHAR 01FD
ENCODING 509
SWIDTH 500 0
DWIDTH 12 0
BBX 10 15 1 1
BITMAP
0600
0C00
0000
7B80
7F80
CCC0
CCC0
0CC0
1FC0
6C00
CC00
CC40
CCC0
FFC0
7B80
ENDCHAR
STARTCHAR 0250
ENCODING 592
SWIDTH 500 0
DWIDTH 12 0
BBX 10 12 1 1
BITMAP
EF00
FF80
71C0
60C0
6180
6F00
7C00
6000
6180
6180
3F00
1E00
ENDCHAR
STARTCHAR 0251
ENCODING 593
SWIDTH 500 0
DWIDTH 12 0
BBX 10 12 1 1
BITMAP
1E80
3F80
7380
6180
C180
C180
C180
C180
6180
6380
3FC0
1EC0
ENDCHAR
STARTCHAR 0252
ENCODING 594
SWIDTH 500 0
DWIDTH 12 0
BBX 10 12 1 1
BITMAP
DE00
FF00
7180
6180
60C0
60C0
60C0
60C0
6180
6380
7F00
5E00
ENDCHAR
STARTCHAR 0253
ENCODING 595
SWIDTH 500 0
DWIDTH 12 0
BBX 9 17 2 1
BITMAP
3C00
7E00
C300
C300
8000
9C00
BF00
E300
C100
C180
8180
8180
C180
C300
E300
FE00
BC00
ENDCHAR
STARTCHAR 0254
ENCODING 596
SWIDTH 500 0
DWIDTH 12 0
BBX 9 12 2 1
BITMAP
3C00
7E00
C700
C300
0100
0180
0180
0100
C300
C700
7E00
3C00
ENDCHAR
STARTCHAR 0255
ENCODING 597
SWIDTH 500 0
DWIDTH 12 0
BBX 9 13 1 0
BITMAP
1E00
3F00
7180
6180
6000
C000
C700
CF80
7C80
7980
7F80
7E00
C000
ENDCHAR
STARTCHAR 0256
ENCODING 598
SWIDTH 500 0
DWIDTH 12 0
BBX 11 21 1 -3
BITMAP
0100
0100
0100
0100
0100
3D00
7F00
6700
C300
C300
C100
C100
C300
C300
E700
7F00
3D00
0100
0100
01E0
01C0
ENDCHAR
STARTCHAR 0257
ENCODING 599
SWIDTH 500 0
DWIDTH 12 0
BBX 11 17 1 1
BITMAP
01E0
01E0
0100
0100
0100
3D00
7F00
6700
C300
C300
C100
C100
C300
C300
E700
7F00
3D00
ENDCHAR
STARTCHAR 0258
ENCODING 600
SWIDTH 500 0
DWIDTH 12 0
BBX 10 12 1 1
BITMAP
1E00
3F00
6380
6180
4080
FFC0
FFC0
0080
4180
6180
3F00
1E00
ENDCHAR
STARTCHAR 0259
ENCODING 601
SWIDTH 500 0
DWIDTH 12 0
BBX 10 12 1 1
BITMAP
1E00
3F00
6380
4180
0080
00C0
FFC0
7F80
4080
6180
3F00
1E00
ENDCHAR
STARTCHAR 025A
ENCODING 602
SWIDTH 500 0
DWIDTH 12 0
BBX 11 12 1 1
BITMAP
3800
7C00
C600
C700
0780
0EE0
3AE0
E200
C600
C600
7C00
3800
ENDCHAR
STARTCHAR 025C
ENCODING 604
SWIDTH 500 0
DWIDTH 12 0
BBX 9 12 2 1
BITMAP
3E00
7F00
C300
0300
0300
1E00
1E00
0300
0180
C380
FF00
3E00
ENDCHAR
STARTCHAR 025E
ENCODING 606
SWIDTH 500 0
DWIDTH 12 0
BBX 10 12 1 1
BITMAP
1F00
3F80
71C0
60C0
4080
CF80
CF80
4080
60C0
71C0
3F80
1F00
ENDCHAR
STARTCHAR 025F
ENCODING 607
SWIDTH 500 0
DWIDTH 12 0
BBX 8 15 2 -2
BITMAP
18
18
18
18
18
18
18
18
FF
FF
18
18
18
F8
F0
ENDCHAR
STARTCHAR 0260
ENCODING 608
SWIDTH 500 0
DWIDTH 12 0
BBX 11 21 1 -3
BITMAP
01E0
01E0
0100
0100
0100
3D00
7F00
E300
C300
C100
C100
C300
C300
7F00
3D00
0100
0100
C300
6300
7E00
3C00
ENDCHAR
STARTCHAR 0261
ENCODING 609
SWIDTH 500 0
DWIDTH 12 0
BBX 9 16 1 -3
BITMAP
1E80
7F80
6180
C180
C080
C080
C180
6380
7F80
1E80
0080
0080
4180
6180
7F00
1E00
ENDCHAR
STARTCHAR 0264
ENCODING 612
SWIDTH 500 0
DWIDTH 12 0
BBX 10 12 1 1
BITMAP
E1C0
F3C0
3300
1E00
0C00
0C00
1C00
1E00
1200
1200
1E00
0C00
ENDCHAR
STARTCHAR 0265
ENCODING 613
SWIDTH 500 0
DWIDTH 12 0
BBX 8 15 2 -2
BITMAP
83
83
83
83
83
83
83
83
83
C7
FF
7B
03
03
03
ENDCHAR
STARTCHAR 0266
ENCODING 614
SWIDTH 500 0
DWIDTH 12 0
BBX 8 17 2 1
BITMAP
3C
7F
C3
C0
C0
DE
FF
E3
C1
C1
C1
C1
C1
C1
C1
C1
C1
ENDCHAR
STARTCHAR 0267
ENCODING 615
SWIDTH 500 0
DWIDTH 12 0
BBX 8 20 2 -2
BITMAP
3C
7F
C3
C0
C0
DE
FF
E3
C1
C1
C1
C1
C1
C1
C1
C1
C1
01
0F
0F
ENDCHAR
STARTCHAR 0268
ENCODING 616
SWIDTH 500 0
DWIDTH 12 0
BBX 6 17 3 1
BITMAP
30
30
00
00
00
30
30
30
30
FC
30
30
30
30
30
30
30
ENDCHAR
STARTCHAR 026C
ENCODING 620
SWIDTH 500 0
DWIDTH 12 0
BBX 7 17 2 1
BITMAP
18
18
18
18
18
F8
98
98
7E
18
18
18
18
18
18
18
18
ENDCHAR
STARTCHAR 026D
ENCODING 621
SWIDTH 500 0
DWIDTH 12 0
BBX 5 20 5 -2
BITMAP
C0
C0
C0
C0
C0
C0
C0
C0
C0
C0
C0
C0
C0
C0
C0
C0
C0
C0
F8
78
ENDCHAR
STARTCHAR 026E
ENCODING 622
SWIDTH 500 0
DWIDTH 12 0
BBX 9 20 2 -2
BITMAP
8000
8000
8000
8000
8000
FF00
FF80
8300
8E00
9C00
BE00
BF00
8380
8180
8180
8180
8180
0180
7F00
3E00
ENDCHAR
STARTCHAR 026F
ENCODING 623
SWIDTH 500 0
DWIDTH 12 0
BBX 10 12 1 1
BITMAP
CCC0
CCC0
CCC0
CCC0
CCC0
CCC0
CCC0
CCC0
CCC0
CCC0
FFC0
77C0
ENDCHAR
STARTCHAR 0270
ENCODING 624
SWIDTH 500 0
DWIDTH 12 0
BBX 10 15 1 -2
BITMAP
CCC0
CCC0
CCC0
CCC0
CCC0
CCC0
CCC0
CCC0
CCC0
CCC0
FFC0
77C0
00C0
00C0
00C0
ENDCHAR
STARTCHAR 0271
ENCODING 625
SWIDTH 500 0
DWIDTH 12 0
BBX 10 15 1 -2
BITMAP
FB80
FFC0
CCC0
CCC0
CCC0
CCC0
CCC0
CCC0
CCC0
CCC0
CCC0
CCC0
00C0
03C0
0380
ENDCHAR
STARTCHAR 0272
ENCODING 626
SWIDTH 500 0
DWIDTH 12 0
BBX 11 15 0 -2
BITMAP
1380
1FC0
1C60
1860
1860
1060
1060
1060
1060
1060
1060
1060
1000
F000
F000
ENDCHAR
STARTCHAR 0273
ENCODING 627
SWIDTH 500 0
DWIDTH 12 0
BBX 11 15 1 -2
BITMAP
DE00
FF00
E300
C100
C100
C100
C100
C100
C100
C100
C100
C100
0100
01E0
01E0
ENDCHAR
STARTCHAR 0275
ENCODING 629
SWIDTH 500 0
DWIDTH 12 0
BBX 10 12 1 1
BITMAP
1E00
3F00
6180
6180
4080
FFC0
FFC0
4080
6180
6180
3F00
1E00
ENDCHAR
STARTCHAR 0279
ENCODING 633
SWIDTH 500 0
DWIDTH 12 0
BBX 7 12 2 1
BITMAP
06
06
06
06
06
06
06
0E
1E
3E
F6
C6
ENDCHAR
STARTCHAR 027A
ENCODING 634
SWIDTH 500 0
DWIDTH 12 0
BBX 7 17 2 1
BITMAP
06
06
06
06
06
06
06
06
06
06
06
06
06
0E
3E
F6
C6
ENDCHAR
STARTCHAR 027B
ENCODING 635
SWIDTH 500 0
DWIDTH 12 0
BBX 9 15 2 -2
BITMAP
0600
0600
0600
0600
0600
0600
0600
0E00
1E00
7600
E600
8600
0600
0780
0380
ENDCHAR
STARTCHAR 027D
ENCODING 637
SWIDTH 500 0
DWIDTH 12 0
BBX 6 15 4 -2
BITMAP
8C
BC
F0
C0
80
80
80
80
80
80
80
80
80
F8
F8
ENDCHAR
STARTCHAR 027E
ENCODING 638
SWIDTH 500 0
DWIDTH 12 0
BBX 5 12 4 1
BITMAP
78
F8
C0
C0
C0
C0
C0
C0
C0
C0
C0
C0
ENDCHAR
STARTCHAR 0281
ENCODING 641
SWIDTH 500 0
DWIDTH 12 0
BBX 9 12 2 1
BITMAP
C180
C380
C300
C600
C600
FC00
FF00
C300
C100
C300
FF00
FE00
ENDCHAR
STARTCHAR 0282
ENCODING 642
SWIDTH 500 0
DWIDTH 12 0
BBX 8 16 2 -3
BITMAP
3C
FE
C3
C0
60
38
06
03
C1
C3
FF
BE
80
80
E0
E0
ENDCHAR
STARTCHAR 0283
ENCODING 643
SWIDTH 500 0
DWIDTH 12 0
BBX 8 20 2 -2
BITMAP
0F
1F
18
18
18
18
18
18
18
18
18
18
18
18
18
18
18
18
F8
F0
ENDCHAR
STARTCHAR 0284
ENCODING 644
SWIDTH 500 0
DWIDTH 12 0
BBX 8 20 2 -2
BITMAP
0F
1F
18
18
18
18
18
18
18
18
18
18
18
FF
FF
18
18
18
F8
F0
ENDCHAR
STARTCHAR 0288
ENCODING 648
SWIDTH 500 0
DWIDTH 12 0
BBX 7 18 2 -2
BITMAP
18
18
18
FE
FE
18
18
18
18
18
18
18
18
18
18
18
1E
1E
ENDCHAR
STARTCHAR 0289
ENCODING 649
SWIDTH 500 0
DWIDTH 12 0
BBX 10 12 1 1
BITMAP
6080
6080
6080
6080
FFC0
6080
6080
6080
6180
6380
7F80
3C80
ENDCHAR
STARTCHAR 028A
ENCODING 650
SWIDTH 500 0
DWIDTH 12 0
BBX 10 12 1 1
BITMAP
F3C0
F3C0
3300
6180
6180
C0C0
C0C0
C0C0
E080
6180
7F80
3E00
ENDCHAR
STARTCHAR 028B
ENCODING 651
SWIDTH 500 0
DWIDTH 12 0
BBX 9 12 2 2
BITMAP
C300
C300
C300
C100
C180
C180
C100
C300
C300
C600
FE00
7800
ENDCHAR
STARTCHAR 028C
ENCODING 652
SWIDTH 500 0
DWIDTH 12 0
BBX 10 12 1 1
BITMAP
0C00
0C00
1E00
1E00
1200
3300
3300
3300
6180
6180
6180
C0C0
ENDCHAR
STARTCHAR 028D
ENCODING 653
SWIDTH 500 0
DWIDTH 12 0
BBX 10 12 1 1
BITMAP
6180
7380
7380
5280
5280
5280
D2C0
DEC0
DEC0
CCC0
CCC0
8C40
ENDCHAR
STARTCHAR 028E
ENCODING 654
SWIDTH 500 0
DWIDTH 12 0
BBX 9 17 1 1
BITMAP
0380
0780
0600
0600
0C00
0C00
0800
1C00
1C00
1600
3600
3200
3300
6300
6180
6180
C180
ENDCHAR
STARTCHAR 0290
ENCODING 656
SWIDTH 500 0
DWIDTH 12 0
BBX 10 16 2 -3
BITMAP
FF00
FF00
0600
0E00
0C00
1800
3000
7000
6000
C000
FF00
FF00
0300
0300
03C0
01C0
ENDCHAR
STARTCHAR 0291
ENCODING 657
SWIDTH 500 0
DWIDTH 12 0
BBX 9 14 2 -1
BITMAP
FF00
FF00
0600
0600
0C00
1800
3000
3300
6780
CC80
FF80
FF00
3000
2000
ENDCHAR
STARTCHAR 0292
ENCODING 658
SWIDTH 500 0
DWIDTH 12 0
BBX 10 15 1 -2
BITMAP
7F80
7F80
0300
0E00
1C00
3E00
3F80
0380
01C0
00C0
00C0
C1C0
6180
7F80
1E00
ENDCHAR
STARTCHAR 0294
ENCODING 660
SWIDTH 500 0
DWIDTH 12 0
BBX 10 17 1 1
BITMAP
3E00
7F00
E380
0180
0180
0080
00C0
0180
0180
0180
0700
1E00
1800
1800
1800
1800
1800
ENDCHAR
STARTCHAR 0295
ENCODING 661
SWIDTH 500 0
DWIDTH 12 0
BBX 10 17 1 1
BITMAP
1F00
3F80
71C0
6000
6000
C000
C000
4000
6000
6000
3800
1E00
0600
0600
0600
0600
0600
ENDCHAR
STARTCHAR 0298
ENCODING 664
SWIDTH 500 0
DWIDTH 12 0
BBX 10 12 1 1
BITMAP
1E00
6300
4080
C080
CCC0
8C40
8C40
CCC0
4080
4080
2100
1E00
ENDCHAR
STARTCHAR 029D
ENCODING 669
SWIDTH 500 0
DWIDTH 12 0
BBX 9 20 1 -2
BITMAP
0600
0600
0000
0000
0000
0600
0600
0600
0600
0600
0600
0600
0600
0600
0600
7E00
FE00
CF00
FF80
7880
ENDCHAR
STARTCHAR 02A1
ENCODING 673
SWIDTH 500 0
DWIDTH 12 0
BBX 9 17 1 1
BITMAP
3E00
7F00
E380
0180
0180
0080
0080
0180
0180
0380
0700
1E00
1800
7E00
1800
1800
1800
ENDCHAR
STARTCHAR 02A2
ENCODING 674
SWIDTH 500 0
DWIDTH 12 0
BBX 10 17 1 1
BITMAP
1F00
3F80
71C0
6000
6000
C000
4000
6000
6000
7000
3800
0E00
0600
1F80
0600
0600
0600
ENDCHAR
STARTCHAR 02C7
ENCODING 711
SWIDTH 500 0
DWIDTH 12 0
BBX 8 3 2 15
BITMAP
C3
7E
3C
ENDCHAR
STARTCHAR 02C8
ENCODING 712
SWIDTH 500 0
DWIDTH 12 0
BBX 2 3 5 18
BITMAP
C0
C0
C0
ENDCHAR
STARTCHAR 02CC
ENCODING 716
SWIDTH 500 0
DWIDTH 12 0
BBX 2 3 5 -3
BITMAP
C0
C0
C0
ENDCHAR
STARTCHAR 02D0
ENCODING 720
SWIDTH 500 0
DWIDTH 12 0
BBX 4 12 4 1
BITMAP
F0
60
60
40
00
00
00
00
40
60
60
F0
ENDCHAR
STARTCHAR 02D1
ENCODING 721
SWIDTH 500 0
DWIDTH 12 0
BBX 4 3 4 9
BITMAP
F0
60
60
ENDCHAR
STARTCHAR 02D8
ENCODING 728
SWIDTH 500 0
DWIDTH 12 0
BBX 8 3 2 15
BITMAP
C3
66
3C
ENDCHAR
STARTCHAR 02D9
ENCODING 729
SWIDTH 500 0
DWIDTH 12 0
BBX 2 3 5 15
BITMAP
C0
C0
C0
ENDCHAR
STARTCHAR 02DB
ENCODING 731
SWIDTH 500 0
DWIDTH 12 0
BBX 6 5 3 -1
BITMAP
30
60
C0
C4
78
ENDCHAR
STARTCHAR 02DC
ENCODING 732
SWIDTH 500 0
DWIDTH 12 0
BBX 8 2 2 16
BITMAP
FF
FF
ENDCHAR
STARTCHAR 02DD
ENCODING 733
SWIDTH 500 0
DWIDTH 12 0
BBX 8 3 2 15
BITMAP
33
66
CC
ENDCHAR
STARTCHAR 02DE
ENCODING 734
SWIDTH 500 0
DWIDTH 12 0
BBX 7 5 2 6
BITMAP
20
E0
22
12
0C
ENDCHAR
STARTCHAR 02E5
ENCODING 741
SWIDTH 500 0
DWIDTH 12 0
BBX 7 24 2 -3
BITMAP
FE
FE
06
06
06
06
06
06
06
06
06
06
06
06
06
06
06
06
06
06
06
06
06
06
ENDCHAR
STARTCHAR 02E6
ENCODING 742
SWIDTH 500 0
DWIDTH 12 0
BBX 7 24 2 -3
BITMAP
06
06
06
06
06
FE
FE
06
06
06
06
06
06
06
06
06
06
06
06
06
06
06
06
06
ENDCHAR
STARTCHAR 02E7
ENCODING 743
SWIDTH 500 0
DWIDTH 12 0
BBX 7 24 2 -3
BITMAP
06
06
06
06
06
06
06
06
06
06
06
FE
FE
06
06
06
06
06
06
06
06
06
06
06
ENDCHAR
STARTCHAR 02E8
ENCODING 744
SWIDTH 500 0
DWIDTH 12 0
BBX 7 24 2 -3
BITMAP
06
06
06
06
06
06
06
06
06
06
06
06
06
06
06
06
06
FE
FE
06
06
06
06
06
ENDCHAR
STARTCHAR 02E9
ENCODING 745
SWIDTH 500 0
DWIDTH 12 0
BBX 7 24 2 -3
BITMAP
06
06
06
06
06
06
06
06
06
06
06
06
06
06
06
06
06
06
06
06
06
06
FE
FE
ENDCHAR
STARTCHAR 0300
ENCODING 768
SWIDTH 500 0
DWIDTH 12 0
BBX 3 2 4 19
BITMAP
C0
20
ENDCHAR
STARTCHAR 0301
ENCODING 769
SWIDTH 500 0
DWIDTH 12 0
BBX 3 2 5 19
BITMAP
60
80
ENDCHAR
STARTCHAR 0302
ENCODING 770
SWIDTH 500 0
DWIDTH 12 0
BBX 6 2 3 19
BITMAP
38
CC
ENDCHAR
STARTCHAR 0303
ENCODING 771
SWIDTH 500 0
DWIDTH 12 0
BBX 6 2 3 19
BITMAP
60
9C
ENDCHAR
STARTCHAR 0304
ENCODING 772
SWIDTH 500 0
DWIDTH 12 0
BBX 6 1 3 20
BITMAP
FC
ENDCHAR
STARTCHAR 0306
ENCODING 774
SWIDTH 500 0
DWIDTH 12 0
BBX 6 2 3 19
BITMAP
CC
78
ENDCHAR
STARTCHAR 0308
ENCODING 776
SWIDTH 500 0
DWIDTH 12 0
BBX 6 2 3 19
BITMAP
CC
CC
ENDCHAR
STARTCHAR 030B
ENCODING 779
SWIDTH 500 0
DWIDTH 12 0
BBX 5 2 4 19
BITMAP
68
90
ENDCHAR
STARTCHAR 030C
ENCODING 780
SWIDTH 500 0
DWIDTH 12 0
BBX 6 2 3 19
BITMAP
CC
78
ENDCHAR
STARTCHAR 030F
ENCODING 783
SWIDTH 500 0
DWIDTH 12 0
BBX 5 2 3 19
BITMAP
B0
48
ENDCHAR
STARTCHAR 0318
ENCODING 792
SWIDTH 500 0
DWIDTH 12 0
BBX 3 3 4 -3
BITMAP
20
E0
20
ENDCHAR
STARTCHAR 0319
ENCODING 793
SWIDTH 500 0
DWIDTH 12 0
BBX 3 3 5 -3
BITMAP
80
E0
80
ENDCHAR
STARTCHAR 031A
ENCODING 794
SWIDTH 500 0
DWIDTH 12 0
BBX 4 3 7 18
BITMAP
F0
10
10
ENDCHAR
STARTCHAR 031C
ENCODING 796
SWIDTH 500 0
DWIDTH 12 0
BBX 3 3 4 -3
BITMAP
60
C0
20
ENDCHAR
STARTCHAR 031D
ENCODING 797
SWIDTH 500 0
DWIDTH 12 0
BBX 4 2 4 -2
BITMAP
60
F0
ENDCHAR
STARTCHAR 031E
ENCODING 798
SWIDTH 500 0
DWIDTH 12 0
BBX 4 3 4 -3
BITMAP
F0
60
60
ENDCHAR
STARTCHAR 031F
ENCODING 799
SWIDTH 500 0
DWIDTH 12 0
BBX 6 3 3 -3
BITMAP
30
FC
30
ENDCHAR
STARTCHAR 0320
ENCODING 800
SWIDTH 500 0
DWIDTH 12 0
BBX 6 1 3 -2
BITMAP
FC
ENDCHAR
STARTCHAR 0324
ENCODING 804
SWIDTH 500 0
DWIDTH 12 0
BBX 6 2 3 -2
BITMAP
CC
CC
ENDCHAR
STARTCHAR 0325
ENCODING 805
SWIDTH 500 0
DWIDTH 12 0
BBX 4 4 4 -3
BITMAP
60
90
90
60
ENDCHAR
STARTCHAR 0329
ENCODING 809
SWIDTH 500 0
DWIDTH 12 0
BBX 2 3 5 -3
BITMAP
C0
C0
C0
ENDCHAR
STARTCHAR 032A
ENCODING 810
SWIDTH 500 0
DWIDTH 12 0
BBX 6 3 3 -3
BITMAP
FC
84
84
ENDCHAR
STARTCHAR 032C
ENCODING 812
SWIDTH 500 0
DWIDTH 12 0
BBX 6 2 3 -2
BITMAP
CC
78
ENDCHAR
STARTCHAR 032F
ENCODING 815
SWIDTH 500 0
DWIDTH 12 0
BBX 6 2 3 -2
BITMAP
78
CC
ENDCHAR
STARTCHAR 0330
ENCODING 816
SWIDTH 500 0
DWIDTH 12 0
BBX 6 2 3 -2
BITMAP
E4
9C
ENDCHAR
STARTCHAR 0334
ENCODING 820
SWIDTH 500 0
DWIDTH 12 0
BBX 6 2 3 8
BITMAP
F4
18
ENDCHAR
STARTCHAR 0339
ENCODING 825
SWIDTH 500 0
DWIDTH 12 0
BBX 3 3 5 -3
BITMAP
C0
60
80
ENDCHAR
STARTCHAR 033A
ENCODING 826
SWIDTH 500 0
DWIDTH 12 0
BBX 6 2 3 -2
BITMAP
84
FC
ENDCHAR
STARTCHAR 033B
ENCODING 827
SWIDTH 500 0
DWIDTH 12 0
BBX 6 2 3 -2
BITMAP
FC
FC
ENDCHAR
STARTCHAR 033C
ENCODING 828
SWIDTH 500 0
DWIDTH 12 0
BBX 8 2 2 -2
BITMAP
66
99
ENDCHAR
STARTCHAR 033D
ENCODING 829
SWIDTH 500 0
DWIDTH 12 0
BBX 5 2 4 19
BITMAP
F0
F8
ENDCHAR
STARTCHAR 0361
ENCODING 865
SWIDTH 500 0
DWIDTH 12 0
BBX 10 3 1 18
BITMAP
3F00
E1C0
8040
ENDCHAR
STARTCHAR 0391
ENCODING 913
SWIDTH 1000 0
DWIDTH 24 0
BBX 16 17 4 1
BITMAP
03C0
03C0
03C0
0660
0660
0E70
0C30
0C30
1C38
1818
1FF8
3FFC
300C
700E
6006
6006
E007
ENDCHAR
STARTCHAR 0392
ENCODING 914
SWIDTH 1000 0
DWIDTH 24 0
BBX 13 17 6 1
BITMAP
FFC0
FFE0
C070
C038
C038
C030
C070
FFC0
FFE0
C030
C018
C018
C018
C018
C038
FFF0
FFC0
ENDCHAR
STARTCHAR 0393
ENCODING 915
SWIDTH 1000 0
DWIDTH 24 0
BBX 13 17 6 1
BITMAP
FFF8
FFF8
C000
C000
C000
C000
C000
C000
C000
C000
C000
C000
C000
C000
C000
C000
C000
ENDCHAR
STARTCHAR 0394
ENCODING 916
SWIDTH 1000 0
DWIDTH 24 0
BBX 16 17 4 1
BITMAP
03C0
03C0
03C0
0660
0660
0E70
0C30
1C38
1818
1818
380C
300C
700E
6006
6006
FFFF
FFFF
ENDCHAR
STARTCHAR 0395
ENCODING 917
SWIDTH 1000 0
DWIDTH 24 0
BBX 13 17 6 1
BITMAP
FFF0
FFF0
C000
C000
C000
C000
C000
FFE0
FFE0
C000
C000
C000
C000
C000
C000
FFF8
FFF8
ENDCHAR
STARTCHAR 0396
ENCODING 918
SWIDTH 1000 0
DWIDTH 24 0
BBX 14 17 5 1
BITMAP
7FF8
7FF8
0038
0070
0060
00C0
01C0
0380
0700
0600
0C00
1800
3800
7000
E000
FFFC
FFFC
ENDCHAR
STARTCHAR 0397
ENCODING 919
SWIDTH 1000 0
DWIDTH 24 0
BBX 14 17 5 1
BITMAP
C00C
C00C
C00C
C00C
C00C
C00C
C00C
FFFC
FFFC
C00C
C00C
C00C
C00C
C00C
C00C
C00C
C00C
ENDCHAR
STARTCHAR 0398
ENCODING 920
SWIDTH 1000 0
DWIDTH 24 0
BBX 16 18 4 1
BITMAP
07E0
0FF0
3C3C
300C
700E
6006
E007
E007
CFF3
CFF7
E007
E007
6006
700E
300C
3C3C
0FF8
07E0
ENDCHAR
STARTCHAR 0399
ENCODING 921
SWIDTH 1000 0
DWIDTH 24 0
BBX 2 17 11 1
BITMAP
C0
C0
C0
C0
C0
C0
C0
C0
C0
C0
C0
C0
C0
C0
C0
C0
C0
ENDCHAR
STARTCHAR 039A
ENCODING 922
SWIDTH 1000 0
DWIDTH 24 0
BBX 15 17 5 1
BITMAP
E038
E070
E0E0
E1C0
E380
E700
EE00
FF00
FB00
F180
E1C0
E0E0
E070
E030
E038
E01C
E00E
ENDCHAR
STARTCHAR 039B
ENCODING 923
SWIDTH 1000 0
DWIDTH 24 0
BBX 16 17 4 1
BITMAP
0180
03C0
03C0
07E0
0660
0660
0C30
0C30
1C38
1818
1818
381C
300C
300C
6006
6006
E007
ENDCHAR
STARTCHAR 039C
ENCODING 924
SWIDTH 1000 0
DWIDTH 24 0
BBX 18 17 3 1
BITMAP
F003C0
F003C0
F806C0
F806C0
F806C0
EC0CC0
EC0CC0
EC0CC0
E618C0
E618C0
E238C0
E330C0
E330C0
E1E0C0
E1E0C0
E1E0C0
E0C0C0
ENDCHAR
STARTCHAR 039D
ENCODING 925
SWIDTH 1000 0
DWIDTH 24 0
BBX 14 17 5 1
BITMAP
F00C
F00C
D80C
D80C
CC0C
CE0C
C60C
C30C
C30C
C18C
C1CC
C0CC
C06C
C06C
C03C
C03C
C01C
ENDCHAR
STARTCHAR 039E
ENCODING 926
SWIDTH 1000 0
DWIDTH 24 0
BBX 14 17 5 1
BITMAP
7FF8
7FF8
0000
0000
0000
0000
0000
7FF8
7FF8
0000
0000
0000
0000
0000
0000
FFFC
FFFC
ENDCHAR
STARTCHAR 039F
ENCODING 927
SWIDTH 1000 0
DWIDTH 24 0
BBX 16 18 4 1
BITMAP
07E0
0FF0
3C3C
300C
700E
6006
E007
E007
C003
C007
E007
E007
6006
700E
300C
3C3C
0FF8
07E0
ENDCHAR
STARTCHAR 03A0
ENCODING 928
SWIDTH 1000 0
DWIDTH 24 0
BBX 14 17 5 1
BITMAP
FFFC
FFFC
C00C
C00C
C00C
C00C
C00C
C00C
C00C
C00C
C00C
C00C
C00C
C00C
C00C
C00C
C00C
ENDCHAR
STARTCHAR 03A1
ENCODING 929
SWIDTH 1000 0
DWIDTH 24 0
BBX 13 17 6 1
BITMAP
FFC0
FFF0
C038
C018
C018
C018
C018
C038
FFF0
FFC0
C000
C000
C000
C000
C000
C000
C000
ENDCHAR
STARTCHAR 03A3
ENCODING 931
SWIDTH 1000 0
DWIDTH 24 0
BBX 14 17 5 1
BITMAP
FFFC
FFFC
E000
7000
1800
0C00
0700
0380
0380
0700
0E00
1C00
3800
7000
E000
FFFC
FFFC
ENDCHAR
STARTCHAR 03A4
ENCODING 932
SWIDTH 1000 0
DWIDTH 24 0
BBX 14 17 5 1
BITMAP
FFFC
FFFC
0300
0300
0300
0300
0300
0300
0300
0300
0300
0300
0300
0300
0300
0300
0300
ENDCHAR
STARTCHAR 03A5
ENCODING 933
SWIDTH 1000 0
DWIDTH 24 0
BBX 16 17 4 1
BITMAP
E007
700E
300C
181C
1C38
0C30
0660
07E0
03C0
0180
0180
0180
0180
0180
0180
0180
0180
ENDCHAR
STARTCHAR 03A6
ENCODING 934
SWIDTH 1000 0
DWIDTH 24 0
BBX 16 17 4 1
BITMAP
0180
0180
03C0
1FF8
799E
6186
C183
C183
C183
C183
C183
6186
799E
1FF8
03C0
0180
0180
ENDCHAR
STARTCHAR 03A7
ENCODING 935
SWIDTH 1000 0
DWIDTH 24 0
BBX 16 17 4 1
BITMAP
700E
381C
1818
1C38
0E70
0660
03C0
03C0
03C0
03C0
0660
0E70
1C38
381C
381C
700E
E007
ENDCHAR
STARTCHAR 03A8
ENCODING 936
SWIDTH 1000 0
DWIDTH 24 0
BBX 14 17 5 1
BITMAP
C30C
C30C
C30C
C30C
C30C
C30C
C30C
C30C
C30C
631C
7338
3FF0
0FC0
0300
0300
0300
0300
ENDCHAR
STARTCHAR 03A9
ENCODING 937
SWIDTH 1000 0
DWIDTH 24 0
BBX 16 18 4 1
BITMAP
07E0
1FF8
3C3C
300E
6006
6006
E007
C003
C003
E007
6006
6006
300C
1818
0E70
0660
FE7F
FE7F
ENDCHAR
STARTCHAR 03B1
ENCODING 945
SWIDTH 1000 0
DWIDTH 24 0
BBX 14 12 5 1
BITMAP
0F8C
1F98
3998
70F0
60F0
C0E0
C0C0
C1C0
C3CC
C7CC
FE78
7870
ENDCHAR
STARTCHAR 03B2
ENCODING 946
SWIDTH 1000 0
DWIDTH 24 0
BBX 13 21 5 -2
BITMAP
01E0
03F0
0618
0C18
1C18
1818
1818
3030
37E0
33C0
6060
6030
6030
6030
6030
F870
DFE0
C7C0
C000
C000
C000
ENDCHAR
STARTCHAR 03B3
ENCODING 947
SWIDTH 1000 0
DWIDTH 24 0
BBX 14 15 5 -2
BITMAP
1800
7C0C
E61C
C238
0270
0360
03C0
0380
0300
0300
0600
0600
0E00
0E00
0400
ENDCHAR
STARTCHAR 03B4
ENCODING 948
SWIDTH 1000 0
DWIDTH 24 0
BBX 12 18 6 1
BITMAP
0F00
1FC0
18E0
1870
1C10
0E00
0700
0F80
38C0
7040
6060
4060
C060
C0C0
E1C0
6380
7F00
1E00
ENDCHAR
STARTCHAR 03B5
ENCODING 949
SWIDTH 1000 0
DWIDTH 24 0
BBX 10 12 7 1
BITMAP
3F00
7FC0
60C0
6000
6000
3E00
6F00
C000
C000
C1C0
FF80
7E00
ENDCHAR
STARTCHAR 03B6
ENCODING 950
SWIDTH 1000 0
DWIDTH 24 0
BBX 12 21 7 -2
BITMAP
1070
30E0
33E0
3780
3E00
1C00
1800
3000
2000
6000
4000
C000
C000
C000
F800
FF00
0780
0180
0180
7F00
3E00
ENDCHAR
STARTCHAR 03B7
ENCODING 951
SWIDTH 1000 0
DWIDTH 24 0
BBX 13 15 5 -2
BITMAP
3870
7DF0
CF18
CE18
0C18
0C10
0C30
1830
1830
1030
3060
3060
0060
0060
00E0
ENDCHAR
STARTCHAR 03B8
ENCODING 952
SWIDTH 1000 0
DWIDTH 24 0
BBX 12 17 6 1
BITMAP
07C0
0FE0
1C60
3030
7030
6030
6030
FFF0
FFF0
C070
C060
C060
C0C0
C1C0
6380
7F00
3E00
ENDCHAR
STARTCHAR 03B9
ENCODING 953
SWIDTH 1000 0
DWIDTH 24 0
BBX 8 12 8 1
BITMAP
18
38
30
70
60
60
C0
C0
C3
CE
FC
78
ENDCHAR
STARTCHAR 03BA
ENCODING 954
SWIDTH 1000 0
DWIDTH 24 0
BBX 12 12 6 2
BITMAP
1830
18F0
31C0
3700
3E00
3C00
6600
6600
6210
6330
C3E0
C1C0
ENDCHAR
STARTCHAR 03BB
ENCODING 955
SWIDTH 1000 0
DWIDTH 24 0
BBX 13 18 5 1
BITMAP
0F00
1F80
39C0
00C0
00C0
00C0
00C0
01C0
03C0
03C0
06C0
0C40
1C60
1860
3860
7030
6030
E038
ENDCHAR
STARTCHAR 03BC
ENCODING 956
SWIDTH 1000 0
DWIDTH 24 0
BBX 15 15 5 -2
BITMAP
1830
1830
1830
3030
3020
3060
3060
7060
70E2
79E6
7FBC
CE38
C000
C000
C000
ENDCHAR
STARTCHAR 03BD
ENCODING 957
SWIDTH 1000 0
DWIDTH 24 0
BBX 11 12 7 1
BITMAP
C060
E060
6060
60E0
60C0
60C0
6180
6380
6700
6E00
F800
E000
ENDCHAR
STARTCHAR 03BE
ENCODING 958
SWIDTH 1000 0
DWIDTH 24 0
BBX 11 21 6 -2
BITMAP
1800
0FE0
0C00
1800
3000
3000
3000
1DC0
0FC0
3800
7000
E000
C000
6000
7000
1F00
01C0
00C0
00C0
3FC0
3F00
ENDCHAR
STARTCHAR 03BF
ENCODING 959
SWIDTH 1000 0
DWIDTH 24 0
BBX 11 12 6 1
BITMAP
0F80
1FC0
3860
7060
6060
6060
E060
C060
60E0
61C0
3F80
1F00
ENDCHAR
STARTCHAR 03C0
ENCODING 960
SWIDTH 1000 0
DWIDTH 24 0
BBX 13 13 6 1
BITMAP
0008
7FF8
FFF0
D880
1980
1180
3100
3300
2300
6318
6338
C3F0
C1E0
ENDCHAR
STARTCHAR 03C1
ENCODING 961
SWIDTH 1000 0
DWIDTH 24 0
BBX 12 15 5 -2
BITMAP
03C0
0FE0
1C70
1830
3030
3030
3030
7030
7070
78E0
6FC0
6780
6000
C000
C000
ENDCHAR
STARTCHAR 03C2
ENCODING 962
SWIDTH 500 0
DWIDTH 12 0
BBX 9 15 2 -2
BITMAP
3E00
7F00
E380
C180
C000
C000
4000
6000
3000
1800
0C00
0600
8E00
FC00
7800
ENDCHAR
STARTCHAR 03C3
ENCODING 963
SWIDTH 1000 0
DWIDTH 24 0
BBX 13 12 6 1
BITMAP
07F8
1FF8
38C0
7060
6060
6060
E060
C060
60E0
61C0
3F80
1E00
ENDCHAR
STARTCHAR 03C4
ENCODING 964
SWIDTH 1000 0
DWIDTH 24 0
BBX 13 13 6 1
BITMAP
0010
7FF8
FFE0
4600
0C00
0C00
0800
1800
1800
1840
18E0
1FC0
0F00
ENDCHAR
STARTCHAR 03C5
ENCODING 965
SWIDTH 1000 0
DWIDTH 24 0
BBX 13 12 5 1
BITMAP
3C30
7C30
CC30
0C18
1818
1818
3018
3030
3070
30E0
3FC0
1F00
ENDCHAR
STARTCHAR 03C6
ENCODING 966
SWIDTH 1000 0
DWIDTH 24 0
BBX 14 19 5 -2
BITMAP
00C0
00C0
00C0
0080
07C0
1FF0
31B8
6118
630C
C30C
C30C
C218
6618
7670
3FE0
0F80
0C00
0C00
0C00
ENDCHAR
STARTCHAR 03C7
ENCODING 967
SWIDTH 1000 0
DWIDTH 24 0
BBX 13 15 5 -2
BITMAP
3C38
7E30
6660
06E0
02C0
0380
0380
0300
0700
0F00
1D00
1980
3198
61F0
E0E0
ENDCHAR
STARTCHAR 03C8
ENCODING 968
SWIDTH 1000 0
DWIDTH 24 0
BBX 14 19 5 -2
BITMAP
00C0
00C0
00C0
0080
0980
3998
7198
630C
C30C
C30C
C30C
C60C
C618
6670
3FE0
0F80
0C00
0C00
1800
ENDCHAR
STARTCHAR 03C9
ENCODING 969
SWIDTH 1000 0
DWIDTH 24 0
BBX 16 12 4 1
BITMAP
0C04
1C0C
3806
7086
6182
E183
C183
C186
C386
E78E
7EFC
3878
ENDCHAR
STARTCHAR 0401
ENCODING 1025
SWIDTH 1000 0
DWIDTH 24 0
BBX 13 20 6 1
BITMAP
30C0
30C0
0000
FFF0
FFF0
C000
C000
C000
C000
C000
FFE0
FFE0
C000
C000
C000
C000
C000
C000
FFF8
FFF8
ENDCHAR
STARTCHAR 0410
ENCODING 1040
SWIDTH 1000 0
DWIDTH 24 0
BBX 16 17 4 1
BITMAP
03C0
03C0
03C0
0660
0660
0E70
0C30
0C30
1C38
1818
1FF8
3FFC
300C
700E
6006
6006
E007
ENDCHAR
STARTCHAR 0411
ENCODING 1041
SWIDTH 1000 0
DWIDTH 24 0
BBX 13 17 6 1
BITMAP
FFF8
FFF8
C000
C000
C000
C000
C000
FFC0
FFF0
C038
C018
C018
C018
C018
C038
FFF0
FFC0
ENDCHAR
STARTCHAR 0412
ENCODING 1042
SWIDTH 1000 0
DWIDTH 24 0
BBX 13 17 6 1
BITMAP
FFC0
FFE0
C070
C038
C038
C030
C070
FFC0
FFE0
C030
C018
C018
C018
C018
C038
FFF0
FFC0
ENDCHAR
STARTCHAR 0413
ENCODING 1043
SWIDTH 1000 0
DWIDTH 24 0
BBX 13 17 6 1
BITMAP
FFF8
FFF8
C000
C000
C000
C000
C000
C000
C000
C000
C000
C000
C000
C000
C000
C000
C000
ENDCHAR
STARTCHAR 0414
ENCODING 1044
SWIDTH 1000 0
DWIDTH 24 0
BBX 16 19 4 -1
BITMAP
0FFC
0FFC
0C0C
0C0C
0C0C
0C0C
0C0C
0C0C
0C0C
1C0C
180C
180C
180C
300C
300C
FFFF
FFFF
C003
C003
ENDCHAR
STARTCHAR 0415
ENCODING 1045
SWIDTH 1000 0
DWIDTH 24 0
BBX 13 17 6 1
BITMAP
FFF0
FFF0
C000
C000
C000
C000
C000
FFE0
FFE0
C000
C000
C000
C000
C000
C000
FFF8
FFF8
ENDCHAR
STARTCHAR 0416
ENCODING 1046
SWIDTH 1000 0
DWIDTH 24 0
BBX 19 17 3 1
BITMAP
E0C1C0
60C180
60C180
60C180
30C300
38C700
1CCE00
0FFC00
0FCC00
0CCC00
18C600
18C600
30C300
70C380
60C180
E0C1C0
C0C0E0
ENDCHAR
STARTCHAR 0417
ENCODING 1047
SWIDTH 1000 0
DWIDTH 24 0
BBX 14 18 5 1
BITMAP
0FC0
1FE0
3870
7038
6018
0018
0030
0070
07C0
07F0
0038
0018
001C
001C
C018
F078
7FF0
1FC0
ENDCHAR
STARTCHAR 0418
ENCODING 1048
SWIDTH 1000 0
DWIDTH 24 0
BBX 14 17 5 1
BITMAP
C00C
C00C
C00C
C01C
C03C
C06C
C0CC
C18C
C30C
C60C
CC0C
D80C
F00C
E00C
C00C
C00C
C00C
ENDCHAR
STARTCHAR 0419
ENCODING 1049
SWIDTH 1000 0
DWIDTH 24 0
BBX 14 20 5 1
BITMAP
1860
0FE0
0780
C00C
C00C
C01C
C03C
C07C
C0EC
C1CC
C38C
C70C
CE0C
DC0C
F80C
F00C
E00C
C00C
C00C
C00C
ENDCHAR
STARTCHAR 041A
ENCODING 1050
SWIDTH 1000 0
DWIDTH 24 0
BBX 15 17 5 1
BITMAP
E018
E018
E018
E030
E070
E0E0
E1C0
FF80
FF80
E1C0
E0C0
E060
E070
E038
E018
E01C
E00E
ENDCHAR
STARTCHAR 041B
ENCODING 1051
SWIDTH 1000 0
DWIDTH 24 0
BBX 15 17 3 1
BITMAP
03FE
03FE
0306
0306
0306
0306
0306
0306
0306
0306
0306
0306
0606
C606
CE06
FC06
7806
ENDCHAR
STARTCHAR 041C
ENCODING 1052
SWIDTH 1000 0
DWIDTH 24 0
BBX 18 17 3 1
BITMAP
F003C0
F003C0
F806C0
F806C0
F806C0
EC0CC0
EC0CC0
EC0CC0
E618C0
E618C0
E238C0
E330C0
E330C0
E1E0C0
E1E0C0
E1E0C0
E0C0C0
ENDCHAR
STARTCHAR 041D
ENCODING 1053
SWIDTH 1000 0
DWIDTH 24 0
BBX 14 17 5 1
BITMAP
C00C
C00C
C00C
C00C
C00C
C00C
C00C
FFFC
FFFC
C00C
C00C
C00C
C00C
C00C
C00C
C00C
C00C
ENDCHAR
STARTCHAR 041E
ENCODING 1054
SWIDTH 1000 0
DWIDTH 24 0
BBX 16 18 4 1
BITMAP
07E0
0FF0
3C3C
300C
700E
6006
E007
E007
C003
C007
E007
E007
6006
700E
300C
3C3C
0FF8
07E0
ENDCHAR
STARTCHAR 041F
ENCODING 1055
SWIDTH 1000 0
DWIDTH 24 0
BBX 14 17 5 1
BITMAP
FFFC
FFFC
C00C
C00C
C00C
C00C
C00C
C00C
C00C
C00C
C00C
C00C
C00C
C00C
C00C
C00C
C00C
ENDCHAR
STARTCHAR 0420
ENCODING 1056
SWIDTH 1000 0
DWIDTH 24 0
BBX 13 17 6 1
BITMAP
FFC0
FFF0
C038
C018
C018
C018
C018
C038
FFF0
FFC0
C000
C000
C000
C000
C000
C000
C000
ENDCHAR
STARTCHAR 0421
ENCODING 1057
SWIDTH 1000 0
DWIDTH 24 0
BBX 16 18 4 1
BITMAP
07E0
1FF0
3C38
380C
700E
6006
E000
C000
C000
C000
C000
C000
E007
6006
700E
3C3C
1FF8
07E0
ENDCHAR
STARTCHAR 0422
ENCODING 1058
SWIDTH 1000 0
DWIDTH 24 0
BBX 14 17 5 1
BITMAP
FFFC
FFFC
0300
0300
0300
0300
0300
0300
0300
0300
0300
0300
0300
0300
0300
0300
0300
ENDCHAR
STARTCHAR 0423
ENCODING 1059
SWIDTH 1000 0
DWIDTH 24 0
BBX 13 17 6 1
BITMAP
C018
C018
6038
6030
3070
3060
1860
18C0
0CC0
0DC0
0780
0780
0300
0300
0600
FE00
FC00
ENDCHAR
STARTCHAR 0424
ENCODING 1060
SWIDTH 1000 0
DWIDTH 24 0
BBX 16 17 4 1
BITMAP
0180
0180
03C0
1FF8
799E
6186
C183
C183
C183
C183
C183
6186
799E
1FF8
0180
0180
0180
ENDCHAR
STARTCHAR 0425
ENCODING 1061
SWIDTH 1000 0
DWIDTH 24 0
BBX 16 17 4 1
BITMAP
700E
381C
1818
1C38
0E70
0660
03C0
03C0
03C0
03C0
0660
0E70
1C38
381C
381C
700E
E007
ENDCHAR
STARTCHAR 0426
ENCODING 1062
SWIDTH 1000 0
DWIDTH 24 0
BBX 16 19 5 -1
BITMAP
C018
C018
C018
C018
C018
C018
C018
C018
C018
C018
C018
C018
C018
C018
C018
FFFF
FFFF
0003
0003
ENDCHAR
STARTCHAR 0427
ENCODING 1063
SWIDTH 1000 0
DWIDTH 24 0
BBX 12 17 6 1
BITMAP
C030
C030
C030
C030
C030
C030
C030
C030
C070
E1F0
7FB0
3E30
0030
0030
0030
0030
0030
ENDCHAR
STARTCHAR 0428
ENCODING 1064
SWIDTH 1000 0
DWIDTH 24 0
BBX 18 17 3 1
BITMAP
C0C0C0
C0C0C0
C0C0C0
C0C0C0
C0C0C0
C0C0C0
C0C0C0
C0C0C0
C0C0C0
C0C0C0
C0C0C0
C0C0C0
C0C0C0
C0C0C0
C0C0C0
FFFFC0
FFFFC0
ENDCHAR
STARTCHAR 0429
ENCODING 1065
SWIDTH 1000 0
DWIDTH 24 0
BBX 19 19 3 -1
BITMAP
C0C180
C0C180
C0C180
C0C180
C0C180
C0C180
C0C180
C0C180
C0C180
C0C180
C0C180
C0C180
C0C180
C0C180
C0C180
FFFFE0
FFFFE0
000060
000060
ENDCHAR
STARTCHAR 042A
ENCODING 1066
SWIDTH 1000 0
DWIDTH 24 0
BBX 17 17 3 1
BITMAP
FC0000
FC0000
0C0000
0C0000
0C0000
0C0000
0C0000
0FFC00
0FFF00
0C0700
0C0380
0C0180
0C0180
0C0380
0C0700
0FFE00
0FFC00
ENDCHAR
STARTCHAR 042B
ENCODING 1067
SWIDTH 1000 0
DWIDTH 24 0
BBX 16 17 4 1
BITMAP
C003
C003
C003
C003
C003
C003
C003
FF83
FFC3
C0E3
C073
C033
C033
C073
C0E3
FFC3
FF03
ENDCHAR
STARTCHAR 042C
ENCODING 1068
SWIDTH 1000 0
DWIDTH 24 0
BBX 13 17 6 1
BITMAP
C000
C000
C000
C000
C000
C000
C000
FFC0
FFF0
C038
C018
C018
C018
C018
C038
FFF0
FFC0
ENDCHAR
STARTCHAR 042D
ENCODING 1069
SWIDTH 1000 0
DWIDTH 24 0
BBX 15 18 5 1
BITMAP
0FC0
1FF0
7878
6018
E00C
C00C
000E
1C06
3E26
27E6
01C6
0006
000E
C00C
E01C
7078
3FF0
0FC0
ENDCHAR
STARTCHAR 042E
ENCODING 1070
SWIDTH 1000 0
DWIDTH 24 0
BBX 18 18 4 1
BITMAP
00F800
C1FE00
C38700
C70300
C60380
C60180
CE0180
CC01C0
FC01C0
FC01C0
CC01C0
CE0180
C60180
C60180
C70300
C38700
C1FE00
C0F800
ENDCHAR
STARTCHAR 042F
ENCODING 1071
SWIDTH 1000 0
DWIDTH 24 0
BBX 13 17 5 1
BITMAP
1FF8
3FF8
7018
6018
6018
6018
7018
3FF8
0FF8
0618
0E18
0C18
1818
3818
3018
7018
E018
ENDCHAR
STARTCHAR 0430
ENCODING 1072
SWIDTH 1000 0
DWIDTH 24 0
BBX 12 12 6 1
BITMAP
0F00
3FC0
70C0
6060
0060
1FE0
7C60
6060
C060
E1E0
7FF0
7E70
ENDCHAR
STARTCHAR 0431
ENCODING 1073
SWIDTH 1000 0
DWIDTH 24 0
BBX 12 17 6 1
BITMAP
00E0
03C0
0F80
1C00
3000
6000
6F80
7FC0
F0E0
E060
E070
E070
6060
6060
70E0
3FC0
0F00
ENDCHAR
STARTCHAR 0432
ENCODING 1074
SWIDTH 1000 0
DWIDTH 24 0
BBX 10 12 7 1
BITMAP
FF00
FF80
C180
C180
C180
FF00
FF80
C1C0
C0C0
C1C0
FF80
FF00
ENDCHAR
STARTCHAR 0433
ENCODING 1075
SWIDTH 1000 0
DWIDTH 24 0
BBX 9 12 8 1
BITMAP
FF80
FF80
C000
C000
C000
C000
C000
C000
C000
C000
C000
C000
ENDCHAR
STARTCHAR 0434
ENCODING 1076
SWIDTH 1000 0
DWIDTH 24 0
BBX 13 14 5 -1
BITMAP
0FE0
0FE0
0C20
0C20
0C20
0C20
1820
1820
3820
3020
FFF8
FFF8
C018
C018
ENDCHAR
STARTCHAR 0435
ENCODING 1077
SWIDTH 1000 0
DWIDTH 24 0
BBX 12 11 6 1
BITMAP
1F80
30C0
6060
C020
FFF0
FFF0
C000
C070
70E0
3FC0
1F80
ENDCHAR
STARTCHAR 0436
ENCODING 1078
SWIDTH 1000 0
DWIDTH 24 0
BBX 16 12 4 1
BITMAP
6186
6186
318C
319C
1DB8
0FF0
1BD8
1998
318C
318C
6186
E187
ENDCHAR
STARTCHAR 0437
ENCODING 1079
SWIDTH 1000 0
DWIDTH 24 0
BBX 10 12 7 1
BITMAP
3F00
7F80
E180
0180
0180
1F00
1F80
01C0
00C0
C1C0
FF80
3F00
ENDCHAR
STARTCHAR 0438
ENCODING 1080
SWIDTH 1000 0
DWIDTH 24 0
BBX 10 12 7 1
BITMAP
C0C0
C0C0
C1C0
C3C0
C7C0
CEC0
DCC0
F8C0
F0C0
E0C0
C0C0
C0C0
ENDCHAR
STARTCHAR 0439
ENCODING 1081
SWIDTH 1000 0
DWIDTH 24 0
BBX 10 16 7 1
BITMAP
6180
7F80
1E00
0000
C0C0
C0C0
C1C0
C3C0
C7C0
CEC0
DCC0
F8C0
F0C0
E0C0
C0C0
C0C0
ENDCHAR
STARTCHAR 043A
ENCODING 1082
SWIDTH 1000 0
DWIDTH 24 0
BBX 11 12 7 1
BITMAP
C0C0
C180
C180
C380
C700
FE00
F600
C700
C380
C180
C0C0
C0E0
ENDCHAR
STARTCHAR 043B
ENCODING 1083
SWIDTH 1000 0
DWIDTH 24 0
BBX 13 12 4 1
BITMAP
07F8
07F8
0618
0618
0618
0618
0618
0618
C618
CC18
7C18
3818
ENDCHAR
STARTCHAR 043C
ENCODING 1084
SWIDTH 1000 0
DWIDTH 24 0
BBX 12 12 6 1
BITMAP
E070
F0F0
F0F0
D0F0
D9B0
D9B0
D9B0
C930
CF30
CF30
C630
C630
ENDCHAR
STARTCHAR 043D
ENCODING 1085
SWIDTH 1000 0
DWIDTH 24 0
BBX 10 12 7 1
BITMAP
C0C0
C0C0
C0C0
C0C0
C0C0
FFC0
FFC0
C0C0
C0C0
C0C0
C0C0
C0C0
ENDCHAR
STARTCHAR 043E
ENCODING 1086
SWIDTH 1000 0
DWIDTH 24 0
BBX 12 12 6 1
BITMAP
1F80
3FC0
70E0
E070
C030
C030
C030
C030
E070
70E0
3FC0
1F80
ENDCHAR
STARTCHAR 043F
ENCODING 1087
SWIDTH 1000 0
DWIDTH 24 0
BBX 10 12 7 1
BITMAP
FFC0
FFC0
C0C0
C0C0
C0C0
C0C0
C0C0
C0C0
C0C0
C0C0
C0C0
C0C0
ENDCHAR
STARTCHAR 0440
ENCODING 1088
SWIDTH 1000 0
DWIDTH 24 0
BBX 11 15 7 -2
BITMAP
DF80
FFC0
F0E0
E060
C060
C060
C060
C060
E060
F0E0
DFC0
CF00
C000
C000
C000
ENDCHAR
STARTCHAR 0441
ENCODING 1089
SWIDTH 1000 0
DWIDTH 24 0
BBX 12 12 6 1
BITMAP
0F80
3FC0
70E0
6060
C000
C000
C000
C000
E070
70E0
3FC0
0F80
ENDCHAR
STARTCHAR 0442
ENCODING 1090
SWIDTH 1000 0
DWIDTH 24 0
BBX 10 12 7 1
BITMAP
FFC0
FFC0
0C00
0C00
0C00
0C00
0C00
0C00
0C00
0C00
0C00
0C00
ENDCHAR
STARTCHAR 0443
ENCODING 1091
SWIDTH 1000 0
DWIDTH 24 0
BBX 12 15 6 -2
BITMAP
E030
6030
6060
3060
30C0
18C0
1980
0D80
0D80
0700
0700
0600
0E00
7C00
7800
ENDCHAR
STARTCHAR 0444
ENCODING 1092
SWIDTH 1000 0
DWIDTH 24 0
BBX 16 20 4 -2
BITMAP
0180
0180
0180
0180
0180
3DBC
7FFC
63C6
6186
C183
C183
C183
C183
6186
63C6
3FFC
1DB8
0180
0180
0180
ENDCHAR
STARTCHAR 0445
ENCODING 1093
SWIDTH 1000 0
DWIDTH 24 0
BBX 13 12 6 1
BITMAP
E070
70E0
39C0
1980
0F00
0600
0F00
1F80
39C0
70E0
E070
C038
ENDCHAR
STARTCHAR 0446
ENCODING 1094
SWIDTH 1000 0
DWIDTH 24 0
BBX 12 14 7 -1
BITMAP
C0C0
C0C0
C0C0
C0C0
C0C0
C0C0
C0C0
C0C0
C0C0
C0C0
FFF0
FFF0
0030
0030
ENDCHAR
STARTCHAR 0447
ENCODING 1095
SWIDTH 1000 0
DWIDTH 24 0
BBX 10 12 7 1
BITMAP
C0C0
C0C0
C0C0
C0C0
C0C0
C3C0
FFC0
7CC0
00C0
00C0
00C0
00C0
ENDCHAR
STARTCHAR 0448
ENCODING 1096
SWIDTH 1000 0
DWIDTH 24 0
BBX 16 12 4 1
BITMAP
C183
C183
C183
C183
C183
C183
C183
C183
C183
C183
FFFF
FFFF
ENDCHAR
STARTCHAR 0449
ENCODING 1097
SWIDTH 1000 0
DWIDTH 24 0
BBX 17 14 4 -1
BITMAP
C18600
C18600
C18600
C18600
C18600
C18600
C18600
C18600
C18600
C18600
FFFF80
FFFF80
000180
000180
ENDCHAR
STARTCHAR 044A
ENCODING 1098
SWIDTH 1000 0
DWIDTH 24 0
BBX 13 12 5 1
BITMAP
F800
F800
1800
1800
1FE0
1FF8
1818
1818
1818
1818
1FF0
1FE0
ENDCHAR
STARTCHAR 044B
ENCODING 1099
SWIDTH 1000 0
DWIDTH 24 0
BBX 14 12 5 1
BITMAP
C00C
C00C
C00C
C00C
FF0C
FF8C
C1CC
C0CC
C0CC
C1CC
FF8C
FF0C
ENDCHAR
STARTCHAR 044C
ENCODING 1100
SWIDTH 1000 0
DWIDTH 24 0
BBX 10 12 7 1
BITMAP
C000
C000
C000
C000
FF00
FFC0
C0C0
C0C0
C0C0
C0C0
FFC0
FF00
ENDCHAR
STARTCHAR 044D
ENCODING 1101
SWIDTH 1000 0
DWIDTH 24 0
BBX 12 12 6 1
BITMAP
0F00
3FC0
70E0
6060
0030
1F30
1F30
0030
E070
70E0
3FC0
1F80
ENDCHAR
STARTCHAR 044E
ENCODING 1102
SWIDTH 1000 0
DWIDTH 24 0
BBX 16 12 4 1
BITMAP
E078
E1FC
E386
E303
E603
FE03
FE03
E603
E703
E387
E1FE
E0F8
ENDCHAR
STARTCHAR 044F
ENCODING 1103
SWIDTH 1000 0
DWIDTH 24 0
BBX 11 12 6 1
BITMAP
1FE0
3FE0
7060
6060
7060
3FE0
1FE0
1860
1860
3060
7060
E060
ENDCHAR
STARTCHAR 0451
ENCODING 1105
SWIDTH 1000 0
DWIDTH 24 0
BBX 12 15 6 1
BITMAP
30C0
30C0
0000
0000
1F80
30C0
6060
C020
FFF0
FFF0
C000
C070
70E0
3FC0
1F80
ENDCHAR
STARTCHAR 1E3E
ENCODING 7742
SWIDTH 500 0
DWIDTH 12 0
BBX 10 20 1 1
BITMAP
0600
0800
0000
E1C0
E1C0
E1C0
E1C0
E1C0
F3C0
F3C0
D3C0
D2C0
D2C0
D2C0
DEC0
DEC0
CEC0
CCC0
CCC0
CCC0
ENDCHAR
STARTCHAR 1E3F
ENCODING 7743
SWIDTH 500 0
DWIDTH 12 0
BBX 10 15 1 1
BITMAP
0600
0800
0000
FB80
FFC0
CCC0
CCC0
CCC0
CCC0
CCC0
CCC0
CCC0
CCC0
CCC0
CCC0
ENDCHAR
STARTCHAR 1F70
ENCODING 8048
SWIDTH 500 0
DWIDTH 12 0
BBX 10 15 1 1
BITMAP
1800
0C00
0000
1E80
3F80
7380
6180
C180
C180
C180
C180
6180
6380
3FC0
1EC0
ENDCHAR
STARTCHAR 1F71
ENCODING 8049
SWIDTH 500 0
DWIDTH 12 0
BBX 10 15 1 1
BITMAP
0600
0C00
0000
1E80
3F80
7380
6180
C180
C180
C180
C180
6180
6380
3FC0
1EC0
ENDCHAR
STARTCHAR 1F72
ENCODING 8050
SWIDTH 500 0
DWIDTH 12 0
BBX 9 15 1 1
BITMAP
1800
0C00
0000
3E00
7F00
6180
6000
6000
3C00
3C00
6000
C000
E180
7F80
3E00
ENDCHAR
STARTCHAR 1F73
ENCODING 8051
SWIDTH 500 0
DWIDTH 12 0
BBX 9 15 1 1
BITMAP
0600
0C00
0000
3E00
7F00
6180
6000
6000
3C00
3C00
6000
C000
E180
7F80
3E00
ENDCHAR
STARTCHAR 2010
ENCODING 8208
SWIDTH 1000 0
DWIDTH 24 0
BBX 8 2 8 8
BITMAP
FF
FF
ENDCHAR
STARTCHAR 2013
ENCODING 8211
SWIDTH 500 0
DWIDTH 12 0
BBX 4 2 4 8
BITMAP
F0
F0
ENDCHAR
STARTCHAR 2014
ENCODING 8212
SWIDTH 1000 0
DWIDTH 24 0
BBX 20 2 2 8
BITMAP
FFFFF0
FFFFF0
ENDCHAR
STARTCHAR 2015
ENCODING 8213
SWIDTH 1000 0
DWIDTH 24 0
BBX 20 2 2 8
BITMAP
FFFFF0
FFFFF0
ENDCHAR
STARTCHAR 2016
ENCODING 8214
SWIDTH 1000 0
DWIDTH 24 0
BBX 6 24 9 -3
BITMAP
84
84
84
84
84
84
84
84
84
84
84
84
84
84
84
84
84
84
84
84
84
84
84
84
ENDCHAR
STARTCHAR 2018
ENCODING 8216
SWIDTH 1000 0
DWIDTH 24 0
BBX 3 6 19 14
BITMAP
20
40
C0
E0
E0
E0
ENDCHAR
STARTCHAR 2019
ENCODING 8217
SWIDTH 1000 0
DWIDTH 24 0
BBX 3 6 2 14
BITMAP
E0
E0
E0
60
40
80
ENDCHAR
STARTCHAR 201C
ENCODING 8220
SWIDTH 1000 0
DWIDTH 24 0
BBX 8 6 14 14
BITMAP
21
62
46
E7
E7
E7
ENDCHAR
STARTCHAR 201D
ENCODING 8221
SWIDTH 1000 0
DWIDTH 24 0
BBX 8 6 2 14
BITMAP
E7
E7
E7
62
46
84
ENDCHAR
STARTCHAR 2020
ENCODING 8224
SWIDTH 1000 0
DWIDTH 24 0
BBX 11 22 7 -2
BITMAP
0C00
1E00
1C00
0C00
0C00
EDC0
FFE0
EDC0
0C00
1E00
0C00
0C00
0C00
0C00
0C00
0C00
0C00
0C00
0C00
0C00
0C00
0C00
ENDCHAR
STARTCHAR 2021
ENCODING 8225
SWIDTH 1000 0
DWIDTH 24 0
BBX 10 22 7 -2
BITMAP
0C00
0C00
0C00
EDC0
FFC0
EDC0
0C00
0C00
0C00
0C00
0C00
0C00
0C00
0C00
0C00
0C00
EDC0
FFC0
EDC0
0C00
0C00
0C00
ENDCHAR
STARTCHAR 2022
ENCODING 8226
SWIDTH 500 0
DWIDTH 12 0
BBX 6 5 3 6
BITMAP
78
78
FC
78
78
ENDCHAR
STARTCHAR 2025
ENCODING 8229
SWIDTH 1000 0
DWIDTH 24 0
BBX 14 3 5 7
BITMAP
C00C
C00C
C00C
ENDCHAR
STARTCHAR 2026
ENCODING 8230
SWIDTH 1000 0
DWIDTH 24 0
BBX 18 3 3 7
BITMAP
C0C0C0
C0C0C0
C0C0C0
ENDCHAR
STARTCHAR 2030
ENCODING 8240
SWIDTH 1000 0
DWIDTH 24 0
BBX 22 22 1 -2
BITMAP
000600
380C00
7C0800
4C1800
C43000
C43000
C46000
C44000
4CC000
7D8000
398000
037870
027CF8
06CCC8
0CCC8C
0CC48C
18CC8C
10CCC8
307CF8
607870
600000
C00000
ENDCHAR
STARTCHAR 2032
ENCODING 8242
SWIDTH 1000 0
DWIDTH 24 0
BBX 2 6 2 14
BITMAP
40
40
C0
C0
80
80
ENDCHAR
STARTCHAR 2033
ENCODING 8243
SWIDTH 1000 0
DWIDTH 24 0
BBX 6 6 2 14
BITMAP
44
4C
CC
C8
88
98
ENDCHAR
STARTCHAR 203B
ENCODING 8251
SWIDTH 1000 0
DWIDTH 24 0
BBX 20 19 2 -1
BITMAP
400020
606060
30F0C0
186180
0C0300
060600
030C00
019800
00F000
606060
70F0E0
619860
030C00
060600
0C0300
180180
3060C0
60F060
C06030
ENDCHAR
STARTCHAR 203C
ENCODING 8252
SWIDTH 500 0
DWIDTH 12 0
BBX 8 19 2 0
BITMAP
E7
E7
E7
E7
E7
E7
E3
C3
43
42
42
42
42
42
00
00
E7
E7
E7
ENDCHAR
STARTCHAR 203E
ENCODING 8254
SWIDTH 1000 0
DWIDTH 24 0
BBX 0 0 0 21
BITMAP
ENDCHAR
STARTCHAR 203F
ENCODING 8255
SWIDTH 500 0
DWIDTH 12 0
BBX 10 3 1 -3
BITMAP
8040
6180
1E00
ENDCHAR
STARTCHAR 2042
ENCODING 8258
SWIDTH 500 0
DWIDTH 12 0
BBX 10 15 1 2
BITMAP
0C00
0C00
3B00
0C00
1A00
3B00
0C00
0000
0000
2100
BF40
73C0
F380
BF40
2100
ENDCHAR
STARTCHAR 2047
ENCODING 8263
SWIDTH 500 0
DWIDTH 12 0
BBX 10 20 1 0
BITMAP
7180
F3C0
D2C0
9E40
9E40
1040
10C0
30C0
3180
6180
6100
6100
4300
4300
4300
0000
0000
E300
E300
E300
ENDCHAR
STARTCHAR 2048
ENCODING 8264
SWIDTH 500 0
DWIDTH 12 0
BBX 10 19 1 0
BITMAP
79C0
FDC0
CDC0
CDC0
8DC0
0D80
0D80
1880
1880
3080
3080
2080
6080
6080
0000
0000
71C0
71C0
71C0
ENDCHAR
STARTCHAR 2049
ENCODING 8265
SWIDTH 500 0
DWIDTH 12 0
BBX 10 19 1 0
BITMAP
E780
E7C0
ECC0
ECC0
E8C0
60C0
60C0
4180
4180
4300
4300
4200
4200
4200
0000
0000
E700
E700
E700
ENDCHAR
STARTCHAR 2051
ENCODING 8273
SWIDTH 1000 0
DWIDTH 24 0
BBX 8 19 8 0
BITMAP
18
18
DB
76
18
7E
D3
18
18
00
00
18
18
D3
74
18
76
DB
18
ENDCHAR
STARTCHAR 20AC
ENCODING 8364
SWIDTH 500 0
DWIDTH 12 0
BBX 10 17 1 1
BITMAP
0E00
1F80
3180
30C0
6000
6000
FE00
FE00
6000
FE00
FE00
6000
60C0
30C0
3180
1F80
0F00
ENDCHAR
STARTCHAR 2103
ENCODING 8451
SWIDTH 1000 0
DWIDTH 24 0
BBX 20 19 1 1
BITMAP
700000
480000
8C3F00
8CFFC0
49C1E0
338060
030070
060000
060000
060000
060000
060000
060000
060030
070070
038060
01C1E0
00FFC0
003F00
ENDCHAR
STARTCHAR 210F
ENCODING 8463
SWIDTH 500 0
DWIDTH 12 0
BBX 10 17 1 1
BITMAP
1800
1800
3E00
F800
3000
3780
2FC0
78C0
70C0
60C0
60C0
60C0
C180
C180
C180
C180
8180
ENDCHAR
STARTCHAR 2113
ENCODING 8467
SWIDTH 500 0
DWIDTH 12 0
BBX 10 17 1 1
BITMAP
0700
0F80
1D80
1880
1880
3180
3180
3180
3100
3300
3300
3600
3C00
3CC0
71C0
FF80
8F00
ENDCHAR
STARTCHAR 2116
ENCODING 8470
SWIDTH 1000 0
DWIDTH 24 0
BBX 21 17 2 1
BITMAP
C18000
E18000
E18000
F18000
F18000
D18F00
D99F80
D99980
C990C0
CDB0C0
C5B0C0
C7B0C0
C7B0C0
C390C0
C399C0
C39F98
C18F18
ENDCHAR
STARTCHAR 2121
ENCODING 8481
SWIDTH 1000 0
DWIDTH 24 0
BBX 22 17 1 1
BITMAP
FF8000
FF8000
180000
180000
18FCC0
18FCC0
18C0C0
18C0C0
18C0C0
18F8C0
18F8C0
18C0C0
18C0C0
18C0C0
18C0C0
18FCFC
18FCFC
ENDCHAR
STARTCHAR 2127
ENCODING 8487
SWIDTH 500 0
DWIDTH 12 0
BBX 10 17 1 1
BITMAP
F3C0
F3C0
1200
3300
6300
6180
4180
C0C0
C0C0
C0C0
C0C0
C0C0
C0C0
6180
7180
3F00
1E00
ENDCHAR
STARTCHAR 212B
ENCODING 8491
SWIDTH 1000 0
DWIDTH 24 0
BBX 16 20 4 1
BITMAP
03C0
0240
0240
03C0
0000
0180
03C0
03C0
0660
0660
0E30
0C30
1C38
1818
1FF8
3FFC
300C
700E
6006
E007
ENDCHAR
STARTCHAR 2135
ENCODING 8501
SWIDTH 500 0
DWIDTH 12 0
BBX 10 17 1 0
BITMAP
6180
4100
C180
C1C0
C3C0
6240
3640
3C00
6E00
4700
6380
6180
60C0
60C0
60C0
60C0
C180
ENDCHAR
STARTCHAR 2153
ENCODING 8531
SWIDTH 500 0
DWIDTH 12 0
BBX 10 21 1 -1
BITMAP
2080
E080
A180
2100
2100
2200
2200
2400
2400
2C00
2800
0B80
1640
1440
2040
20C0
6180
4040
C440
8640
83C0
ENDCHAR
STARTCHAR 2154
ENCODING 8532
SWIDTH 500 0
DWIDTH 12 0
BBX 10 21 1 -1
BITMAP
7000
D880
8880
9900
1900
3300
6200
C600
8400
FC00
0B80
1EC0
1C40
1440
3040
20C0
6180
4040
4440
8640
83C0
ENDCHAR
STARTCHAR 2155
ENCODING 8533
SWIDTH 500 0
DWIDTH 12 0
BBX 10 22 1 -2
BITMAP
2080
E080
A180
2100
2100
2200
2200
2600
2400
2C00
2800
0FC0
1600
1600
3580
26C0
2440
4040
4040
C440
86C0
8380
ENDCHAR
STARTCHAR 2160
ENCODING 8544
SWIDTH 1000 0
DWIDTH 24 0
BBX 2 17 11 1
BITMAP
C0
C0
C0
C0
C0
C0
C0
C0
C0
C0
C0
C0
C0
C0
C0
C0
C0
ENDCHAR
STARTCHAR 2161
ENCODING 8545
SWIDTH 1000 0
DWIDTH 24 0
BBX 8 17 8 1
BITMAP
C3
C3
C3
C3
C3
C3
C3
C3
C3
C3
C3
C3
C3
C3
C3
C3
C3
ENDCHAR
STARTCHAR 2162
ENCODING 8546
SWIDTH 1000 0
DWIDTH 24 0
BBX 14 17 5 1
BITMAP
C30C
C30C
C30C
C30C
C30C
C30C
C30C
C30C
C30C
C30C
C30C
C30C
C30C
C30C
C30C
C30C
C30C
ENDCHAR
STARTCHAR 2163
ENCODING 8547
SWIDTH 1000 0
DWIDTH 24 0
BBX 18 17 4 1
BITMAP
CC01C0
CC0180
CE0180
C60380
C60300
C70300
C30700
C30600
C38600
C18C00
C18C00
C1CC00
C0D800
C0D800
C07800
C07000
C07000
ENDCHAR
STARTCHAR 2164
ENCODING 8548
SWIDTH 1000 0
DWIDTH 24 0
BBX 16 17 4 1
BITMAP
E007
6006
700E
300C
300C
381C
1818
1818
0C38
0C30
0E70
0660
0660
07E0
03C0
03C0
0180
ENDCHAR
STARTCHAR 2165
ENCODING 8549
SWIDTH 1000 0
DWIDTH 24 0
BBX 18 17 2 1
BITMAP
E00CC0
600CC0
601CC0
7018C0
3018C0
3038C0
3830C0
1830C0
1870C0
0C60C0
0C60C0
0CE0C0
06C0C0
06C0C0
0780C0
0380C0
0380C0
ENDCHAR
STARTCHAR 2166
ENCODING 8550
SWIDTH 1000 0
DWIDTH 24 0
BBX 20 17 2 1
BITMAP
C06630
C06630
C06630
60E630
60C630
60C630
70C630
31C630
318630
318630
198630
1B0630
1B0630
1B0630
0F0630
0E0630
0E0630
ENDCHAR
STARTCHAR 2167
ENCODING 8551
SWIDTH 1000 0
DWIDTH 24 0
BBX 21 17 1 1
BITMAP
E06CD8
606CD8
60CCD8
60CCD8
60CCD8
30CCD8
318CD8
318CD8
318CD8
198CD8
1B0CD8
1B0CD8
1B0CD8
0B0CD8
0E0CD8
0E0CD8
0E0CD8
ENDCHAR
STARTCHAR 2168
ENCODING 8552
SWIDTH 1000 0
DWIDTH 24 0
BBX 18 17 4 1
BITMAP
C60380
C30300
C38700
C18E00
C1CC00
C0DC00
C07800
C07000
C07000
C07800
C0DC00
C1CC00
C18E00
C38700
C70300
C60380
CE01C0
ENDCHAR
STARTCHAR 2169
ENCODING 8553
SWIDTH 1000 0
DWIDTH 24 0
BBX 16 17 4 1
BITMAP
700E
381C
1818
1C38
0E70
0660
03C0
03C0
03C0
03C0
0660
0E70
1C38
381C
381C
700E
E007
ENDCHAR
STARTCHAR 216A
ENCODING 8554
SWIDTH 1000 0
DWIDTH 24 0
BBX 18 17 2 1
BITMAP
7018C0
3030C0
1870C0
1C60C0
0CE0C0
0EC0C0
0780C0
0780C0
0380C0
0780C0
0EC0C0
0CE0C0
1C60C0
3870C0
3038C0
7018C0
E01CC0
ENDCHAR
STARTCHAR 216B
ENCODING 8555
SWIDTH 1000 0
DWIDTH 24 0
BBX 20 17 2 1
BITMAP
60E630
60C630
31C630
318630
1B8630
1B0630
0E0630
0E0630
0E0630
0F0630
1B0630
3B8630
318630
71C630
60C630
E0E630
C06630
ENDCHAR
STARTCHAR 2170
ENCODING 8560
SWIDTH 1000 0
DWIDTH 24 0
BBX 2 17 11 1
BITMAP
C0
C0
00
00
00
C0
C0
C0
C0
C0
C0
C0
C0
C0
C0
C0
C0
ENDCHAR
STARTCHAR 2171
ENCODING 8561
SWIDTH 1000 0
DWIDTH 24 0
BBX 8 17 8 1
BITMAP
C3
C3
00
00
00
C3
C3
C3
C3
C3
C3
C3
C3
C3
C3
C3
C3
ENDCHAR
STARTCHAR 2172
ENCODING 8562
SWIDTH 1000 0
DWIDTH 24 0
BBX 12 17 6 1
BITMAP
C630
C630
0000
0000
0000
C630
C630
C630
C630
C630
C630
C630
C630
C630
C630
C630
C630
ENDCHAR
STARTCHAR 2173
ENCODING 8563
SWIDTH 1000 0
DWIDTH 24 0
BBX 15 17 5 1
BITMAP
C000
C000
0000
0000
0000
CC06
C606
C60E
C70C
C30C
C318
C198
C1B8
C1F0
C0F0
C0E0
C060
ENDCHAR
STARTCHAR 2174
ENCODING 8564
SWIDTH 1000 0
DWIDTH 24 0
BBX 12 12 6 1
BITMAP
C030
E070
6060
6060
30C0
30C0
39C0
1980
1980
0F00
0F00
0F00
ENDCHAR
STARTCHAR 2175
ENCODING 8565
SWIDTH 1000 0
DWIDTH 24 0
BBX 15 17 4 1
BITMAP
0006
0006
0000
0000
0000
C066
C0C6
E0C6
61C6
6186
3186
3306
3B06
1F06
1E06
0E06
0C06
ENDCHAR
STARTCHAR 2176
ENCODING 8566
SWIDTH 1000 0
DWIDTH 24 0
BBX 18 17 3 1
BITMAP
0019C0
0019C0
000000
000000
000000
C198C0
C198C0
C198C0
6318C0
6318C0
6318C0
3618C0
3618C0
3618C0
1C18C0
1C18C0
1C18C0
ENDCHAR
STARTCHAR 2177
ENCODING 8567
SWIDTH 1000 0
DWIDTH 24 0
BBX 20 17 2 1
BITMAP
001B30
001B30
000000
000000
000000
C0D930
C19930
619930
619930
631930
331930
331930
361930
1E1930
1E1930
1C1930
0C1930
ENDCHAR
STARTCHAR 2178
ENCODING 8568
SWIDTH 1000 0
DWIDTH 24 0
BBX 16 17 5 1
BITMAP
C000
C000
0000
0000
0000
CE0E
C70C
C318
C1B8
C1F0
C0E0
C0F0
C1B0
C398
C71C
CE0E
CC07
ENDCHAR
STARTCHAR 2179
ENCODING 8569
SWIDTH 1000 0
DWIDTH 24 0
BBX 13 12 6 1
BITMAP
E070
70E0
39C0
1980
0F00
0600
0F00
1F80
39C0
70E0
E070
C038
ENDCHAR
STARTCHAR 217A
ENCODING 8570
SWIDTH 1000 0
DWIDTH 24 0
BBX 16 17 3 1
BITMAP
0003
0003
0000
0000
0000
7073
30E3
18C3
1D83
0F83
0703
0F03
0D83
19C3
38E3
7073
E033
ENDCHAR
STARTCHAR 217B
ENCODING 8571
SWIDTH 1000 0
DWIDTH 24 0
BBX 18 17 3 1
BITMAP
000CC0
000CC0
000000
000000
000000
C18CC0
638CC0
730CC0
360CC0
1E0CC0
1C0CC0
1C0CC0
3E0CC0
330CC0
630CC0
E18CC0
C1CCC0
ENDCHAR
STARTCHAR 2190
ENCODING 8592
SWIDTH 1000 0
DWIDTH 24 0
BBX 20 8 2 5
BITMAP
0C0000
180000
700000
FFFFF0
FFFFF0
700000
180000
0C0000
ENDCHAR
STARTCHAR 2191
ENCODING 8593
SWIDTH 1000 0
DWIDTH 24 0
BBX 8 21 8 -1
BITMAP
10
18
3C
7E
DB
DB
99
18
18
18
18
18
18
18
18
18
18
18
18
18
18
ENDCHAR
STARTCHAR 2192
ENCODING 8594
SWIDTH 1000 0
DWIDTH 24 0
BBX 20 8 2 5
BITMAP
000700
000180
0000E0
FFFFF0
FFFFF0
0000E0
000180
000300
ENDCHAR
STARTCHAR 2193
ENCODING 8595
SWIDTH 1000 0
DWIDTH 24 0
BBX 8 21 8 -2
BITMAP
18
18
18
18
18
18
18
18
18
18
18
18
18
18
99
DB
DB
7E
3C
18
10
ENDCHAR
STARTCHAR 2194
ENCODING 8596
SWIDTH 500 0
DWIDTH 12 0
BBX 10 8 1 5
BITMAP
2100
6180
C0C0
FFC0
C0C0
6180
6180
3300
ENDCHAR
STARTCHAR 2196
ENCODING 8598
SWIDTH 500 0
DWIDTH 12 0
BBX 9 18 2 0
BITMAP
6000
7000
7C00
F700
F100
9800
9800
8800
0C00
0C00
0400
0600
0600
0300
0300
0300
0180
0100
ENDCHAR
STARTCHAR 2197
ENCODING 8599
SWIDTH 500 0
DWIDTH 12 0
BBX 9 18 1 0
BITMAP
0300
0700
1F00
7780
4780
0C80
0C80
0880
1800
1800
1000
3000
3000
6000
6000
6000
C000
4000
ENDCHAR
STARTCHAR 2198
ENCODING 8600
SWIDTH 500 0
DWIDTH 12 0
BBX 9 18 1 0
BITMAP
C000
C000
6000
6000
2000
3000
3000
1000
1800
1800
0C80
0C80
0C80
6780
3780
1F00
0700
0100
ENDCHAR
STARTCHAR 2199
ENCODING 8601
SWIDTH 500 0
DWIDTH 12 0
BBX 10 18 1 0
BITMAP
00C0
00C0
0180
0180
0100
0300
0300
0200
0600
0600
4C00
CC00
4C00
7980
7B00
3E00
3800
2000
ENDCHAR
STARTCHAR 21C4
ENCODING 8644
SWIDTH 500 0
DWIDTH 12 0
BBX 8 18 2 0
BITMAP
0C
06
03
FF
FF
03
06
0C
00
00
20
40
FF
FF
C0
60
60
30
ENDCHAR
STARTCHAR 21D2
ENCODING 8658
SWIDTH 1000 0
DWIDTH 24 0
BBX 21 14 1 2
BITMAP
000300
000380
000180
FFFFC0
FFFFE0
000030
000018
000018
000030
FFFFE0
FFFFC0
000180
000380
000300
ENDCHAR
STARTCHAR 21D4
ENCODING 8660
SWIDTH 1000 0
DWIDTH 24 0
BBX 22 14 1 2
BITMAP
030300
060180
0C00C0
1FFFE0
3FFFF0
700038
C0000C
C0000C
700038
3FFFF0
1FFFE0
0C00C0
060180
030300
ENDCHAR
STARTCHAR 21E6
ENCODING 8678
SWIDTH 500 0
DWIDTH 12 0
BBX 10 7 1 6
BITMAP
1000
3000
5FC0
8040
5FC0
3000
1000
ENDCHAR
STARTCHAR 21E7
ENCODING 8679
SWIDTH 500 0
DWIDTH 12 0
BBX 8 19 2 0
BITMAP
18
24
24
42
42
E7
28
28
28
28
28
28
28
28
28
28
28
28
18
ENDCHAR
STARTCHAR 21E8
ENCODING 8680
SWIDTH 500 0
DWIDTH 12 0
BBX 10 7 1 6
BITMAP
0200
0300
FE80
8040
FE80
0300
0200
ENDCHAR
STARTCHAR 21E9
ENCODING 8681
SWIDTH 500 0
DWIDTH 12 0
BBX 8 19 2 -1
BITMAP
18
28
28
28
28
28
28
28
28
28
28
28
28
E7
42
42
24
24
18
ENDCHAR
STARTCHAR 2200
ENCODING 8704
SWIDTH 1000 0
DWIDTH 24 0
BBX 20 21 2 -2
BITMAP
C00030
600060
600060
200040
3000C0
100080
180180
0FFF00
0FFF00
0C0300
060600
060600
020400
030C00
010800
019800
009000
00F000
006000
006000
004000
ENDCHAR
STARTCHAR 2202
ENCODING 8706
SWIDTH 1000 0
DWIDTH 24 0
BBX 12 19 5 0
BITMAP
0780
1FC0
18E0
0060
0020
0030
0030
0030
0F30
3FF0
70F0
6070
6060
C060
C060
60C0
71C0
3F80
1E00
ENDCHAR
STARTCHAR 2203
ENCODING 8707
SWIDTH 1000 0
DWIDTH 24 0
BBX 17 18 3 0
BITMAP
FFFF80
FFFF80
000080
000080
000080
000080
000080
000080
FFFF80
FFFF80
000080
000080
000080
000080
000080
000080
FFFF80
FFFF80
ENDCHAR
STARTCHAR 2205
ENCODING 8709
SWIDTH 500 0
DWIDTH 12 0
BBX 10 14 1 2
BITMAP
00C0
0180
1F00
7F80
E6C0
C6C0
8C40
8C40
D8C0
D180
7F80
7E00
6000
4000
ENDCHAR
STARTCHAR 2207
ENCODING 8711
SWIDTH 1000 0
DWIDTH 24 0
BBX 18 18 3 -1
BITMAP
FFFFC0
FFFFC0
600080
600180
300100
300300
180200
180600
0C0400
0C0C00
060800
061800
031000
033000
01A000
01E000
00C000
00C000
ENDCHAR
STARTCHAR 2208
ENCODING 8712
SWIDTH 1000 0
DWIDTH 24 0
BBX 19 18 2 0
BITMAP
03FFE0
0FFFE0
1E0000
300000
600000
600000
C00000
C00000
FFFFE0
FFFFE0
C00000
C00000
600000
600000
300000
1E0000
0FFFE0
03FFE0
ENDCHAR
STARTCHAR 2209
ENCODING 8713
SWIDTH 500 0
DWIDTH 12 0
BBX 10 17 1 1
BITMAP
0300
0FC0
1FC0
3A00
6600
C600
C600
C400
FFC0
FFC0
CC00
C800
6800
3800
1FC0
1FC0
1000
ENDCHAR
STARTCHAR 220B
ENCODING 8715
SWIDTH 1000 0
DWIDTH 24 0
BBX 19 18 3 0
BITMAP
FFF800
FFFE00
000F00
000180
0000C0
0000C0
000040
000060
FFFFE0
FFFFE0
000060
000060
0000C0
0000C0
000180
000F00
FFFE00
FFF800
ENDCHAR
STARTCHAR 2212
ENCODING 8722
SWIDTH 500 0
DWIDTH 12 0
BBX 10 2 1 8
BITMAP
FFC0
FFC0
ENDCHAR
STARTCHAR 2213
ENCODING 8723
SWIDTH 500 0
DWIDTH 12 0
BBX 10 17 1 0
BITMAP
FFC0
FFC0
0000
0000
0C00
0C00
0C00
0C00
0C00
0C00
FFC0
FFC0
0C00
0C00
0C00
0C00
0C00
ENDCHAR
STARTCHAR 221A
ENCODING 8730
SWIDTH 1000 0
DWIDTH 24 0
BBX 22 22 1 -1
BITMAP
000FFC
000800
000800
001800
001000
001000
003000
002000
002000
006000
004000
10C000
30C000
388000
798000
4D8000
CD0000
C70000
870000
060000
020000
020000
ENDCHAR
STARTCHAR 221D
ENCODING 8733
SWIDTH 1000 0
DWIDTH 24 0
BBX 19 10 2 4
BITMAP
3E07C0
7F0FE0
E19C60
C0F020
806000
806000
C0F020
E39C60
7F0FE0
3E03C0
ENDCHAR
STARTCHAR 221E
ENCODING 8734
SWIDTH 1000 0
DWIDTH 24 0
BBX 20 10 2 4
BITMAP
3E07C0
7F0FE0
E39C70
C0F030
C06030
C06030
C0F030
E39C70
7F0FE0
3E07C0
ENDCHAR
STARTCHAR 221F
ENCODING 8735
SWIDTH 1000 0
DWIDTH 24 0
BBX 19 20 3 0
BITMAP
800000
800000
800000
800000
800000
800000
800000
800000
800000
800000
800000
800000
800000
800000
800000
800000
800000
800000
FFFFE0
FFFFE0
ENDCHAR
STARTCHAR 2220
ENCODING 8736
SWIDTH 1000 0
DWIDTH 24 0
BBX 20 19 2 0
BITMAP
000060
0000E0
0001C0
000380
000700
000E00
001C00
003800
007000
00E000
01C000
038000
030000
060000
0C0000
180000
300000
7FFFF0
FFFFF0
ENDCHAR
STARTCHAR 2225
ENCODING 8741
SWIDTH 1000 0
DWIDTH 24 0
BBX 12 21 6 -1
BITMAP
0010
0310
0330
0230
0620
0660
0460
0C40
0CC0
18C0
1980
1180
3100
3300
2300
6200
6600
4600
C400
CC00
8C00
ENDCHAR
STARTCHAR 2226
ENCODING 8742
SWIDTH 500 0
DWIDTH 12 0
BBX 10 21 1 -1
BITMAP
0CC0
0CC0
08C0
0880
1880
1980
D980
7100
3100
3900
3F00
2700
2300
2380
66C0
6600
4600
4400
C400
CC00
CC00
ENDCHAR
STARTCHAR 2227
ENCODING 8743
SWIDTH 1000 0
DWIDTH 24 0
BBX 20 20 2 0
BITMAP
006000
006000
00F000
00F000
019800
019800
010800
030C00
020400
060600
040200
0C0300
080100
180180
100080
3000C0
3000C0
600060
600060
C00030
ENDCHAR
STARTCHAR 2228
ENCODING 8744
SWIDTH 1000 0
DWIDTH 24 0
BBX 20 20 2 -2
BITMAP
C00030
600060
600060
3000C0
3000C0
100080
180180
080100
0C0300
040200
060600
020400
030C00
010800
019800
009800
00F000
00F000
006000
006000
ENDCHAR
STARTCHAR 2229
ENCODING 8745
SWIDTH 1000 0
DWIDTH 24 0
BBX 18 19 3 0
BITMAP
03F000
0FFC00
3C0F00
300300
600180
400080
C000C0
C000C0
C000C0
C000C0
C000C0
C000C0
C000C0
C000C0
C000C0
C000C0
C000C0
C000C0
C000C0
ENDCHAR
STARTCHAR 222A
ENCODING 8746
SWIDTH 1000 0
DWIDTH 24 0
BBX 18 19 3 0
BITMAP
C000C0
C000C0
C000C0
C000C0
C000C0
C000C0
C000C0
C000C0
C000C0
C000C0
C000C0
C000C0
C000C0
400080
600180
300300
3C0F00
0FFC00
03F000
ENDCHAR
STARTCHAR 222B
ENCODING 8747
SWIDTH 1000 0
DWIDTH 24 0
BBX 12 21 6 -1
BITMAP
01C0
03E0
0330
0330
0200
0200
0600
0600
0600
0600
0600
0600
0600
0600
0600
0400
0400
CC00
CC00
7C00
7800
ENDCHAR
STARTCHAR 222C
ENCODING 8748
SWIDTH 1000 0
DWIDTH 24 0
BBX 20 21 2 -1
BITMAP
01C1E0
03E1E0
033330
033330
020300
060200
060200
060600
060600
060600
060600
060600
060600
060600
040600
040400
0C0400
CCC400
CCCC00
787C00
783800
ENDCHAR
STARTCHAR 222E
ENCODING 8750
SWIDTH 1000 0
DWIDTH 24 0
BBX 12 21 6 -1
BITMAP
01C0
01E0
0330
0330
0200
0200
0600
0F00
1680
2680
2640
2640
1680
0F00
0400
0400
0400
CC00
CC00
7800
7800
ENDCHAR
STARTCHAR 2234
ENCODING 8756
SWIDTH 1000 0
DWIDTH 24 0
BBX 16 14 4 2
BITMAP
0180
03C0
0180
0000
0000
0000
0000
0000
0000
0000
0000
6006
F00F
6006
ENDCHAR
STARTCHAR 2235
ENCODING 8757
SWIDTH 1000 0
DWIDTH 24 0
BBX 16 14 4 2
BITMAP
6006
F00F
6006
0000
0000
0000
0000
0000
0000
0000
0000
0180
03C0
0180
ENDCHAR
STARTCHAR 223D
ENCODING 8765
SWIDTH 1000 0
DWIDTH 24 0
BBX 20 10 2 4
BITMAP
3E07C0
7F0FE0
E01C70
C03030
806010
806010
C0C030
E38470
7F0FE0
3E07C0
ENDCHAR
STARTCHAR 2243
ENCODING 8771
SWIDTH 500 0
DWIDTH 12 0
BBX 10 8 1 5
BITMAP
F840
FFC0
0780
0000
0000
0000
FFC0
FFC0
ENDCHAR
STARTCHAR 2245
ENCODING 8773
SWIDTH 500 0
DWIDTH 12 0
BBX 10 11 1 4
BITMAP
7000
FC40
8FC0
0380
0000
0000
FFC0
FFC0
0000
FFC0
FFC0
ENDCHAR
STARTCHAR 2248
ENCODING 8776
SWIDTH 500 0
DWIDTH 12 0
BBX 10 8 1 5
BITMAP
F840
FFC0
0780
0000
0000
7800
FFC0
0780
ENDCHAR
STARTCHAR 2252
ENCODING 8786
SWIDTH 1000 0
DWIDTH 24 0
BBX 16 16 4 1
BITMAP
1C00
1C00
1C00
0000
0000
FFFF
FFFF
0000
0000
FFFF
FFFF
0000
0000
0038
0038
0038
ENDCHAR
STARTCHAR 2260
ENCODING 8800
SWIDTH 1000 0
DWIDTH 24 0
BBX 16 17 4 1
BITMAP
0010
0030
0030
0060
0060
FFFF
FFFF
0080
0180
0180
0300
FFFF
FFFF
0600
0400
0C00
0800
ENDCHAR
STARTCHAR 2261
ENCODING 8801
SWIDTH 1000 0
DWIDTH 24 0
BBX 16 12 4 3
BITMAP
FFFF
FFFF
0000
0000
0000
FFFF
FFFF
0000
0000
0000
FFFF
FFFF
ENDCHAR
STARTCHAR 2262
ENCODING 8802
SWIDTH 500 0
DWIDTH 12 0
BBX 10 18 1 0
BITMAP
0300
0300
0300
FFC0
FFC0
0600
0600
0400
FFC0
FFC0
0800
1800
FFC0
FFC0
3000
3000
3000
3000
ENDCHAR
STARTCHAR 2266
ENCODING 8806
SWIDTH 1000 0
DWIDTH 24 0
BBX 17 19 3 1
BITMAP
000380
001F00
00F800
07C000
1E0000
F80000
1E0000
03C000
007800
000F00
000380
000000
000000
7FFF80
7FFF80
000000
000000
7FFF80
7FFF80
ENDCHAR
STARTCHAR 2267
ENCODING 8807
SWIDTH 1000 0
DWIDTH 24 0
BBX 17 19 4 1
BITMAP
E00000
7C0000
0F8000
01F000
003C00
000F80
003C00
01E000
0F0000
7C0000
E00000
000000
000000
FFFF00
FFFF00
000000
000000
FFFF00
FFFF00
ENDCHAR
STARTCHAR 226A
ENCODING 8810
SWIDTH 1000 0
DWIDTH 24 0
BBX 18 22 3 -2
BITMAP
0030C0
006180
00C300
018600
030C00
061800
0C3000
186000
30C000
618000
C30000
C30000
618000
30C000
186000
0C3000
061800
030C00
018600
00C300
006180
0030C0
ENDCHAR
STARTCHAR 226B
ENCODING 8811
SWIDTH 1000 0
DWIDTH 24 0
BBX 18 22 3 -2
BITMAP
C30000
618000
30C000
186000
0C3000
061800
030C00
018600
00C300
006180
0030C0
0030C0
006180
00C300
018600
030C00
061800
0C3000
186000
30C000
618000
C30000
ENDCHAR
STARTCHAR 2276
ENCODING 8822
SWIDTH 500 0
DWIDTH 12 0
BBX 10 18 1 0
BITMAP
00C0
0380
0E00
3800
E000
7000
1C00
0700
C1C0
F040
3C00
0E00
0380
03C0
0E00
3800
E000
8000
ENDCHAR
STARTCHAR 2277
ENCODING 8823
SWIDTH 500 0
DWIDTH 12 0
BBX 10 18 1 0
BITMAP
C000
7000
1C00
0700
01C0
0380
0E00
3800
E0C0
83C0
0F00
3C00
7000
F000
1C00
0700
01C0
00C0
ENDCHAR
STARTCHAR 2282
ENCODING 8834
SWIDTH 1000 0
DWIDTH 24 0
BBX 19 18 2 0
BITMAP
03FFE0
0FFFE0
1E0000
300000
600000
600000
C00000
C00000
C00000
C00000
C00000
C00000
600000
600000
300000
1C0000
0FFFE0
03FFE0
ENDCHAR
STARTCHAR 2283
ENCODING 8835
SWIDTH 1000 0
DWIDTH 24 0
BBX 19 18 3 0
BITMAP
FFF800
FFFE00
000F00
000180
0000C0
0000C0
000060
000060
000060
000060
000060
000060
0000C0
0000C0
000180
000F00
FFFE00
FFF800
ENDCHAR
STARTCHAR 2284
ENCODING 8836
SWIDTH 500 0
DWIDTH 12 0
BBX 10 17 1 1
BITMAP
0300
0FC0
1FC0
3A00
6600
C600
C600
C400
8C00
8C00
CC00
C800
7800
3800
1FC0
1FC0
1000
ENDCHAR
STARTCHAR 2285
ENCODING 8837
SWIDTH 500 0
DWIDTH 12 0
BBX 10 18 1 0
BITMAP
0200
FE00
FE00
0700
0780
04C0
0CC0
0CC0
0C40
08C0
18C0
18C0
1980
1780
FF00
FC00
3000
3000
ENDCHAR
STARTCHAR 2286
ENCODING 8838
SWIDTH 1000 0
DWIDTH 24 0
BBX 19 18 2 0
BITMAP
0FFFE0
1FFFE0
380000
600000
400000
C00000
C00000
C00000
C00000
600000
380000
1FFFE0
0FFFE0
000000
000000
000000
7FFFE0
7FFFE0
ENDCHAR
STARTCHAR 2287
ENCODING 8839
SWIDTH 1000 0
DWIDTH 24 0
BBX 19 18 3 0
BITMAP
FFFE00
FFFF00
000380
0000C0
000040
000060
000060
000060
000040
0000C0
000380
FFFF00
FFFE00
000000
000000
000000
FFFFC0
FFFFC0
ENDCHAR
STARTCHAR 228A
ENCODING 8842
SWIDTH 500 0
DWIDTH 12 0
BBX 10 17 1 0
BITMAP
1FC0
3FC0
6000
C000
C000
8000
8000
C000
C000
6000
7FC0
1FC0
0600
0400
FFC0
FFC0
0800
ENDCHAR
STARTCHAR 228B
ENCODING 8843
SWIDTH 500 0
DWIDTH 12 0
BBX 10 17 1 0
BITMAP
FE00
FF00
0180
00C0
00C0
0040
0040
00C0
00C0
0180
FF00
FE00
0600
0400
FFC0
FFC0
0800
ENDCHAR
STARTCHAR 2295
ENCODING 8853
SWIDTH 500 0
DWIDTH 12 0
BBX 10 10 1 4
BITMAP
1E00
6180
8CC0
8C40
BF40
8C40
8C40
8C40
6180
1E00
ENDCHAR
STARTCHAR 2296
ENCODING 8854
SWIDTH 500 0
DWIDTH 12 0
BBX 10 11 1 4
BITMAP
1E00
6180
C0C0
8040
8040
BF40
8040
8040
C080
6180
1E00
ENDCHAR
STARTCHAR 2297
ENCODING 8855
SWIDTH 500 0
DWIDTH 12 0
BBX 10 11 1 4
BITMAP
1E00
6180
C0C0
B340
9E40
8C40
9E40
B340
C080
6180
1E00
ENDCHAR
STARTCHAR 22A5
ENCODING 8869
SWIDTH 1000 0
DWIDTH 24 0
BBX 22 20 1 0
BITMAP
003000
003000
003000
003000
003000
003000
003000
003000
003000
003000
003000
003000
003000
003000
003000
003000
003000
003000
FFFFFC
FFFFFC
ENDCHAR
STARTCHAR 22BF
ENCODING 8895
SWIDTH 1000 0
DWIDTH 24 0
BBX 19 20 2 0
BITMAP
000020
000020
000060
0000E0
0001A0
000320
000620
000C20
001820
003020
006020
00C020
018020
030020
060020
0C0020
180020
300020
7FFFE0
FFFFE0
ENDCHAR
STARTCHAR 22DA
ENCODING 8922
SWIDTH 500 0
DWIDTH 12 0
BBX 10 20 1 -1
BITMAP
00C0
0780
1E00
7000
F800
1E00
03C0
00C0
0000
FFC0
FFC0
0000
C000
F000
1E00
0780
03C0
1E00
7800
C000
ENDCHAR
STARTCHAR 22DB
ENCODING 8923
SWIDTH 500 0
DWIDTH 12 0
BBX 10 20 1 -1
BITMAP
C000
7800
1E00
0380
07C0
1E00
F000
C000
0000
FFC0
FFC0
0000
00C0
03C0
1E00
7800
F000
1E00
0780
00C0
ENDCHAR
STARTCHAR 2305
ENCODING 8965
SWIDTH 500 0
DWIDTH 12 0
BBX 10 11 1 3
BITMAP
FFC0
FFC0
0000
0C00
0C00
1E00
1200
3300
2100
6180
C0C0
ENDCHAR
STARTCHAR 2306
ENCODING 8966
SWIDTH 500 0
DWIDTH 12 0
BBX 10 14 1 2
BITMAP
FFC0
FFC0
0000
FFC0
FFC0
0000
0C00
0C00
1E00
1200
3300
2100
6180
C0C0
ENDCHAR
STARTCHAR 2312
ENCODING 8978
SWIDTH 1000 0
DWIDTH 24 0
BBX 22 5 1 15
BITMAP
03FE00
1FFFE0
7C00F8
E0001C
800004
ENDCHAR
STARTCHAR 2318
ENCODING 8984
SWIDTH 1000 0
DWIDTH 24 0
BBX 22 20 1 -1
BITMAP
3C00F0
460188
C2010C
C2010C
420108
3FFFF0
020100
020100
020100
020100
020100
020100
020100
020100
3FFFF0
420108
C2010C
C2010C
460188
3C00F8
ENDCHAR
STARTCHAR 23BE
ENCODING 9150
SWIDTH 1000 0
DWIDTH 24 0
BBX 12 24 12 -3
BITMAP
FFF0
8000
8000
8000
8000
8000
8000
8000
8000
8000
8000
8000
8000
8000
8000
8000
8000
8000
8000
8000
8000
8000
8000
8000
ENDCHAR
STARTCHAR 23BF
ENCODING 9151
SWIDTH 1000 0
DWIDTH 24 0
BBX 12 24 12 -3
BITMAP
8000
8000
8000
8000
8000
8000
8000
8000
8000
8000
8000
8000
8000
8000
8000
8000
8000
8000
8000
8000
8000
8000
8000
FFF0
ENDCHAR
STARTCHAR 23C0
ENCODING 9152
SWIDTH 1000 0
DWIDTH 24 0
BBX 18 24 3 -3
BITMAP
008000
008000
008000
03F000
0C8C00
108200
208100
408080
408080
808040
808040
808040
808040
808040
808040
408080
408080
208100
108200
0C8C00
03F000
008000
008000
008000
ENDCHAR
STARTCHAR 23C1
ENCODING 9153
SWIDTH 1000 0
DWIDTH 24 0
BBX 24 24 0 -3
BITMAP
FFFFFF
001000
001000
007E00
019180
021040
041020
081010
081010
101008
101008
101008
101008
101008
101008
081010
081010
041020
021040
019180
007E00
001000
001000
001000
ENDCHAR
STARTCHAR 23C2
ENCODING 9154
SWIDTH 1000 0
DWIDTH 24 0
BBX 24 24 0 -3
BITMAP
001000
001000
001000
007E00
019180
021040
041020
081010
081010
101008
101008
101008
101008
101008
101008
081010
081010
041020
021040
019180
007E00
001000
001000
FFFFFF
ENDCHAR
STARTCHAR 23C3
ENCODING 9155
SWIDTH 1000 0
DWIDTH 24 0
BBX 20 24 2 -3
BITMAP
002000
002000
002000
006000
006000
00B000
00B000
012800
032C00
022400
042200
042200
082100
082100
102080
202040
202040
402020
402020
FFFFF0
002000
002000
002000
002000
ENDCHAR
STARTCHAR 23C4
ENCODING 9156
SWIDTH 1000 0
DWIDTH 24 0
BBX 24 24 0 -3
BITMAP
FFFFFF
001000
001000
001800
001800
003400
003400
005200
00D300
009100
011080
011080
021040
021040
041020
081010
081010
101008
101008
3FFFFC
001000
001000
001000
001000
ENDCHAR
STARTCHAR 23C5
ENCODING 9157
SWIDTH 1000 0
DWIDTH 24 0
BBX 24 24 0 -3
BITMAP
001000
001000
001000
001800
001800
003400
003400
005200
00D300
009100
011080
011080
021040
061040
041020
081010
081010
101008
101008
3FFFFC
001000
001000
001000
FFFFFF
ENDCHAR
STARTCHAR 23C6
ENCODING 9158
SWIDTH 1000 0
DWIDTH 24 0
BBX 20 24 2 -3
BITMAP
004000
004000
004000
004000
004000
004000
004000
004000
004000
3C4000
C34000
00C000
003000
005C30
0047C0
004000
004000
004000
004000
004000
004000
004000
004000
004000
ENDCHAR
STARTCHAR 23C7
ENCODING 9159
SWIDTH 1000 0
DWIDTH 24 0
BBX 24 24 0 -3
BITMAP
FFFFFF
001000
001000
001000
001000
001000
001000
001000
001000
0F1000
30D000
003000
000C00
00170C
0011F0
001000
001000
001000
001000
001000
001000
001000
001000
001000
ENDCHAR
STARTCHAR 23C8
ENCODING 9160
SWIDTH 1000 0
DWIDTH 24 0
BBX 24 24 0 -3
BITMAP
001000
001000
001000
001000
001000
001000
001000
001000
001000
0F1000
30F000
003000
000C00
00170C
0011F0
001000
001000
001000
001000
001000
001000
001000
001000
FFFFFF
ENDCHAR
STARTCHAR 23C9
ENCODING 9161
SWIDTH 1000 0
DWIDTH 24 0
BBX 24 24 0 -3
BITMAP
FFFFFF
001000
001000
001000
001000
001000
001000
001000
001000
001000
001000
001000
001000
001000
001000
001000
001000
001000
001000
001000
001000
001000
001000
001000
ENDCHAR
STARTCHAR 23CA
ENCODING 9162
SWIDTH 1000 0
DWIDTH 24 0
BBX 24 24 0 -3
BITMAP
001000
001000
001000
001000
001000
001000
001000
001000
001000
001000
001000
001000
001000
001000
001000
001000
001000
001000
001000
001000
001000
001000
001000
FFFFFF
ENDCHAR
STARTCHAR 23CB
ENCODING 9163
SWIDTH 1000 0
DWIDTH 24 0
BBX 12 24 0 -3
BITMAP
FFF0
0010
0010
0010
0010
0010
0010
0010
0010
0010
0010
0010
0010
0010
0010
0010
0010
0010
0010
0010
0010
0010
0010
0010
ENDCHAR
STARTCHAR 23CC
ENCODING 9164
SWIDTH 1000 0
DWIDTH 24 0
BBX 12 24 0 -3
BITMAP
0010
0010
0010
0010
0010
0010
0010
0010
0010
0010
0010
0010
0010
0010
0010
0010
0010
0010
0010
0010
0010
0010
0010
FFF0
ENDCHAR
STARTCHAR 23CE
ENCODING 9166
SWIDTH 1000 0
DWIDTH 24 0
BBX 21 21 1 -2
BITMAP
0007F8
000618
000618
000618
000618
000618
008618
018618
038618
068618
08FC18
300018
600010
C00010
600030
100060
08FFC0
068000
038000
018000
008000
ENDCHAR
STARTCHAR 2423
ENCODING 9251
SWIDTH 1000 0
DWIDTH 24 0
BBX 18 5 3 0
BITMAP
800040
800040
800040
FFFFC0
FFFFC0
ENDCHAR
STARTCHAR 2460
ENCODING 9312
SWIDTH 1000 0
DWIDTH 24 0
BBX 22 24 1 -3
BITMAP
00FC00
030300
0C00C0
180060
303030
20F010
40F008
C03008
803004
803004
803004
803004
803004
803004
803004
803004
C03008
403008
603010
303030
180060
0C00C0
030300
00FC00
ENDCHAR
STARTCHAR 2461
ENCODING 9313
SWIDTH 1000 0
DWIDTH 24 0
BBX 22 23 1 -2
BITMAP
00FC00
030380
0C00C0
100020
207C10
21FE18
41C708
C3830C
830304
800304
800604
800E04
803804
806004
80C004
C1800C
418008
63FF18
23FF10
100020
0C00C0
070380
00FC00
ENDCHAR
STARTCHAR 2462
ENCODING 9314
SWIDTH 1000 0
DWIDTH 24 0
BBX 22 23 1 -2
BITMAP
00FC00
030380
0C00C0
100020
207810
21FE18
438608
C3030C
800304
800304
800604
807C04
807E04
800704
800304
C7018C
430388
638718
21FE10
107C20
0C00C0
070380
00FC00
ENDCHAR
STARTCHAR 2463
ENCODING 9315
SWIDTH 1000 0
DWIDTH 24 0
BBX 22 24 1 -3
BITMAP
00FC00
030300
0C00C0
180060
301C30
201C10
403C08
C06C08
80EC04
80CC04
818C04
838C04
830C04
860C04
87FF84
87FF84
C00C08
400C08
600C10
300C30
180060
0C00C0
030300
00FC00
ENDCHAR
STARTCHAR 2464
ENCODING 9316
SWIDTH 1000 0
DWIDTH 24 0
BBX 22 23 1 -2
BITMAP
00FC00
030380
0C00C0
100020
21FF10
61FF18
418008
C1800C
818004
813C04
81FE04
818704
830304
800304
800304
C0030C
430308
618718
21FE10
107C20
0C00C0
070380
00FC00
ENDCHAR
STARTCHAR 2465
ENCODING 9317
SWIDTH 1000 0
DWIDTH 24 0
BBX 22 22 1 -2
BITMAP
00FC00
070380
0C00C0
107C20
20FE10
61C708
418308
830004
830004
837C04
83FE04
838704
830304
830304
830304
430308
418718
20FE10
107820
0C00C0
070380
00FC00
ENDCHAR
STARTCHAR 2466
ENCODING 9318
SWIDTH 1000 0
DWIDTH 24 0
BBX 22 22 1 -2
BITMAP
01FC00
070380
1C00C0
300020
23FF10
63FF08
C00308
800604
800604
800C04
800C04
800C04
801804
801804
803004
403008
403018
206010
106020
0C00C0
070380
00FC00
ENDCHAR
STARTCHAR 2467
ENCODING 9319
SWIDTH 1000 0
DWIDTH 24 0
BBX 22 22 1 -2
BITMAP
01FC00
070380
1C00C0
30F820
21FE10
638708
C30308
830304
830304
818604
80FC04
81FE04
838704
870304
860184
430308
438718
21FE10
10FC20
0C00C0
070380
00FC00
ENDCHAR
STARTCHAR 2468
ENCODING 9320
SWIDTH 1000 0
DWIDTH 24 0
BBX 22 23 1 -2
BITMAP
00FC00
070380
0C00C0
107820
20FC10
61C618
438308
C3030C
830304
830304
818384
818784
80FD04
807B04
800304
C3830C
418608
61FE18
207810
100020
0C00C0
070380
00FC00
ENDCHAR
STARTCHAR 2469
ENCODING 9321
SWIDTH 1000 0
DWIDTH 24 0
BBX 22 23 1 -2
BITMAP
00FC00
030380
0C00C0
100020
260F10
6E1F98
4E3988
C630CC
8630C4
8630C4
8660C4
8660C4
8660C4
8620C4
8630C4
C630CC
4639C8
661F98
260F10
100020
0C00C0
070380
00FC00
ENDCHAR
STARTCHAR 246A
ENCODING 9322
SWIDTH 1000 0
DWIDTH 24 0
BBX 22 23 1 -2
BITMAP
00FC00
030380
0C00C0
100020
230310
670718
4F0708
C3030C
830304
830304
830304
830304
830304
830304
830304
C3030C
430308
630318
230310
100020
0C00C0
070380
00FC00
ENDCHAR
STARTCHAR 246B
ENCODING 9323
SWIDTH 1000 0
DWIDTH 24 0
BBX 22 23 1 -2
BITMAP
00FC00
030380
0C00C0
100020
260F10
6E1F98
4E3188
C630CC
8620C4
860084
860184
860304
860604
860C04
861804
C6100C
463008
663FD8
267FD0
100020
0C00C0
070380
00FC00
ENDCHAR
STARTCHAR 246C
ENCODING 9324
SWIDTH 1000 0
DWIDTH 24 0
BBX 22 23 1 -2
BITMAP
00FC00
030380
0C00C0
100020
260F10
6E3F98
4E3188
C6218C
860084
860184
860184
860F04
860F84
8601C4
8600C4
C660CC
4631C8
663F98
261F10
100020
0C00C0
070380
00FC00
ENDCHAR
STARTCHAR 246D
ENCODING 9325
SWIDTH 1000 0
DWIDTH 24 0
BBX 22 23 1 -2
BITMAP
00FC00
030380
0C00C0
100020
260390
6E0398
4E0788
C60F8C
860D84
861984
861984
863184
863184
866184
867FE4
C67FEC
460188
660198
260190
100020
0C00C0
070380
00FC00
ENDCHAR
STARTCHAR 246E
ENCODING 9326
SWIDTH 1000 0
DWIDTH 24 0
BBX 22 23 1 -2
BITMAP
00FC00
030380
0C00C0
100020
223F90
6E3F98
4E3008
C6300C
863004
863F04
863F84
8631C4
8600C4
8600C4
8600C4
C660CC
463188
663F98
261F10
100020
0C00C0
070380
00FC00
ENDCHAR
STARTCHAR 246F
ENCODING 9327
SWIDTH 1000 0
DWIDTH 24 0
BBX 22 23 1 -2
BITMAP
00FC00
030380
0C00C0
100020
260F10
6E1F98
4E3988
C630CC
863004
866004
866F04
867F84
8671C4
8670C4
8620C4
C630CC
4631C8
661F98
260F10
100020
0C00C0
070380
00FC00
ENDCHAR
STARTCHAR 2470
ENCODING 9328
SWIDTH 1000 0
DWIDTH 24 0
BBX 22 23 1 -2
BITMAP
00FC00
030380
0C00C0
100020
227FD0
6E7FD8
4E0188
C6018C
860104
860304
860304
860604
860604
860604
860C04
C60C0C
460C08
660C18
261810
100020
0C00C0
070380
00FC00
ENDCHAR
STARTCHAR 2471
ENCODING 9329
SWIDTH 1000 0
DWIDTH 24 0
BBX 22 23 1 -2
BITMAP
00FC00
030380
0C00C0
100020
261F10
6E3F98
4E3188
C660CC
862084
863184
861F04
863F84
8671C4
8660C4
8660C4
C660CC
4671C8
663F98
261F10
100020
0C00C0
070380
00FC00
ENDCHAR
STARTCHAR 2472
ENCODING 9330
SWIDTH 1000 0
DWIDTH 24 0
BBX 22 23 1 -2
BITMAP
00FC00
030380
0C00C0
100020
260F10
6E1F98
4E3188
C620CC
8660C4
8660C4
8630C4
8631C4
863FC4
861EC4
8600C4
C6008C
463188
663F18
261E10
100020
0C00C0
070380
00FC00
ENDCHAR
STARTCHAR 2473
ENCODING 9331
SWIDTH 1000 0
DWIDTH 24 0
BBX 22 23 1 -2
BITMAP
00FC00
030380
0C00C0
100020
23C390
67C7D8
4E6CC8
CC6C4C
8C6C64
806C64
80C864
808864
818864
830C64
860C64
C60C4C
440CC8
6FE7D8
2FE390
100020
0C00C0
070380
00FC00
ENDCHAR
STARTCHAR 24D0
ENCODING 9424
SWIDTH 1000 0
DWIDTH 24 0
BBX 22 23 1 -2
BITMAP
00FC00
030380
0C00C0
100020
200010
200018
400008
C0F80C
81FC04
818604
800604
80FE04
81C604
830604
830604
C18E0C
40F308
600018
200010
100020
0C00C0
070380
00FC00
ENDCHAR
STARTCHAR 24D1
ENCODING 9425
SWIDTH 1000 0
DWIDTH 24 0
BBX 22 23 1 -2
BITMAP
00FC00
030380
0C00C0
100020
218010
618018
418008
C1800C
81BC04
81C604
818304
818104
818184
818184
818104
C1830C
41C608
613C18
200010
100020
0C00C0
070380
00FC00
ENDCHAR
STARTCHAR 24D2
ENCODING 9426
SWIDTH 1000 0
DWIDTH 24 0
BBX 22 23 1 -2
BITMAP
00FC00
030380
0C00C0
100020
200010
600018
407808
C0FC0C
818604
838604
830004
830004
830004
818604
818604
C0FC0C
407808
600018
200010
100020
0C00C0
070380
00FC00
ENDCHAR
STARTCHAR 24D3
ENCODING 9427
SWIDTH 1000 0
DWIDTH 24 0
BBX 22 23 1 -2
BITMAP
00FC00
030380
0C00C0
100020
200610
600618
400608
C0060C
80F604
819E04
830604
820604
860604
860604
820604
C30E0C
418E08
60F218
200010
100020
0C00C0
070380
00FC00
ENDCHAR
STARTCHAR 24D4
ENCODING 9428
SWIDTH 1000 0
DWIDTH 24 0
BBX 22 22 1 -2
BITMAP
01FC00
070380
0C00C0
300020
200010
600008
C07808
808404
818604
830204
83FF04
83FF04
830304
810204
808604
407808
400018
200010
100020
0C00C0
070380
00FC00
ENDCHAR
STARTCHAR 24D5
ENCODING 9429
SWIDTH 1000 0
DWIDTH 24 0
BBX 22 23 1 -2
BITMAP
00FC00
030380
0C00C0
100020
200010
603C18
403C08
C0600C
806004
806004
81FC04
81FC04
806004
806004
806004
C0600C
406008
606018
206010
100020
0C00C0
070380
00FC00
ENDCHAR
STARTCHAR 24D6
ENCODING 9430
SWIDTH 1000 0
DWIDTH 24 0
BBX 22 22 1 -2
BITMAP
01FC00
070380
0C00C0
300020
200010
607A08
C08E08
818604
810204
810204
818604
818E04
807A04
800204
818604
418608
407818
200010
100020
0C00C0
070380
00FC00
ENDCHAR
STARTCHAR 24D7
ENCODING 9431
SWIDTH 1000 0
DWIDTH 24 0
BBX 22 23 1 -3
BITMAP
00FC00
070380
0C00C0
100020
218010
618018
418008
C1800C
819C04
81FE04
81C304
818304
818304
818304
818304
C1830C
418308
618318
200010
100020
0C00C0
070380
00FC00
ENDCHAR
STARTCHAR 24D8
ENCODING 9432
SWIDTH 1000 0
DWIDTH 24 0
BBX 22 22 1 -2
BITMAP
01FC00
070380
0C00C0
300020
203010
603008
C00008
800004
803004
803004
803004
803004
803004
803004
803004
403008
403018
203010
100020
0C00C0
070380
00FC00
ENDCHAR
STARTCHAR 24D9
ENCODING 9433
SWIDTH 1000 0
DWIDTH 24 0
BBX 22 24 1 -3
BITMAP
00FC00
030300
0C00C0
181860
301830
600010
400008
C00008
801804
801804
801804
801804
801804
801804
801804
801804
C01808
401808
60F810
30F030
180060
0C00C0
030300
00FC00
ENDCHAR
STARTCHAR 24DA
ENCODING 9434
SWIDTH 1000 0
DWIDTH 24 0
BBX 22 23 1 -3
BITMAP
00FC00
070380
0C00C0
100020
218010
618018
418008
C1800C
818604
818C04
819804
81B004
81F004
81D804
818C04
C1860C
418708
618318
200010
100020
0C00C0
070380
00FC00
ENDCHAR
STARTCHAR 24DB
ENCODING 9435
SWIDTH 1000 0
DWIDTH 24 0
BBX 22 22 1 -2
BITMAP
01FC00
070380
0C00C0
300020
203010
603008
C03008
803004
803004
803004
803004
803004
803004
803004
803004
403008
403018
203010
100020
0C00C0
070380
00FC00
ENDCHAR
STARTCHAR 24DC
ENCODING 9436
SWIDTH 1000 0
DWIDTH 24 0
BBX 22 24 1 -3
BITMAP
00FC00
030300
0400C0
180060
300030
200010
400008
44E708
87FF84
873984
863184
863184
863184
863184
863184
863184
C63188
400008
600010
300030
180060
0C00C0
030300
00FC00
ENDCHAR
STARTCHAR 24DD
ENCODING 9437
SWIDTH 1000 0
DWIDTH 24 0
BBX 22 24 1 -3
BITMAP
00FC00
030300
0400C0
180060
300030
200010
400008
413C08
817E04
81C604
818204
810204
810204
810204
810204
810204
C10208
400008
600010
300030
180060
0C00C0
030300
00FC00
ENDCHAR
STARTCHAR 24DE
ENCODING 9438
SWIDTH 1000 0
DWIDTH 24 0
BBX 22 22 1 -2
BITMAP
01FC00
070380
1C00C0
300020
200010
600008
C07808
80FC04
818604
830304
830304
830304
830304
818604
80FE04
407808
400018
200010
100020
0C00C0
070380
00FC00
ENDCHAR
STARTCHAR 24DF
ENCODING 9439
SWIDTH 1000 0
DWIDTH 24 0
BBX 22 23 1 -2
BITMAP
00FC00
030380
0C00C0
100020
200010
600018
41BC08
C1C70C
818304
818184
818184
818184
818184
818304
81C704
C1BC0C
418008
618018
200010
100020
0C00C0
070380
00FC00
ENDCHAR
STARTCHAR 24E0
ENCODING 9440
SWIDTH 1000 0
DWIDTH 24 0
BBX 22 23 1 -2
BITMAP
00FC00
030380
0C00C0
100020
200010
600018
40F608
C38E0C
830604
860604
860604
860604
860604
830604
830E04
C0F60C
400608
600618
200010
100020
0C00C0
070380
00FC00
ENDCHAR
STARTCHAR 24E1
ENCODING 9441
SWIDTH 1000 0
DWIDTH 24 0
BBX 22 22 1 -2
BITMAP
00FC00
070380
0C00C0
100020
200010
600008
400008
806604
806E04
807004
806004
806004
806004
806004
806004
406008
400018
200010
100020
0C00C0
070380
00FC00
ENDCHAR
STARTCHAR 24E2
ENCODING 9442
SWIDTH 1000 0
DWIDTH 24 0
BBX 22 23 1 -3
BITMAP
00FC00
070380
0C00C0
100020
200010
600018
407808
C08C0C
818604
81C004
80F804
803C04
800604
818604
818604
C0F80C
400008
600018
200010
100020
0C00C0
070380
00FC00
ENDCHAR
STARTCHAR 24E3
ENCODING 9443
SWIDTH 1000 0
DWIDTH 24 0
BBX 22 22 1 -2
BITMAP
01FC00
070380
1C00C0
300020
200010
606008
C06008
81FC04
81FC04
806004
806004
806004
806004
806004
806004
407C08
403C18
200010
100020
0C00C0
070380
00FC00
ENDCHAR
STARTCHAR 24E4
ENCODING 9444
SWIDTH 1000 0
DWIDTH 24 0
BBX 22 24 1 -3
BITMAP
00FC00
030300
0400C0
180060
300030
200010
400008
410208
810204
810204
810204
810204
810204
810604
818E04
81FE04
C0F208
400008
600010
300030
180060
0C00C0
030300
00FC00
ENDCHAR
STARTCHAR 24E5
ENCODING 9445
SWIDTH 1000 0
DWIDTH 24 0
BBX 22 22 1 -2
BITMAP
00FC00
070380
0C00C0
100020
200010
600008
400008
830304
830304
818604
818604
80CC04
80CC04
807804
807804
403008
400018
200010
100020
0C00C0
070380
00FC00
ENDCHAR
STARTCHAR 24E6
ENCODING 9446
SWIDTH 1000 0
DWIDTH 24 0
BBX 22 22 1 -2
BITMAP
00FC00
070380
0C00C0
100020
200010
600008
400008
8C30C4
8C30C4
8C78C4
867984
864984
82CD04
83CF04
838704
418608
400018
200010
100020
0C00C0
070380
00FC00
ENDCHAR
STARTCHAR 24E7
ENCODING 9447
SWIDTH 1000 0
DWIDTH 24 0
BBX 22 24 1 -3
BITMAP
00FC00
030300
0400C0
180060
300030
200010
400008
430708
818604
80CC04
807804
807004
807804
80FC04
81CC04
818604
C30308
400008
600010
300030
180060
0C00C0
030300
00FC00
ENDCHAR
STARTCHAR 24E8
ENCODING 9448
SWIDTH 1000 0
DWIDTH 24 0
BBX 22 23 1 -2
BITMAP
00FC00
030380
0C00C0
100020
200010
600018
430188
C1830C
818304
80C604
80C604
806C04
806C04
803804
803804
C0300C
403008
61E018
21E010
100020
0C00C0
070380
00FC00
ENDCHAR
STARTCHAR 24E9
ENCODING 9449
SWIDTH 1000 0
DWIDTH 24 0
BBX 22 24 1 -3
BITMAP
00FC00
030300
0400C0
180060
300030
200010
400008
41FE08
81FE04
800E04
801804
803004
806004
80C004
818004
83FE04
C3FE08
400008
600010
300030
180060
0C00C0
030300
00FC00
ENDCHAR
STARTCHAR 24EB
ENCODING 9451
SWIDTH 1000 0
DWIDTH 24 0
BBX 22 23 1 -2
BITMAP
00FC00
03FF80
0FFFC0
1FFFE0
3CFE70
70F878
74F878
FCFE7C
FCFE7C
FCFE7C
FCFE7C
FCFE7C
FCFE7C
FCFE7C
FCFE7C
FCFE7C
7CFE78
7CFE78
3CFE70
1FFFE0
0FFFC0
07FF80
00FC00
ENDCHAR
STARTCHAR 24EC
ENCODING 9452
SWIDTH 1000 0
DWIDTH 24 0
BBX 22 23 1 -2
BITMAP
00FC00
03FF80
0FFFC0
1FFFE0
39F0F0
71E678
61CF38
E9CF3C
F9CF3C
F9FE3C
F9FE7C
F9FC7C
F9F8FC
F9F1FC
F9E3FC
F9E7FC
79CFF8
79CFF8
39C030
1FFFE0
0FFFC0
07FF80
00FC00
ENDCHAR
STARTCHAR 24ED
ENCODING 9453
SWIDTH 1000 0
DWIDTH 24 0
BBX 22 23 1 -2
BITMAP
00FC00
03FF80
0FFFC0
1FFFE0
39F0F0
71E078
61CE78
E9CF3C
F9FF3C
F9FF7C
F9FE7C
F9F0FC
F9FE7C
F9FF3C
F9FF3C
F9DF3C
79CF38
79CE78
39E0F0
1FFFE0
0FFFC0
07FF80
00FC00
ENDCHAR
STARTCHAR 24EE
ENCODING 9454
SWIDTH 1000 0
DWIDTH 24 0
BBX 22 23 1 -2
BITMAP
00FC00
03FF80
0FFFC0
1FFFE0
39FC70
71FC78
61F878
E9F87C
F9F27C
F9F27C
F9E67C
F9CE7C
F9CE7C
F99E7C
F9801C
F9801C
79FE78
79FE78
39FE70
1FFFE0
0FFFC0
07FF80
00FC00
ENDCHAR
STARTCHAR 24EF
ENCODING 9455
SWIDTH 1000 0
DWIDTH 24 0
BBX 22 23 1 -2
BITMAP
00FC00
03FF80
0FFFC0
1FFFE0
39C070
71C078
61CFF8
E9CFFC
F9CFFC
F9C8FC
F9C07C
F9CE3C
F9FF3C
F9FF3C
F9FF3C
F9CF3C
79CE38
79E078
39F0F0
1FFFE0
0FFFC0
07FF80
00FC00
ENDCHAR
STARTCHAR 24F0
ENCODING 9456
SWIDTH 1000 0
DWIDTH 24 0
BBX 22 23 1 -2
BITMAP
00FC00
03FF80
0FFFC0
1FFFE0
39F0F0
71E078
61E638
E9CF3C
F9CFFC
F9CFFC
F9D0FC
F9C67C
F9CF3C
F9CF3C
F9CF3C
F9CF3C
79CF38
79E678
39F0F0
1FFFE0
0FFFC0
07FF80
00FC00
ENDCHAR
STARTCHAR 24F1
ENCODING 9457
SWIDTH 1000 0
DWIDTH 24 0
BBX 22 23 1 -2
BITMAP
00FC00
03FF80
0FFFC0
1FFFE0
39C030
71C038
71FF78
F9FE7C
F9FE7C
F9FCFC
F9FCFC
F9FCFC
F9F9FC
F9F9FC
F9F9FC
F9F3FC
79F3F8
79F3F8
39F3F0
1FFFE0
0FFFC0
07FF80
00FC00
ENDCHAR
STARTCHAR 24F2
ENCODING 9458
SWIDTH 1000 0
DWIDTH 24 0
BBX 22 23 1 -2
BITMAP
00FC00
03FF80
0FFFC0
1FFFE0
39F0F0
71EE78
61CF38
F9DF3C
F9CF3C
F9CE7C
F9E0FC
F9E07C
F9CE3C
F99F3C
F99F3C
F99F3C
799F38
79CE78
39E0F0
1FFFE0
0FFFC0
07FF80
00FC00
ENDCHAR
STARTCHAR 24F3
ENCODING 9459
SWIDTH 1000 0
DWIDTH 24 0
BBX 22 23 1 -2
BITMAP
00FC00
03FF80
0FFFC0
1FFFE0
39F0F0
71E078
61C638
E9CF3C
F9CF3C
F9CF3C
F9CF3C
F9CE3C
F9E03C
F9F13C
F9FF3C
F9FF3C
79CF78
79CE78
39E1F0
1FFFE0
0FFFC0
07FF80
00FC00
ENDCHAR
STARTCHAR 24F4
ENCODING 9460
SWIDTH 1000 0
DWIDTH 24 0
BBX 22 23 1 -2
BITMAP
00FC00
03FF80
0FFFC0
1FFFE0
3C7C70
783838
7339B8
F7939C
F7B39C
FFB39C
FF339C
FE739C
FCF39C
FDF39C
F9F39C
F3F39C
73FBB8
701938
301C70
1FFFE0
0FFFC0
07FF80
00FC00
ENDCHAR
STARTCHAR 24F5
ENCODING 9461
SWIDTH 1000 0
DWIDTH 24 0
BBX 22 23 1 -2
BITMAP
00FC00
070300
0CFCC0
1B0320
240090
683050
50F028
B0F028
A03014
A03014
A03014
A03014
A03014
A03014
A03014
903024
503028
483048
243090
130330
08FC60
070380
00FE00
ENDCHAR
STARTCHAR 24F6
ENCODING 9462
SWIDTH 1000 0
DWIDTH 24 0
BBX 22 23 1 -2
BITMAP
00FC00
070300
0CFCC0
130320
247890
68FE58
51C628
B18224
A18214
A00614
A00E14
A01C14
A03014
A06014
A0C014
918024
51FF28
49FF48
240090
130320
08FCC0
070380
00FE00
ENDCHAR
STARTCHAR 24F7
ENCODING 9463
SWIDTH 1000 0
DWIDTH 24 0
BBX 22 22 1 -2
BITMAP
00FC00
070380
0CFCC0
130320
247890
48FC48
518628
A10614
A00614
A00614
A07C14
A07C14
A00614
A00314
A30314
518728
49FE48
247C90
130320
08FCC0
070380
00FE00
ENDCHAR
STARTCHAR 24F8
ENCODING 9464
SWIDTH 1000 0
DWIDTH 24 0
BBX 22 23 1 -2
BITMAP
00FC00
070300
0CFCC0
1B0360
2400B0
681850
501828
B03828
A06814
A0C814
A0C814
A18814
A30814
A60814
A7FF14
97FF24
900828
480848
240890
130330
08FC60
070380
00FE00
ENDCHAR
STARTCHAR 24F9
ENCODING 9465
SWIDTH 1000 0
DWIDTH 24 0
BBX 22 22 1 -2
BITMAP
00FC00
070380
0CFCC0
130320
240090
49FE48
51FE28
A18014
A18014
A1BC14
A1FE14
A18614
A00314
A00314
A18614
51FE28
487848
240090
130320
0CFCC0
070380
00FC00
ENDCHAR
STARTCHAR 24FA
ENCODING 9466
SWIDTH 1000 0
DWIDTH 24 0
BBX 22 23 1 -2
BITMAP
00FC00
070300
0CFCC0
130320
240090
487858
50FE28
B1C624
A18014
A10014
A17814
A1FE14
A18614
A18314
A10314
918624
50FE28
487848
240090
130320
0CFCC0
070380
00FC00
ENDCHAR
STARTCHAR 24FB
ENCODING 9467
SWIDTH 1000 0
DWIDTH 24 0
BBX 22 23 1 -2
BITMAP
00FC00
070300
0CFCC0
130320
240090
680050
51FF28
B1FF28
A00614
A00614
A00C14
A00C14
A01814
A01814
A01014
903024
503028
486048
246090
130320
08FCC0
070380
00FE00
ENDCHAR
STARTCHAR 24FC
ENCODING 9468
SWIDTH 1000 0
DWIDTH 24 0
BBX 22 22 1 -2
BITMAP
00FE00
070380
0CFCE0
130330
247890
49FE48
518628
A10214
A10214
A18614
A0F814
A1FE14
A38314
A30314
A30314
538728
49FE48
24F890
130320
08FCC0
070380
00FE00
ENDCHAR
STARTCHAR 24FD
ENCODING 9469
SWIDTH 1000 0
DWIDTH 24 0
BBX 22 22 1 -2
BITMAP
00FE00
070380
0CFCC0
130320
247890
48FC48
51C628
A18214
A18314
A18314
A18714
A0FF14
A07B14
A00314
A18614
51C628
48FC48
247890
130320
08FCC0
070380
00FE00
ENDCHAR
STARTCHAR 24FE
ENCODING 9470
SWIDTH 1000 0
DWIDTH 24 0
BBX 22 22 1 -2
BITMAP
00FC00
070380
0CFCC0
130320
240090
490E48
571F28
A53314
A13194
A13194
A13194
A13194
A13194
A13194
A13314
511F28
490E48
240090
130320
08FCC0
070380
00FE00
ENDCHAR
STARTCHAR 2500
ENCODING 9472
SWIDTH 1000 0
DWIDTH 24 0
BBX 24 1 0 9
BITMAP
FFFFFF
ENDCHAR
STARTCHAR 2501
ENCODING 9473
SWIDTH 1000 0
DWIDTH 24 0
BBX 24 3 0 8
BITMAP
FFFFFF
FFFFFF
FFFFFF
ENDCHAR
STARTCHAR 2502
ENCODING 9474
SWIDTH 1000 0
DWIDTH 24 0
BBX 1 24 11 -3
BITMAP
80
80
80
80
80
80
80
80
80
80
80
80
80
80
80
80
80
80
80
80
80
80
80
80
ENDCHAR
STARTCHAR 2503
ENCODING 9475
SWIDTH 1000 0
DWIDTH 24 0
BBX 2 24 11 -3
BITMAP
C0
C0
C0
C0
C0
C0
C0
C0
C0
C0
C0
C0
C0
C0
C0
C0
C0
C0
C0
C0
C0
C0
C0
C0
ENDCHAR
STARTCHAR 250C
ENCODING 9484
SWIDTH 1000 0
DWIDTH 24 0
BBX 12 13 12 -3
BITMAP
FFF0
8000
8000
8000
8000
8000
8000
8000
8000
8000
8000
8000
8000
ENDCHAR
STARTCHAR 250F
ENCODING 9487
SWIDTH 1000 0
DWIDTH 24 0
BBX 13 14 11 -3
BITMAP
FFF8
FFF8
FFF8
C000
C000
C000
C000
C000
C000
C000
C000
C000
C000
C000
ENDCHAR
STARTCHAR 2510
ENCODING 9488
SWIDTH 1000 0
DWIDTH 24 0
BBX 12 13 0 -3
BITMAP
FFF0
0010
0010
0010
0010
0010
0010
0010
0010
0010
0010
0010
0010
ENDCHAR
STARTCHAR 2513
ENCODING 9491
SWIDTH 1000 0
DWIDTH 24 0
BBX 13 14 0 -3
BITMAP
FFF8
FFF8
FFF8
0018
0018
0018
0018
0018
0018
0018
0018
0018
0018
0018
ENDCHAR
STARTCHAR 2514
ENCODING 9492
SWIDTH 1000 0
DWIDTH 24 0
BBX 12 12 12 9
BITMAP
8000
8000
8000
8000
8000
8000
8000
8000
8000
8000
8000
FFF0
ENDCHAR
STARTCHAR 2517
ENCODING 9495
SWIDTH 1000 0
DWIDTH 24 0
BBX 13 13 11 8
BITMAP
C000
C000
C000
C000
C000
C000
C000
C000
C000
C000
FFF8
FFF8
FFF8
ENDCHAR
STARTCHAR 2518
ENCODING 9496
SWIDTH 1000 0
DWIDTH 24 0
BBX 12 12 0 9
BITMAP
0010
0010
0010
0010
0010
0010
0010
0010
0010
0010
0010
FFF0
ENDCHAR
STARTCHAR 251B
ENCODING 9499
SWIDTH 1000 0
DWIDTH 24 0
BBX 13 13 0 8
BITMAP
0018
0018
0018
0018
0018
0018
0018
0018
0018
0018
FFF8
FFF8
FFF8
ENDCHAR
STARTCHAR 251C
ENCODING 9500
SWIDTH 1000 0
DWIDTH 24 0
BBX 12 24 12 -3
BITMAP
8000
8000
8000
8000
8000
8000
8000
8000
8000
8000
8000
FFF0
8000
8000
8000
8000
8000
8000
8000
8000
8000
8000
8000
8000
ENDCHAR
STARTCHAR 251D
ENCODING 9501
SWIDTH 1000 0
DWIDTH 24 0
BBX 12 24 12 -3
BITMAP
8000
8000
8000
8000
8000
8000
8000
8000
8000
8000
FFF0
FFF0
FFF0
8000
8000
8000
8000
8000
8000
8000
8000
8000
8000
8000
ENDCHAR
STARTCHAR 2520
ENCODING 9504
SWIDTH 1000 0
DWIDTH 24 0
BBX 13 24 11 -3
BITMAP
C000
C000
C000
C000
C000
C000
C000
C000
C000
C000
C000
FFF8
C000
C000
C000
C000
C000
C000
C000
C000
C000
C000
C000
C000
ENDCHAR
STARTCHAR 2523
ENCODING 9507
SWIDTH 1000 0
DWIDTH 24 0
BBX 13 24 11 -3
BITMAP
C000
C000
C000
C000
C000
C000
C000
C000
C000
C000
FFF8
FFF8
FFF8
C000
C000
C000
C000
C000
C000
C000
C000
C000
C000
C000
ENDCHAR
STARTCHAR 2524
ENCODING 9508
SWIDTH 1000 0
DWIDTH 24 0
BBX 12 24 0 -3
BITMAP
0010
0010
0010
0010
0010
0010
0010
0010
0010
0010
0010
FFF0
0010
0010
0010
0010
0010
0010
0010
0010
0010
0010
0010
0010
ENDCHAR
STARTCHAR 2525
ENCODING 9509
SWIDTH 1000 0
DWIDTH 24 0
BBX 12 24 0 -3
BITMAP
0010
0010
0010
0010
0010
0010
0010
0010
0010
0010
FFF0
FFF0
FFF0
0010
0010
0010
0010
0010
0010
0010
0010
0010
0010
0010
ENDCHAR
STARTCHAR 2528
ENCODING 9512
SWIDTH 1000 0
DWIDTH 24 0
BBX 13 24 0 -3
BITMAP
0018
0018
0018
0018
0018
0018
0018
0018
0018
0018
0018
FFF8
0018
0018
0018
0018
0018
0018
0018
0018
0018
0018
0018
0018
ENDCHAR
STARTCHAR 252B
ENCODING 9515
SWIDTH 1000 0
DWIDTH 24 0
BBX 13 24 0 -3
BITMAP
0018
0018
0018
0018
0018
0018
0018
0018
0018
0018
FFF8
FFF8
FFF8
0018
0018
0018
0018
0018
0018
0018
0018
0018
0018
0018
ENDCHAR
STARTCHAR 252C
ENCODING 9516
SWIDTH 1000 0
DWIDTH 24 0
BBX 24 13 0 -3
BITMAP
FFFFFF
001000
001000
001000
001000
001000
001000
001000
001000
001000
001000
001000
001000
ENDCHAR
STARTCHAR 252F
ENCODING 9519
SWIDTH 1000 0
DWIDTH 24 0
BBX 24 14 0 -3
BITMAP
FFFFFF
FFFFFF
FFFFFF
001000
001000
001000
001000
001000
001000
001000
001000
001000
001000
001000
ENDCHAR
STARTCHAR 2530
ENCODING 9520
SWIDTH 1000 0
DWIDTH 24 0
BBX 24 13 0 -3
BITMAP
FFFFFF
001800
001800
001800
001800
001800
001800
001800
001800
001800
001800
001800
001800
ENDCHAR
STARTCHAR 2533
ENCODING 9523
SWIDTH 1000 0
DWIDTH 24 0
BBX 24 14 0 -3
BITMAP
FFFFFF
FFFFFF
FFFFFF
001800
001800
001800
001800
001800
001800
001800
001800
001800
001800
001800
ENDCHAR
STARTCHAR 2534
ENCODING 9524
SWIDTH 1000 0
DWIDTH 24 0
BBX 24 12 0 9
BITMAP
001000
001000
001000
001000
001000
001000
001000
001000
001000
001000
001000
FFFFFF
ENDCHAR
STARTCHAR 2537
ENCODING 9527
SWIDTH 1000 0
DWIDTH 24 0
BBX 24 13 0 8
BITMAP
001000
001000
001000
001000
001000
001000
001000
001000
001000
001000
FFFFFF
FFFFFF
FFFFFF
ENDCHAR
STARTCHAR 2538
ENCODING 9528
SWIDTH 1000 0
DWIDTH 24 0
BBX 24 12 0 9
BITMAP
001800
001800
001800
001800
001800
001800
001800
001800
001800
001800
001800
FFFFFF
ENDCHAR
STARTCHAR 253B
ENCODING 9531
SWIDTH 1000 0
DWIDTH 24 0
BBX 24 13 0 8
BITMAP
001800
001800
001800
001800
001800
001800
001800
001800
001800
001800
FFFFFF
FFFFFF
FFFFFF
ENDCHAR
STARTCHAR 253C
ENCODING 9532
SWIDTH 1000 0
DWIDTH 24 0
BBX 24 24 0 -3
BITMAP
001000
001000
001000
001000
001000
001000
001000
001000
001000
001000
001000
FFFFFF
001000
001000
001000
001000
001000
001000
001000
001000
001000
001000
001000
001000
ENDCHAR
STARTCHAR 253F
ENCODING 9535
SWIDTH 1000 0
DWIDTH 24 0
BBX 24 24 0 -3
BITMAP
001000
001000
001000
001000
001000
001000
001000
001000
001000
001000
FFFFFF
FFFFFF
FFFFFF
001000
001000
001000
001000
001000
001000
001000
001000
001000
001000
001000
ENDCHAR
STARTCHAR 2542
ENCODING 9538
SWIDTH 1000 0
DWIDTH 24 0
BBX 24 24 0 -3
BITMAP
001800
001800
001800
001800
001800
001800
001800
001800
001800
001800
001800
FFFFFF
001800
001800
001800
001800
001800
001800
001800
001800
001800
001800
001800
001800
ENDCHAR
STARTCHAR 254B
ENCODING 9547
SWIDTH 1000 0
DWIDTH 24 0
BBX 24 24 0 -3
BITMAP
001800
001800
001800
001800
001800
001800
001800
001800
001800
001800
FFFFFF
FFFFFF
FFFFFF
001800
001800
001800
001800
001800
001800
001800
001800
001800
001800
001800
ENDCHAR
STARTCHAR 25A0
ENCODING 9632
SWIDTH 1000 0
DWIDTH 24 0
BBX 18 18 3 0
BITMAP
FFFFC0
FFFFC0
FFFFC0
FFFFC0
FFFFC0
FFFFC0
FFFFC0
FFFFC0
FFFFC0
FFFFC0
FFFFC0
FFFFC0
FFFFC0
FFFFC0
FFFFC0
FFFFC0
FFFFC0
FFFFC0
ENDCHAR
STARTCHAR 25A1
ENCODING 9633
SWIDTH 1000 0
DWIDTH 24 0
BBX 18 18 3 0
BITMAP
FFFFC0
FFFFC0
C000C0
C000C0
C000C0
C000C0
C000C0
C000C0
C000C0
C000C0
C000C0
C000C0
C000C0
C000C0
C000C0
C000C0
FFFFC0
FFFFC0
ENDCHAR
STARTCHAR 25B1
ENCODING 9649
SWIDTH 500 0
DWIDTH 12 0
BBX 10 5 1 7
BITMAP
3FC0
2080
6180
4100
FF00
ENDCHAR
STARTCHAR 25B2
ENCODING 9650
SWIDTH 1000 0
DWIDTH 24 0
BBX 18 18 3 1
BITMAP
00C000
00C000
01E000
01E000
03F000
03F000
07F800
07F800
0FFC00
0FFC00
1FFE00
1FFE00
3FFF00
3FFF00
7FFF80
7FFF80
FFFFC0
FFFFC0
ENDCHAR
STARTCHAR 25B3
ENCODING 9651
SWIDTH 1000 0
DWIDTH 24 0
BBX 18 18 3 1
BITMAP
00C000
00C000
01E000
01E000
033000
031000
061800
040800
0C0C00
080400
180600
100200
300300
200100
600180
400080
FFFFC0
FFFFC0
ENDCHAR
STARTCHAR 25B6
ENCODING 9654
SWIDTH 500 0
DWIDTH 12 0
BBX 9 12 2 3
BITMAP
C000
E000
F000
FC00
FE00
FF80
FF00
FE00
FC00
F000
E000
8000
ENDCHAR
STARTCHAR 25B7
ENCODING 9655
SWIDTH 500 0
DWIDTH 12 0
BBX 9 12 2 3
BITMAP
C000
E000
9000
8C00
8200
8180
8100
8600
8C00
B000
E000
8000
ENDCHAR
STARTCHAR 25BC
ENCODING 9660
SWIDTH 1000 0
DWIDTH 24 0
BBX 18 18 3 -1
BITMAP
FFFFC0
FFFFC0
7FFF80
7FFF80
3FFF00
3FFF00
1FFE00
1FFE00
0FFC00
0FFC00
07F800
07F800
03F000
03F000
01E000
01E000
00C000
00C000
ENDCHAR
STARTCHAR 25BD
ENCODING 9661
SWIDTH 1000 0
DWIDTH 24 0
BBX 18 18 3 -1
BITMAP
FFFFC0
FFFFC0
400080
600180
200100
300300
100200
180600
080400
0C0C00
040800
061800
023000
033000
01E000
01E000
00C000
00C000
ENDCHAR
STARTCHAR 25C0
ENCODING 9664
SWIDTH 500 0
DWIDTH 12 0
BBX 9 12 1 3
BITMAP
0180
0380
0780
1F80
3F80
FF80
7F80
3F80
1F80
0780
0380
0080
ENDCHAR
STARTCHAR 25C1
ENCODING 9665
SWIDTH 500 0
DWIDTH 12 0
BBX 9 12 1 3
BITMAP
0180
0380
0480
1880
3080
C080
4080
3080
1880
0680
0380
0080
ENDCHAR
STARTCHAR 25C6
ENCODING 9670
SWIDTH 1000 0
DWIDTH 24 0
BBX 20 20 2 -1
BITMAP
006000
00F000
01F800
03FC00
07FE00
0FFF00
1FFF80
3FFFC0
7FFFE0
FFFFF0
FFFFF0
7FFFE0
3FFFC0
1FFF80
0FFF00
07FE00
03FC00
01F800
00F000
006000
ENDCHAR
STARTCHAR 25C7
ENCODING 9671
SWIDTH 1000 0
DWIDTH 24 0
BBX 20 20 2 -1
BITMAP
006000
00F000
019800
030C00
060600
0C0300
180180
3000C0
600060
C00030
C00030
600060
3000C0
180180
0C0300
060600
030C00
019800
00F000
006000
ENDCHAR
STARTCHAR 25C9
ENCODING 9673
SWIDTH 500 0
DWIDTH 12 0
BBX 10 11 1 4
BITMAP
1E00
7180
C080
9E40
BE40
BF40
BF40
BE40
DEC0
6180
1E00
ENDCHAR
STARTCHAR 25CB
ENCODING 9675
SWIDTH 1000 0
DWIDTH 24 0
BBX 20 20 2 -1
BITMAP
01F800
07FE00
1E0780
3801C0
3000C0
600060
400020
C00030
C00030
C00030
C00030
C00030
C00030
400020
600060
3000C0
3801C0
1E0780
07FE00
01F800
ENDCHAR
STARTCHAR 25CE
ENCODING 9678
SWIDTH 1000 0
DWIDTH 24 0
BBX 20 20 2 -1
BITMAP
01F800
07FE00
1E0780
3801C0
30F0C0
63FC60
460E20
CC0330
C80330
C80130
C80130
CC0330
CC0330
470E20
63FC60
30F0C0
3801C0
1E0780
07FE00
01F800
ENDCHAR
STARTCHAR 25CF
ENCODING 9679
SWIDTH 1000 0
DWIDTH 24 0
BBX 20 20 2 -1
BITMAP
01F800
07FE00
1FFF80
3FFFC0
3FFFC0
7FFFE0
7FFFE0
FFFFF0
FFFFF0
FFFFF0
FFFFF0
FFFFF0
FFFFF0
7FFFE0
7FFFE0
3FFFC0
3FFFC0
1FFF80
07FE00
01F800
ENDCHAR
STARTCHAR 25D0
ENCODING 9680
SWIDTH 500 0
DWIDTH 12 0
BBX 10 11 1 4
BITMAP
1E00
7F80
F8C0
F840
F840
F840
F840
F840
F880
7980
1E00
ENDCHAR
STARTCHAR 25D1
ENCODING 9681
SWIDTH 500 0
DWIDTH 12 0
BBX 10 11 1 4
BITMAP
1E00
7F80
C7C0
87C0
87C0
87C0
87C0
87C0
C7C0
6780
1E00
ENDCHAR
STARTCHAR 25D2
ENCODING 9682
SWIDTH 500 0
DWIDTH 12 0
BBX 10 10 1 4
BITMAP
1E00
6180
C0C0
8040
8040
FFC0
FFC0
FFC0
7F80
1E00
ENDCHAR
STARTCHAR 25D3
ENCODING 9683
SWIDTH 500 0
DWIDTH 12 0
BBX 10 10 1 4
BITMAP
1E00
7F80
FFC0
FFC0
FFC0
8040
8040
C0C0
6180
1E00
ENDCHAR
STARTCHAR 25E6
ENCODING 9702
SWIDTH 500 0
DWIDTH 12 0
BBX 6 6 3 7
BITMAP
70
C8
84
84
CC
78
ENDCHAR
STARTCHAR 25EF
ENCODING 9711
SWIDTH 1000 0
DWIDTH 24 0
BBX 22 22 1 -2
BITMAP
01FC00
070380
1C00C0
300020
200010
600008
C00008
800004
800004
800004
800004
800004
800004
800004
800004
400008
400018
200010
100020
0C00C0
070380
00FC00
ENDCHAR
STARTCHAR 2600
ENCODING 9728
SWIDTH 1000 0
DWIDTH 24 0
BBX 22 22 1 -2
BITMAP
002000
002000
002000
102020
080040
047880
01FE00
03FF00
03FF00
07FF80
F7FFBC
07FF80
07FF80
03FF00
03FF00
01FE00
047880
080040
102020
002000
002000
002000
ENDCHAR
STARTCHAR 2601
ENCODING 9729
SWIDTH 1000 0
DWIDTH 24 0
BBX 20 17 2 -1
BITMAP
03E000
07F000
0FF800
0FFC00
0FFCE0
0FFDF0
0FFFF0
1FFFF0
7FFFF0
FFFFF0
FFFFE0
FFFFF0
FFFFF0
FFBFF0
7F1FF0
3C1FE0
0007C0
ENDCHAR
STARTCHAR 2602
ENCODING 9730
SWIDTH 1000 0
DWIDTH 24 0
BBX 22 22 1 -2
BITMAP
002000
002000
01FE00
07FF80
1FFFE0
3FFFF0
7FFFF8
7FFFF8
CE31CC
843084
842084
002000
002000
002000
002000
002000
002000
002000
002000
012000
012000
00E000
ENDCHAR
STARTCHAR 2603
ENCODING 9731
SWIDTH 1000 0
DWIDTH 24 0
BBX 22 22 1 -2
BITMAP
80621C
04050C
0C0880
001040
602020
61E058
061898
080780
08CC40
48CC40
C80040
04848C
06798C
880040
900020
203010
203010
200010
203010
203020
180060
07FF80
ENDCHAR
STARTCHAR 2605
ENCODING 9733
SWIDTH 1000 0
DWIDTH 24 0
BBX 20 20 2 0
BITMAP
006000
006000
006000
00F000
00F000
00F000
01F800
FFFFF0
7FFFE0
1FFF80
0FFF00
07FE00
03FE00
07FE00
07FE00
0F9F00
0F0F00
0E0700
180180
100080
ENDCHAR
STARTCHAR 2606
ENCODING 9734
SWIDTH 1000 0
DWIDTH 24 0
BBX 20 20 2 0
BITMAP
006000
006000
006000
00F000
009000
009000
019800
FF0FF0
7000E0
180180
0C0300
020400
060600
040200
04F200
0D9B00
0B0D00
0C0300
180180
100080
ENDCHAR
STARTCHAR 260E
ENCODING 9742
SWIDTH 1000 0
DWIDTH 24 0
BBX 22 18 1 0
BITMAP
1FFFE0
3FFFF0
7FFFF8
7986F8
F1863C
F1FE3C
03FF00
078780
070380
0E01C0
0E01C0
1E01E0
3E01F0
3E01F0
7F03F8
7F87F8
7FFFF8
7FFFF8
ENDCHAR
STARTCHAR 2616
ENCODING 9750
SWIDTH 1000 0
DWIDTH 24 0
BBX 18 19 3 1
BITMAP
01E000
073800
0E1C00
380700
600180
600180
400080
400080
400080
400080
C000C0
C000C0
C000C0
C000C0
C000C0
800040
800040
FFFFC0
FFFFC0
ENDCHAR
STARTCHAR 2617
ENCODING 9751
SWIDTH 1000 0
DWIDTH 24 0
BBX 18 19 3 0
BITMAP
00C000
03F000
0FFC00
1FFE00
7FFF80
7FFF80
7FFF80
7FFF80
7FFF80
7FFF80
FFFFC0
FFFFC0
FFFFC0
FFFFC0
FFFFC0
FFFFC0
FFFFC0
FFFFC0
FFFFC0
ENDCHAR
STARTCHAR 261E
ENCODING 9758
SWIDTH 1000 0
DWIDTH 24 0
BBX 20 10 2 4
BITMAP
71E7F0
9E1810
980C10
90FBE0
9F3C80
903300
905900
9C6600
9B2400
F0FC00
ENDCHAR
STARTCHAR 2640
ENCODING 9792
SWIDTH 1000 0
DWIDTH 24 0
BBX 14 21 5 -1
BITMAP
0780
1FE0
3870
3030
2010
2010
2010
3030
1860
0FC0
0300
0300
0300
FFFC
FFFC
0300
0300
0300
0300
0300
0300
ENDCHAR
STARTCHAR 2642
ENCODING 9794
SWIDTH 1000 0
DWIDTH 24 0
BBX 20 19 2 0
BITMAP
001FF0
001FF0
0000F0
0001F0
0003B0
000730
000E30
001C30
003830
0F7000
3FE000
70C000
606000
C02000
C02000
606000
70C000
3FC000
1F0000
ENDCHAR
STARTCHAR 2660
ENCODING 9824
SWIDTH 500 0
DWIDTH 12 0
BBX 10 13 1 3
BITMAP
0C00
1E00
3F00
7F80
7F80
FFC0
FFC0
FFC0
FFC0
7F80
0C00
1E00
1E00
ENDCHAR
STARTCHAR 2661
ENCODING 9825
SWIDTH 500 0
DWIDTH 12 0
BBX 10 12 1 2
BITMAP
7380
8C40
8C40
8040
8040
8040
C0C0
4080
6180
2100
1200
0C00
ENDCHAR
STARTCHAR 2662
ENCODING 9826
SWIDTH 500 0
DWIDTH 12 0
BBX 10 14 1 2
BITMAP
0C00
1E00
1200
2100
2100
4080
C0C0
C0C0
4080
2100
3300
1200
0C00
0C00
ENDCHAR
STARTCHAR 2663
ENCODING 9827
SWIDTH 500 0
DWIDTH 12 0
BBX 12 14 0 2
BITMAP
0E00
0F00
1F80
1F80
0F00
7FC0
7FE0
FFF0
FFF0
7FE0
7EE0
0600
0F00
0F00
ENDCHAR
STARTCHAR 2664
ENCODING 9828
SWIDTH 500 0
DWIDTH 12 0
BBX 10 14 1 2
BITMAP
0800
0C00
1200
2100
4080
4080
8040
8040
8040
9640
7380
1200
1200
1E00
ENDCHAR
STARTCHAR 2665
ENCODING 9829
SWIDTH 500 0
DWIDTH 12 0
BBX 10 13 1 2
BITMAP
7380
FFC0
FFC0
FFC0
FFC0
FFC0
FFC0
7F80
7F80
3F00
3F00
1E00
0C00
ENDCHAR
STARTCHAR 2666
ENCODING 9830
SWIDTH 500 0
DWIDTH 12 0
BBX 10 14 1 2
BITMAP
0C00
1E00
1E00
3F00
3F00
7F80
FFC0
FFC0
7F80
3F00
3F00
1E00
0C00
0C00
ENDCHAR
STARTCHAR 2667
ENCODING 9831
SWIDTH 500 0
DWIDTH 12 0
BBX 12 14 0 2
BITMAP
0F00
0900
1080
1080
0900
79E0
4020
C030
8030
4920
7AE0
0900
0900
0F00
ENDCHAR
STARTCHAR 2668
ENCODING 9832
SWIDTH 1000 0
DWIDTH 24 0
BBX 22 19 1 0
BITMAP
002000
006000
046200
046200
0C6200
0C6200
046300
063300
063180
031980
031980
3319B0
621998
C63108
C0310C
602018
3C00F0
1FFFE0
03FF00
ENDCHAR
STARTCHAR 2669
ENCODING 9833
SWIDTH 500 0
DWIDTH 12 0
BBX 4 13 3 3
BITMAP
10
10
10
10
10
10
10
10
10
10
F0
F0
E0
ENDCHAR
STARTCHAR 266A
ENCODING 9834
SWIDTH 1000 0
DWIDTH 24 0
BBX 15 20 5 -1
BITMAP
0200
0300
0380
02C0
0270
0238
021C
020E
0206
0206
0206
0206
0204
020C
0218
7A00
FE00
FE00
FC00
7800
ENDCHAR
STARTCHAR 266B
ENCODING 9835
SWIDTH 500 0
DWIDTH 12 0
BBX 10 14 1 2
BITMAP
00C0
0FC0
1FC0
1040
1040
1040
1040
1040
1040
1040
13C0
F3C0
E380
E000
ENDCHAR
STARTCHAR 266C
ENCODING 9836
SWIDTH 500 0
DWIDTH 12 0
BBX 10 14 1 2
BITMAP
00C0
0FC0
1E40
11C0
1FC0
1C40
1040
1040
1040
1040
11C0
F3C0
E380
E000
ENDCHAR
STARTCHAR 266D
ENCODING 9837
SWIDTH 1000 0
DWIDTH 24 0
BBX 10 20 8 -1
BITMAP
C000
C000
C000
C000
C000
C000
C000
C700
DF80
F1C0
E0C0
C0C0
C0C0
C180
C180
C300
C600
DC00
F000
C000
ENDCHAR
STARTCHAR 266E
ENCODING 9838
SWIDTH 500 0
DWIDTH 12 0
BBX 4 14 4 2
BITMAP
80
80
80
F0
F0
90
90
90
90
F0
D0
10
10
10
ENDCHAR
STARTCHAR 266F
ENCODING 9839
SWIDTH 1000 0
DWIDTH 24 0
BBX 14 20 5 -1
BITMAP
1860
1860
1860
1860
187C
1FFC
FF60
9860
1860
1860
1860
186C
1FFC
FFE0
F860
1860
1860
1860
1860
1800
ENDCHAR
STARTCHAR 2713
ENCODING 10003
SWIDTH 1000 0
DWIDTH 24 0
BBX 16 16 5 1
BITMAP
0001
0002
0004
000C
0008
0010
0020
0060
40C0
C180
6300
6700
3E00
3C00
3800
1000
ENDCHAR
STARTCHAR 2756
ENCODING 10070
SWIDTH 1000 0
DWIDTH 24 0
BBX 20 20 2 -1
BITMAP
006000
00F000
01F800
03FC00
03FC00
01F800
18F180
3C63C0
7E07E0
FF0FF0
FF0FF0
7E07E0
3C63C0
18F180
01F800
03FC00
03FC00
01F800
00F000
006000
ENDCHAR
STARTCHAR 2776
ENCODING 10102
SWIDTH 1000 0
DWIDTH 24 0
BBX 22 24 1 -3
BITMAP
00FC00
03FF00
0FFFC0
1FFFE0
3FCFF0
3F0FF0
7F0FF8
FFCFF8
FFCFFC
FFCFFC
FFCFFC
FFCFFC
FFCFFC
FFCFFC
FFCFFC
FFCFFC
FFCFF8
7FCFF8
7FCFF0
3FCFF0
1FFFE0
0FFFC0
03FF00
00FC00
ENDCHAR
STARTCHAR 2777
ENCODING 10103
SWIDTH 1000 0
DWIDTH 24 0
BBX 22 23 1 -2
BITMAP
00FC00
03FF80
0FFFC0
1FFFE0
3F83F0
3E39F8
7E7CF8
FCFCFC
FCFCFC
FFFCFC
FFF9FC
FFE1FC
FFC7FC
FF9FFC
FF3FFC
FE7FFC
7EFFF8
7C00F8
3C00F0
1FFFE0
0FFFC0
07FF80
00FC00
ENDCHAR
STARTCHAR 2778
ENCODING 10104
SWIDTH 1000 0
DWIDTH 24 0
BBX 22 23 1 -2
BITMAP
00FC00
03FF80
0FFFC0
1FFFE0
3F87F0
3E01F8
7C78F8
FCFCFC
FFFCFC
FFFCFC
FFF9FC
FF87FC
FFF9FC
FFFCFC
FFFEFC
F8FE7C
7CFCF8
7C78F8
3E01F0
1F83E0
0FFFC0
07FF80
00FC00
ENDCHAR
STARTCHAR 2779
ENCODING 10105
SWIDTH 1000 0
DWIDTH 24 0
BBX 22 24 1 -3
BITMAP
00FC00
03FF00
0FFFC0
1FFFE0
3FE3F0
3FE3F0
7FC3F8
FF93F8
FF93FC
FF33FC
FE73FC
FCF3FC
FCF3FC
F9F3FC
F8007C
F8007C
FFF3F8
7FF3F8
7FF3F0
3FF3F0
1FFFE0
0FFFC0
03FF00
00FC00
ENDCHAR
STARTCHAR 277A
ENCODING 10106
SWIDTH 1000 0
DWIDTH 24 0
BBX 22 23 1 -2
BITMAP
00FC00
03FF80
0FFFC0
1FFFE0
3E00F0
7E00F8
7E7FF8
FE7FFC
FE7FFC
FEC3FC
FE01FC
FE78FC
FCFCFC
FFFCFC
FFFCFC
FFFCFC
7CFCF8
7E78F8
3E01F0
1F87E0
0FFFC0
07FF80
00FC00
ENDCHAR
STARTCHAR 277B
ENCODING 10107
SWIDTH 1000 0
DWIDTH 24 0
BBX 22 22 1 -2
BITMAP
00FC00
07FF80
0FFFC0
1F87E0
3F01F0
7E38F8
7E7CF8
FCFFFC
FCFFFC
FC83FC
FC01FC
FC78FC
FCFCFC
FCFCFC
FCFCFC
7CFCF8
7E78F8
3F01F0
1F87E0
0FFFC0
07FF80
00FC00
ENDCHAR
STARTCHAR 277C
ENCODING 10108
SWIDTH 1000 0
DWIDTH 24 0
BBX 22 22 1 -2
BITMAP
01FC00
07FF80
1FFFC0
3FFFE0
3C00F0
7C00F8
FFFCF8
FFF9FC
FFF9FC
FFF3FC
FFF3FC
FFF3FC
FFE7FC
FFE7FC
FFCFFC
7FCFF8
7FCFF8
3F9FF0
1F9FE0
0FFFC0
07FF80
00FC00
ENDCHAR
STARTCHAR 277D
ENCODING 10109
SWIDTH 1000 0
DWIDTH 24 0
BBX 22 22 1 -2
BITMAP
01FC00
07FF80
1FFFC0
3F83E0
3E01F0
7C78F8
FCFCF8
FCFCFC
FCFCFC
FE79FC
FF03FC
FE79FC
FCFCFC
F9FEFC
F9FE7C
7CFCF8
7C78F8
3E01F0
1F03E0
0FFFC0
07FF80
00FC00
ENDCHAR
STARTCHAR 277E
ENCODING 10110
SWIDTH 1000 0
DWIDTH 24 0
BBX 22 23 1 -2
BITMAP
00FC00
07FF80
0FFFC0
1F87E0
3F01F0
7E39F8
7E7CF8
FCFCFC
FCFCFC
FCFCFC
FC7C7C
FE787C
FF02FC
FF84FC
FFFCFC
FCFCFC
7E79F8
7E39F8
3F87F0
1FFFE0
0FFFC0
07FF80
00FC00
ENDCHAR
STARTCHAR 277F
ENCODING 10111
SWIDTH 1000 0
DWIDTH 24 0
BBX 22 23 1 -2
BITMAP
00FC00
03FF80
0FFFC0
1FFFE0
39F0F0
71E678
61EF38
F9CF3C
F9CF3C
F9CF9C
F9CF9C
F9CF9C
F9CF9C
F9CFBC
F9CF3C
F9CF3C
79EF38
79E678
39F0F0
1FFFE0
0FFFC0
07FF80
00FC00
ENDCHAR
STARTCHAR 2934
ENCODING 10548
SWIDTH 500 0
DWIDTH 12 0
BBX 10 18 1 1
BITMAP
0600
0F00
1F80
36C0
2640
0600
0600
0600
0600
0600
0600
0600
0600
0600
0400
0C00
FC00
F000
ENDCHAR
STARTCHAR 2935
ENCODING 10549
SWIDTH 500 0
DWIDTH 12 0
BBX 10 18 1 -1
BITMAP
F000
FC00
0C00
0400
0600
0600
0600
0600
0600
0600
0600
0600
0600
2640
36C0
1F80
0F00
0600
ENDCHAR
STARTCHAR 29BF
ENCODING 10687
SWIDTH 1000 0
DWIDTH 24 0
BBX 20 20 2 -1
BITMAP
01F800
07FE00
1E0780
3801C0
3000C0
600060
40F020
C1F830
C1F830
C1F830
C1F830
C1F830
C0F030
400020
600060
3000C0
3801C0
1E0780
07FE00
01F800
ENDCHAR
STARTCHAR 29FA
ENCODING 10746
SWIDTH 500 0
DWIDTH 12 0
BBX 10 14 1 2
BITMAP
3300
3300
3300
3300
3300
3300
FFC0
FFC0
3300
3300
3300
3300
3300
3300
ENDCHAR
STARTCHAR 29FB
ENCODING 10747
SWIDTH 500 0
DWIDTH 12 0
BBX 10 14 1 2
BITMAP
6D80
6D80
6D80
6D80
6D80
6D80
FFC0
FFC0
6D80
6D80
6D80
6D80
6D80
6D80
ENDCHAR
STARTCHAR 3000
ENCODING 12288
SWIDTH 1000 0
DWIDTH 24 0
BBX 0 0 0 0
BITMAP
ENDCHAR
STARTCHAR 3001
ENCODING 12289
SWIDTH 1000 0
DWIDTH 24 0
BBX 5 5 1 -1
BITMAP
E0
70
30
38
18
ENDCHAR
STARTCHAR 3002
ENCODING 12290
SWIDTH 1000 0
DWIDTH 24 0
BBX 7 7 1 -2
BITMAP
38
4C
C4
86
C4
44
38
ENDCHAR
STARTCHAR 3003
ENCODING 12291
SWIDTH 1000 0
DWIDTH 24 0
BBX 11 10 6 4
BITMAP
0C60
18C0
18C0
18C0
3180
3180
2100
6300
6300
C600
ENDCHAR
STARTCHAR 3005
ENCODING 12293
SWIDTH 1000 0
DWIDTH 24 0
BBX 15 15 4 2
BITMAP
0200
0600
0600
0FFE
0FFE
1806
180C
3018
6018
E630
C3E0
01C0
00E0
0070
0030
ENDCHAR
STARTCHAR 3006
ENCODING 12294
SWIDTH 1000 0
DWIDTH 24 0
BBX 16 18 4 0
BITMAP
0001
0003
0006
000E
0C1C
1F38
33B0
31E0
60E0
61B0
6338
C718
CE00
DC00
9800
B000
E000
C000
ENDCHAR
STARTCHAR 3007
ENCODING 12295
SWIDTH 1000 0
DWIDTH 24 0
BBX 20 20 2 -1
BITMAP
01F800
07FE00
1E0780
3801C0
3000C0
600060
400060
C00030
C00030
C00030
C00030
C00030
C00030
600060
600060
3000C0
180180
0E0700
07FE00
01F800
ENDCHAR
STARTCHAR 3008
ENCODING 12296
SWIDTH 1000 0
DWIDTH 24 0
BBX 9 22 13 -2
BITMAP
0180
0180
0300
0600
0C00
0C00
1800
3000
3000
6000
C000
C000
6000
3000
3000
1800
0C00
0C00
0600
0300
0180
0180
ENDCHAR
STARTCHAR 3009
ENCODING 12297
SWIDTH 1000 0
DWIDTH 24 0
BBX 9 22 2 -2
BITMAP
C000
C000
6000
3000
1800
1800
0C00
0600
0600
0300
0180
0180
0300
0600
0600
0C00
1800
1800
3000
6000
C000
C000
ENDCHAR
STARTCHAR 300A
ENCODING 12298
SWIDTH 1000 0
DWIDTH 24 0
BBX 10 22 13 -2
BITMAP
06C0
0480
0D80
0900
1B00
3200
3600
6400
4C00
C800
9800
9800
C800
4C00
6400
2600
3200
1B00
0900
0D80
0480
06C0
ENDCHAR
STARTCHAR 300B
ENCODING 12299
SWIDTH 1000 0
DWIDTH 24 0
BBX 10 22 1 -2
BITMAP
D800
4800
6C00
2400
3600
1200
1900
0980
0C80
04C0
0640
0640
04C0
0C80
0980
1900
1300
3600
2400
6C00
4800
D800
ENDCHAR
STARTCHAR 300C
ENCODING 12300
SWIDTH 1000 0
DWIDTH 24 0
BBX 6 18 16 2
BITMAP
FC
FC
80
80
80
80
80
80
80
80
80
80
80
80
80
80
80
80
ENDCHAR
STARTCHAR 300D
ENCODING 12301
SWIDTH 1000 0
DWIDTH 24 0
BBX 7 18 2 -2
BITMAP
06
06
06
06
06
06
06
06
06
06
06
06
06
06
06
06
FE
FE
ENDCHAR
STARTCHAR 300E
ENCODING 12302
SWIDTH 1000 0
DWIDTH 24 0
BBX 9 18 14 2
BITMAP
FF80
FF80
8180
9F80
9F80
9000
9000
9000
9000
9000
9000
9000
9000
9000
9000
9000
F000
F000
ENDCHAR
STARTCHAR 300F
ENCODING 12303
SWIDTH 1000 0
DWIDTH 24 0
BBX 9 18 1 -2
BITMAP
0780
0780
0480
0480
0480
0480
0480
0480
0480
0480
0480
0480
0480
FC80
FC80
C080
FF80
FF80
ENDCHAR
STARTCHAR 3010
ENCODING 12304
SWIDTH 1000 0
DWIDTH 24 0
BBX 5 22 17 -2
BITMAP
F8
F0
E0
E0
C0
C0
C0
80
80
80
80
80
80
80
80
C0
C0
C0
E0
E0
F0
F8
ENDCHAR
STARTCHAR 3011
ENCODING 12305
SWIDTH 1000 0
DWIDTH 24 0
BBX 5 22 2 -2
BITMAP
F8
78
38
38
18
18
18
18
08
08
08
08
08
08
18
18
18
18
38
38
78
F8
ENDCHAR
STARTCHAR 3012
ENCODING 12306
SWIDTH 1000 0
DWIDTH 24 0
BBX 16 20 4 -2
BITMAP
FFFF
FFFF
0000
0000
0000
0000
FFFF
FFFF
0180
0180
0180
0180
0180
0180
0180
0180
0180
0180
0180
0180
ENDCHAR
STARTCHAR 3013
ENCODING 12307
SWIDTH 1000 0
DWIDTH 24 0
BBX 16 10 4 4
BITMAP
FFFF
FFFF
FFFF
0000
0000
0000
0000
FFFF
FFFF
FFFF
ENDCHAR
STARTCHAR 3014
ENCODING 12308
SWIDTH 1000 0
DWIDTH 24 0
BBX 6 21 16 -2
BITMAP
04
1C
F8
C0
C0
C0
C0
C0
C0
C0
C0
C0
C0
C0
C0
C0
C0
C0
E0
78
1C
ENDCHAR
STARTCHAR 3015
ENCODING 12309
SWIDTH 1000 0
DWIDTH 24 0
BBX 6 21 2 -2
BITMAP
80
E0
7C
0C
0C
0C
0C
0C
0C
0C
0C
0C
0C
0C
0C
0C
0C
0C
1C
78
E0
ENDCHAR
STARTCHAR 3016
ENCODING 12310
SWIDTH 1000 0
DWIDTH 24 0
BBX 8 22 14 -2
BITMAP
FF
C6
C6
CC
CC
C8
C8
D8
D8
D0
D0
D0
D0
D8
D8
C8
C8
CC
CC
C6
C6
FF
ENDCHAR
STARTCHAR 3017
ENCODING 12311
SWIDTH 1000 0
DWIDTH 24 0
BBX 8 22 2 -2
BITMAP
FF
43
63
23
33
13
13
1B
1B
0B
0B
0B
0B
1B
1B
13
13
33
23
63
63
FF
ENDCHAR
STARTCHAR 3018
ENCODING 12312
SWIDTH 1000 0
DWIDTH 24 0
BBX 9 22 14 -2
BITMAP
0180
0780
3980
E180
C380
CE00
C800
C800
C800
C800
C800
C800
C800
C800
C800
C800
CE00
C180
E180
1D80
0780
0080
ENDCHAR
STARTCHAR 3019
ENCODING 12313
SWIDTH 1000 0
DWIDTH 24 0
BBX 9 22 1 -2
BITMAP
C000
F800
CE00
C380
E180
3980
0980
0980
0980
0980
0980
0980
0980
0980
0980
0980
3980
C180
C380
DC00
F000
8000
ENDCHAR
STARTCHAR 301C
ENCODING 12316
SWIDTH 1000 0
DWIDTH 24 0
BBX 18 5 3 7
BITMAP
3E0000
FF8000
C1E0C0
807FC0
001F00
ENDCHAR
STARTCHAR 301D
ENCODING 12317
SWIDTH 1000 0
DWIDTH 24 0
BBX 7 10 16 10
BITMAP
40
E0
30
1C
06
E0
70
38
0C
04
ENDCHAR
STARTCHAR 301F
ENCODING 12319
SWIDTH 1000 0
DWIDTH 24 0
BBX 7 10 1 -2
BITMAP
C0
70
38
1E
04
E0
30
1C
0E
04
ENDCHAR
STARTCHAR 3020
ENCODING 12320
SWIDTH 1000 0
DWIDTH 24 0
BBX 22 15 1 1
BITMAP
3FFFF0
3FFFF0
000000
3FFFF0
3FFFF0
003000
EE31DC
8A3144
8A3144
463188
223110
210220
118620
0878C0
07FF00
ENDCHAR
STARTCHAR 3033
ENCODING 12339
SWIDTH 1000 0
DWIDTH 24 0
BBX 11 21 5 -3
BITMAP
0060
00E0
00C0
00C0
01C0
0180
0380
0300
0300
0700
0600
0E00
0C00
1C00
1800
3800
3000
7000
6000
6000
C000
ENDCHAR
STARTCHAR 3034
ENCODING 12340
SWIDTH 1000 0
DWIDTH 24 0
BBX 15 21 5 -3
BITMAP
0060
00E0
00C0
00C0
01C0
0180
0380
0300
0308
070C
0626
0E32
0C38
1C10
1800
3800
3000
7000
6000
6000
C000
ENDCHAR
STARTCHAR 3035
ENCODING 12341
SWIDTH 1000 0
DWIDTH 24 0
BBX 12 22 5 -1
BITMAP
C000
6000
6000
7000
3000
1800
1800
0C00
0C00
0600
0600
0300
0300
0380
0180
01C0
00C0
00E0
0060
0070
0070
0020
ENDCHAR
STARTCHAR 303B
ENCODING 12347
SWIDTH 1000 0
DWIDTH 24 0
BBX 8 16 8 1
BITMAP
40
60
70
1C
0E
3E
60
60
60
70
38
1C
0F
3F
F0
C0
ENDCHAR
STARTCHAR 303C
ENCODING 12348
SWIDTH 1000 0
DWIDTH 24 0
BBX 20 20 2 -1
BITMAP
FFFFF0
FFFFF0
C00070
C000F0
C001B0
C00330
C00630
C01C30
C03830
C07030
C0E030
C1C030
C30030
C60030
CC0030
D80030
F00030
E00030
FFFFF0
FFFFF0
ENDCHAR
STARTCHAR 303D
ENCODING 12349
SWIDTH 1000 0
DWIDTH 24 0
BBX 19 21 3 -2
BITMAP
700000
F9C000
9BE000
0F3000
0E3000
003000
001800
001800
001800
000C00
000C00
000C00
000600
000600
000600
000300
000300
000180
0001C0
0000E0
000040
ENDCHAR
STARTCHAR 3041
ENCODING 12353
SWIDTH 1000 0
DWIDTH 24 0
BBX 16 16 4 -1
BITMAP
0600
0600
07F0
7FC0
0440
0460
07FC
0CCE
34C6
2582
4703
4702
CE06
FE1C
74F8
0040
ENDCHAR
STARTCHAR 3042
ENCODING 12354
SWIDTH 1000 0
DWIDTH 24 0
BBX 18 20 3 -1
BITMAP
020000
060000
060C00
7FFC00
7FC000
060000
061800
067C00
07FF00
0E2180
3E60C0
76C0C0
66C0C0
C780C0
8700C0
8600C0
8E0180
FE0700
F03E00
003000
ENDCHAR
STARTCHAR 3043
ENCODING 12355
SWIDTH 1000 0
DWIDTH 24 0
BBX 15 13 5 0
BITMAP
8000
8060
8030
C018
C018
C00C
C00C
C006
4604
6600
6600
3C00
1800
ENDCHAR
STARTCHAR 3044
ENCODING 12356
SWIDTH 1000 0
DWIDTH 24 0
BBX 18 16 3 0
BITMAP
C00000
C00400
C00E00
C00600
C00300
C00300
C00180
C001C0
C000C0
6000C0
618040
618000
318000
330000
1F0000
0E0000
ENDCHAR
STARTCHAR 3045
ENCODING 12357
SWIDTH 1000 0
DWIDTH 24 0
BBX 11 16 6 0
BITMAP
1E00
0780
0180
0000
0F80
7FC0
F060
0060
0060
0060
0060
00C0
00C0
0380
0F00
1C00
ENDCHAR
STARTCHAR 3046
ENCODING 12358
SWIDTH 1000 0
DWIDTH 24 0
BBX 14 20 4 -1
BITMAP
0E00
07C0
01F0
0020
0000
03F0
1FF8
FE1C
700C
000C
000C
000C
000C
000C
0018
0038
0070
00E0
07C0
0700
ENDCHAR
STARTCHAR 3047
ENCODING 12359
SWIDTH 1000 0
DWIDTH 24 0
BBX 14 15 5 -1
BITMAP
0E00
0780
0180
0000
03C0
3FC0
2180
0300
0600
0780
0F80
1C80
30C0
60FC
C07C
ENDCHAR
STARTCHAR 3048
ENCODING 12360
SWIDTH 1000 0
DWIDTH 24 0
BBX 18 19 3 -1
BITMAP
060000
07C000
00F000
002000
000000
001000
3FF800
1F3000
006000
00C000
018000
038000
03E000
07F000
0E3000
1C3000
383000
603FC0
C01FC0
ENDCHAR
STARTCHAR 3049
ENCODING 12361
SWIDTH 1000 0
DWIDTH 24 0
BBX 15 15 5 0
BITMAP
0800
0800
0838
FF9C
FE0E
0804
0800
0FF0
1FF8
781C
C80C
880C
C80C
F838
79E0
ENDCHAR
STARTCHAR 304A
ENCODING 12362
SWIDTH 1000 0
DWIDTH 24 0
BBX 19 18 3 0
BITMAP
060000
060000
060600
06E700
7FE1C0
7E00E0
060040
060000
06FC00
07FF00
1E0380
360180
6600C0
C600C0
C60180
C60380
661F00
3C7C00
ENDCHAR
STARTCHAR 304B
ENCODING 12363
SWIDTH 1000 0
DWIDTH 24 0
BBX 19 19 3 0
BITMAP
020000
030000
030000
060200
060600
07C300
FFE180
EC31C0
0C30C0
0C3060
183060
183020
103000
303000
303000
603000
646000
C7E000
C3C000
ENDCHAR
STARTCHAR 304C
ENCODING 12364
SWIDTH 1000 0
DWIDTH 24 0
BBX 20 20 3 0
BITMAP
000040
020060
0303B0
030180
0600C0
060E00
07C700
FFE300
EC3180
0C31C0
0C30C0
183060
183040
103000
303000
303000
603000
646000
C7E000
C3C000
ENDCHAR
STARTCHAR 304D
ENCODING 12365
SWIDTH 1000 0
DWIDTH 24 0
BBX 16 20 4 -1
BITMAP
0600
0608
0338
0FF0
7F80
0183
00DF
03F8
FFE0
C030
0030
0018
00FC
203C
2000
2000
3000
3C00
1FF8
03F8
ENDCHAR
STARTCHAR 304E
ENCODING 12366
SWIDTH 1000 0
DWIDTH 24 0
BBX 19 21 4 -1
BITMAP
000080
0602C0
060B60
033980
0FF080
7F8000
018300
00DF00
03F800
FFE000
C03000
003000
001800
00FC00
203C00
200000
200000
300000
3C0000
1FF800
03F800
ENDCHAR
STARTCHAR 304F
ENCODING 12367
SWIDTH 1000 0
DWIDTH 24 0
BBX 11 20 6 -1
BITMAP
0080
01C0
0380
0300
0600
0C00
1800
7000
E000
C000
E000
7000
3800
1C00
0E00
0700
0380
01C0
00E0
0040
ENDCHAR
STARTCHAR 3050
ENCODING 12368
SWIDTH 1000 0
DWIDTH 24 0
BBX 16 20 6 -1
BITMAP
0080
01C0
038C
0316
0633
0C18
1808
7000
E000
C000
E000
7000
3800
1C00
0E00
0700
0380
01C0
00E0
0040
ENDCHAR
STARTCHAR 3051
ENCODING 12369
SWIDTH 1000 0
DWIDTH 24 0
BBX 18 19 3 -1
BITMAP
300600
200600
600600
600600
600640
63FFC0
63FF00
400600
C00600
C00600
C00600
C80600
580600
500600
700C00
601C00
603800
207000
00E000
ENDCHAR
STARTCHAR 3052
ENCODING 12370
SWIDTH 1000 0
DWIDTH 24 0
BBX 20 21 3 -1
BITMAP
000020
0001B0
300690
2006D0
600600
600600
600640
63FFC0
63FF00
400600
C00600
C00600
C00600
C80600
580600
500C00
700C00
601C00
603800
20F000
006000
ENDCHAR
STARTCHAR 3053
ENCODING 12371
SWIDTH 1000 0
DWIDTH 24 0
BBX 16 17 4 0
BITMAP
3FFC
3FFC
0070
01C0
0180
0000
0000
0000
0000
7000
6000
C000
C000
E000
7000
3FFF
07FE
ENDCHAR
STARTCHAR 3054
ENCODING 12372
SWIDTH 1000 0
DWIDTH 24 0
BBX 19 19 4 0
BITMAP
000080
0002C0
3FFB60
3FFDA0
007100
01C000
018000
000000
000000
000000
000000
700000
600000
C00000
C00000
E00000
700000
3FFF00
07FE00
ENDCHAR
STARTCHAR 3055
ENCODING 12373
SWIDTH 1000 0
DWIDTH 24 0
BBX 16 19 3 0
BITMAP
0100
0180
0181
00C7
00FE
FFF0
7E30
0030
0018
0018
004C
007E
201F
3006
3000
1800
1E00
0FF8
01F8
ENDCHAR
STARTCHAR 3056
ENCODING 12374
SWIDTH 1000 0
DWIDTH 24 0
BBX 20 20 3 0
BITMAP
000060
0101B0
0180D0
0180C0
00C700
00FE00
FFF000
7E3000
003000
001800
001800
004C00
007E00
201F00
300600
300000
180000
1E0000
0FF800
01F800
ENDCHAR
STARTCHAR 3057
ENCODING 12375
SWIDTH 1000 0
DWIDTH 24 0
BBX 13 19 7 -1
BITMAP
C000
C000
C000
C000
C000
C000
C000
C000
C000
C000
C000
C000
C008
C018
C038
C070
E1E0
7FC0
3F00
ENDCHAR
STARTCHAR 3058
ENCODING 12376
SWIDTH 1000 0
DWIDTH 24 0
BBX 14 19 7 -1
BITMAP
C030
C038
C1DC
C0C8
C060
C000
C000
C000
C000
C000
C000
C000
C008
C018
C038
C070
E1E0
7FC0
3F00
ENDCHAR
STARTCHAR 3059
ENCODING 12377
SWIDTH 1000 0
DWIDTH 24 0
BBX 20 20 2 -1
BITMAP
003000
003000
003000
0031F0
FFFFF0
003000
003000
01F000
03F000
063000
061800
061800
063800
03F800
01D800
003000
007000
00E000
03C000
038000
ENDCHAR
STARTCHAR 305A
ENCODING 12378
SWIDTH 1000 0
DWIDTH 24 0
BBX 20 21 2 -1
BITMAP
000060
003330
003190
003080
0031F0
FFFFF0
003000
003000
01F000
03F000
063000
061800
061800
063800
03F800
01D800
003000
007000
00E000
03C000
038000
ENDCHAR
STARTCHAR 305B
ENCODING 12379
SWIDTH 1000 0
DWIDTH 24 0
BBX 20 18 2 0
BITMAP
000600
0C0600
0C0600
0C0600
0C0600
0CFFF0
FFFFF0
0C0600
0C0600
0C0600
0C0600
0C3E00
0C3C00
0C0000
0C0000
0E0000
07FF80
03FF80
ENDCHAR
STARTCHAR 305C
ENCODING 12380
SWIDTH 1000 0
DWIDTH 24 0
BBX 21 19 2 0
BITMAP
000010
000610
0C06D8
0C0668
0C0660
0C0600
0CFFF0
FFFFF0
0C0600
0C0600
0C0600
0C0600
0C3E00
0C3C00
0C0000
0C0000
0E0000
07FF80
03FF80
ENDCHAR
STARTCHAR 305D
ENCODING 12381
SWIDTH 1000 0
DWIDTH 24 0
BBX 18 19 3 -1
BITMAP
00FC00
1FFC00
181800
007000
00E000
018000
031FC0
1FFF00
FE7000
80C000
018000
018000
030000
030000
030000
018000
01E000
007E00
001E00
ENDCHAR
STARTCHAR 305E
ENCODING 12382
SWIDTH 1000 0
DWIDTH 24 0
BBX 20 19 3 -1
BITMAP
00FC40
1FFD60
1819B0
0070C0
00E080
018000
031FC0
1FFF00
FE7000
80C000
018000
018000
030000
030000
030000
018000
01E000
007E00
001E00
ENDCHAR
STARTCHAR 305F
ENCODING 12383
SWIDTH 1000 0
DWIDTH 24 0
BBX 20 19 2 0
BITMAP
018000
030000
030000
031000
7FF000
7F8000
060000
0603C0
043FC0
0C3800
0C0000
080000
180000
180000
30C000
306000
707000
603FF0
E00FF0
ENDCHAR
STARTCHAR 3060
ENCODING 12384
SWIDTH 1000 0
DWIDTH 24 0
BBX 20 19 2 0
BITMAP
018040
030060
030330
031180
7FF0C0
7F8000
060000
0603C0
043FC0
0C3800
0C0000
080000
180000
180000
30C000
306000
707000
603FF0
E00FF0
ENDCHAR
STARTCHAR 3061
ENCODING 12385
SWIDTH 1000 0
DWIDTH 24 0
BBX 17 20 3 -1
BITMAP
020000
060000
060000
063C00
FFFC00
0C0000
0C0000
0C0000
0C0000
187E00
1BFF00
1F8380
3C0180
100080
000180
000180
000300
003E00
03F800
030000
ENDCHAR
STARTCHAR 3062
ENCODING 12386
SWIDTH 1000 0
DWIDTH 24 0
BBX 20 20 3 -1
BITMAP
020060
060160
0601B0
063C80
FFFCC0
0C0000
0C0000
0C0000
0C0000
187E00
1BFF00
1F8380
3C0180
100080
000180
000180
000300
003E00
03F800
030000
ENDCHAR
STARTCHAR 3063
ENCODING 12387
SWIDTH 1000 0
DWIDTH 24 0
BBX 15 11 4 1
BITMAP
07F0
FFFC
780E
0006
0006
0006
0006
000E
001C
07F0
07C0
ENDCHAR
STARTCHAR 3064
ENCODING 12388
SWIDTH 1000 0
DWIDTH 24 0
BBX 18 14 3 1
BITMAP
03FC00
FFFF00
FC0380
000180
0000C0
0000C0
0000C0
0000C0
000180
000380
000700
007E00
07F800
078000
ENDCHAR
STARTCHAR 3065
ENCODING 12389
SWIDTH 1000 0
DWIDTH 24 0
BBX 20 19 3 1
BITMAP
0000C0
000260
000330
000180
000080
03FC00
FFFF00
FC0380
000180
0000C0
0000C0
0000C0
0000C0
000180
000380
000700
007E00
07F800
078000
ENDCHAR
STARTCHAR 3066
ENCODING 12390
SWIDTH 1000 0
DWIDTH 24 0
BBX 19 17 2 0
BITMAP
000FE0
1FFFE0
FF1C00
403000
006000
00C000
018000
018000
018000
010000
010000
018000
018000
01C000
00E000
007F00
001F00
ENDCHAR
STARTCHAR 3067
ENCODING 12391
SWIDTH 1000 0
DWIDTH 24 0
BBX 20 17 2 0
BITMAP
000FE0
1FFFE0
FF1C00
403040
006060
00C330
0183A0
018180
018080
010000
010000
018000
018000
01C000
00E000
007F00
001F00
ENDCHAR
STARTCHAR 3068
ENCODING 12392
SWIDTH 1000 0
DWIDTH 24 0
BBX 15 19 4 0
BITMAP
0800
0C00
0C00
0C00
0400
0600
061E
03FC
03E0
0F00
1C00
3000
6000
4000
C000
E000
7000
3FFE
0FFE
ENDCHAR
STARTCHAR 3069
ENCODING 12393
SWIDTH 1000 0
DWIDTH 24 0
BBX 18 19 4 0
BITMAP
080180
0C04C0
0C06C0
0C0300
040200
060000
061E00
03FC00
03E000
0F0000
1C0000
300000
600000
400000
C00000
E00000
700000
3FFE00
0FFE00
ENDCHAR
STARTCHAR 306A
ENCODING 12394
SWIDTH 1000 0
DWIDTH 24 0
BBX 20 20 2 -1
BITMAP
030000
030000
030000
032100
7FE380
7E00C0
060070
0C0630
0C0600
180600
180600
300600
300600
607E00
E1FF00
0387C0
0306F0
038630
01FC00
007800
ENDCHAR
STARTCHAR 306B
ENCODING 12395
SWIDTH 1000 0
DWIDTH 24 0
BBX 18 18 3 0
BITMAP
300000
300000
607F80
60FF80
608000
600000
600000
400000
C00000
C00000
C00000
C98000
D98000
718000
70C000
60FFC0
603FC0
600000
ENDCHAR
STARTCHAR 306C
ENCODING 12396
SWIDTH 1000 0
DWIDTH 24 0
BBX 21 19 2 0
BITMAP
003000
003000
203000
603000
20FE00
33E780
3E61C0
1860C0
384060
68C060
6CC020
C58060
C78060
C31F60
C73FE0
CF20E0
FC31F8
703F90
001E00
ENDCHAR
STARTCHAR 306D
ENCODING 12397
SWIDTH 1000 0
DWIDTH 24 0
BBX 21 20 2 -1
BITMAP
040000
040000
040000
040000
0E0F00
FE7F80
EEF0C0
0DC0E0
0F0060
0E0060
0C0060
1C0060
3C0060
6C1E60
EC3FE0
C460E0
0461B8
043F90
041E00
040000
ENDCHAR
STARTCHAR 306E
ENCODING 12398
SWIDTH 1000 0
DWIDTH 24 0
BBX 20 17 2 0
BITMAP
01FC00
07EF00
0C61C0
1860C0
306060
606060
604030
40C030
C0C030
C0C030
C18060
C18060
6300E0
7701C0
3E0780
1C3E00
001800
ENDCHAR
STARTCHAR 306F
ENCODING 12399
SWIDTH 1000 0
DWIDTH 24 0
BBX 19 18 3 0
BITMAP
200C00
600C00
600C00
600C00
63FFC0
C3FF00
C00C00
C00C00
C00C00
C00C00
C00C00
D80C00
D0FC00
F3FF00
E307C0
E30CE0
E3FC00
60F800
ENDCHAR
STARTCHAR 3070
ENCODING 12400
SWIDTH 1000 0
DWIDTH 24 0
BBX 20 20 3 0
BITMAP
000060
000130
200D90
600CC0
600C00
600C00
63FFC0
C3FF00
C00C00
C00C00
C00C00
C00C00
C00C00
D80C00
D0FC00
F3FF00
E30FC0
E30CE0
E3FC00
60F800
ENDCHAR
STARTCHAR 3071
ENCODING 12401
SWIDTH 1000 0
DWIDTH 24 0
BBX 20 20 3 0
BITMAP
0000E0
000110
200D10
600D10
600CE0
600C00
63FFC0
C3FF00
C00C00
C00C00
C00C00
C00C00
C00C00
D80C00
D0FC00
F3FF00
E30FC0
E30CE0
E3FC00
60F800
ENDCHAR
STARTCHAR 3072
ENCODING 12402
SWIDTH 1000 0
DWIDTH 24 0
BBX 20 18 2 -1
BITMAP
008000
078600
3F8700
F30700
860380
0C02C0
0C02E0
180260
180230
300230
300200
300600
300600
300600
180C00
1C1C00
0FF800
03E000
ENDCHAR
STARTCHAR 3073
ENCODING 12403
SWIDTH 1000 0
DWIDTH 24 0
BBX 21 20 2 -1
BITMAP
000030
000090
0080D8
078660
3F8740
F30700
860380
0C02C0
0C02E0
180260
180230
300230
300200
300600
300600
300600
180C00
1C1C00
0FF800
03E000
ENDCHAR
STARTCHAR 3074
ENCODING 12404
SWIDTH 1000 0
DWIDTH 24 0
BBX 21 20 2 -1
BITMAP
000070
0000C8
008088
0786C8
3F8770
F30700
860380
0C02C0
0C02E0
180260
180230
300230
300200
300600
300600
300600
180C00
1C1C00
0FF800
03E000
ENDCHAR
STARTCHAR 3075
ENCODING 12405
SWIDTH 1000 0
DWIDTH 24 0
BBX 21 19 1 0
BITMAP
008000
01E000
007800
001C00
000000
000000
004000
006000
006080
0021C0
1C30C0
181860
180C70
300C30
700618
620618
C30C00
43FC00
00F800
ENDCHAR
STARTCHAR 3076
ENCODING 12406
SWIDTH 1000 0
DWIDTH 24 0
BBX 22 19 1 1
BITMAP
008030
01E098
0078CC
001C60
000040
000000
004000
006000
006080
0021C0
1C30C0
181860
180C70
300C30
700618
620618
C30C00
43FC00
00F800
ENDCHAR
STARTCHAR 3077
ENCODING 12407
SWIDTH 1000 0
DWIDTH 24 0
BBX 21 19 1 0
BITMAP
008060
01E090
007908
001D08
000090
000060
004000
006000
006080
0021C0
1C30C0
181860
180C70
300C30
700618
620618
C30C00
43FC00
00F800
ENDCHAR
STARTCHAR 3078
ENCODING 12408
SWIDTH 1000 0
DWIDTH 24 0
BBX 20 11 2 4
BITMAP
018000
03C000
06E000
0C7000
183800
301C00
600600
E00380
8001C0
0000F0
000030
ENDCHAR
STARTCHAR 3079
ENCODING 12409
SWIDTH 1000 0
DWIDTH 24 0
BBX 20 13 2 4
BITMAP
000180
0000C0
018660
03C340
06E100
0C7000
183800
301C00
600600
E00380
8001C0
0000F0
000030
ENDCHAR
STARTCHAR 307A
ENCODING 12410
SWIDTH 1000 0
DWIDTH 24 0
BBX 20 13 2 4
BITMAP
0001C0
000260
018220
03C260
06E1C0
0C7000
183800
301C00
600600
E00380
8001C0
0000F0
000030
ENDCHAR
STARTCHAR 307B
ENCODING 12411
SWIDTH 1000 0
DWIDTH 24 0
BBX 19 18 3 0
BITMAP
61FF80
63FF80
600C00
400C00
C00C00
C00CC0
C3FFC0
C3FC00
C00C00
C00C00
C00C00
D00C00
F1FC00
E3FF00
E30FC0
E30CE0
E3FC00
61FC00
ENDCHAR
STARTCHAR 307C
ENCODING 12412
SWIDTH 1000 0
DWIDTH 24 0
BBX 20 20 3 0
BITMAP
000060
0000B0
61FFD0
63FF40
600C40
400C00
C00C00
C00CC0
C7FFC0
C3FC00
C00C00
C00C00
C00C00
D00C00
F1FC00
E3FF00
E70FC0
E70CE0
E3FC00
61F800
ENDCHAR
STARTCHAR 307D
ENCODING 12413
SWIDTH 1000 0
DWIDTH 24 0
BBX 21 20 3 0
BITMAP
0000F0
000090
61FF08
63FE90
600CF0
400C00
C00C00
C00CC0
C7FFC0
C3FC00
C00C00
C00C00
C00C00
D00C00
F1FC00
E3FF00
E70FC0
E70CE0
E3FC00
61F800
ENDCHAR
STARTCHAR 307E
ENCODING 12414
SWIDTH 1000 0
DWIDTH 24 0
BBX 16 19 4 0
BITMAP
00C0
00C0
00C0
FFFF
FFFE
00C0
00C0
00C2
7FFE
7FE0
00C0
00C0
00C0
3FC0
7FF0
E0FC
E0CF
7FC3
1F80
ENDCHAR
STARTCHAR 307F
ENCODING 12415
SWIDTH 1000 0
DWIDTH 24 0
BBX 20 18 2 -1
BITMAP
1FF000
1FA000
006000
006000
006080
00C180
00C180
07F980
3FBF80
7187C0
6301E0
C30370
C60310
CC0600
7C0E00
301C00
003800
001000
ENDCHAR
STARTCHAR 3080
ENCODING 12416
SWIDTH 1000 0
DWIDTH 24 0
BBX 20 19 2 0
BITMAP
060000
060000
060000
FFE100
FFE180
0600C0
060060
060030
3E0030
640000
460000
C60380
C60180
CC0180
7C0180
7C0180
0C0380
0FFF00
07FE00
ENDCHAR
STARTCHAR 3081
ENCODING 12417
SWIDTH 1000 0
DWIDTH 24 0
BBX 20 19 2 0
BITMAP
001000
001800
001800
101000
18FE00
1BFF80
1E31C0
1C60E0
3C6060
6C4030
66C030
C6C030
C38070
C30060
C38060
CF80C0
7C0380
781F00
003C00
ENDCHAR
STARTCHAR 3082
ENCODING 12418
SWIDTH 1000 0
DWIDTH 24 0
BBX 16 20 4 -1
BITMAP
0600
0600
0600
0600
C670
FFF0
0C00
0C00
0C00
0C00
FFE0
3F06
0803
0803
0803
0803
0C06
0E0E
07FC
03F8
ENDCHAR
STARTCHAR 3083
ENCODING 12419
SWIDTH 1000 0
DWIDTH 24 0
BBX 16 16 4 -1
BITMAP
0380
11C0
30C0
187C
1BFE
0F83
7C03
EC03
060E
067C
0240
0300
0300
0100
0180
0180
ENDCHAR
STARTCHAR 3084
ENCODING 12420
SWIDTH 1000 0
DWIDTH 24 0
BBX 20 20 2 -1
BITMAP
00C000
007000
183800
181800
0C0F80
0C7FC0
07F060
0F0030
7E0030
E30030
030060
0107C0
019F80
018000
00C000
00C000
00C000
006000
006000
006000
ENDCHAR
STARTCHAR 3085
ENCODING 12421
SWIDTH 1000 0
DWIDTH 24 0
BBX 14 16 5 -1
BITMAP
0080
C080
C080
C7F0
8C98
988C
B0C4
E0C4
C084
CC8C
CE9C
83F8
C1F0
0300
0700
0600
ENDCHAR
STARTCHAR 3086
ENCODING 12422
SWIDTH 1000 0
DWIDTH 24 0
BBX 18 20 3 -1
BITMAP
003000
003000
603000
C03800
C1FF00
C33380
CE30C0
CC30C0
D830C0
F030C0
E030C0
E230C0
C331C0
C1F380
C0FF00
C06000
006000
00C000
01C000
018000
ENDCHAR
STARTCHAR 3087
ENCODING 12423
SWIDTH 1000 0
DWIDTH 24 0
BBX 13 15 5 0
BITMAP
0300
0300
0300
0310
03F0
0300
0300
0300
0300
3F00
7F80
C3E0
C338
7F18
3E00
ENDCHAR
STARTCHAR 3088
ENCODING 12424
SWIDTH 1000 0
DWIDTH 24 0
BBX 17 19 3 0
BITMAP
00C000
00C000
00C000
00C000
00C200
00FF00
00F800
00C000
00C000
00C000
00C000
00C000
1FC000
7FE000
60FC00
C0CF00
C0C380
61C100
3F8000
ENDCHAR
STARTCHAR 3089
ENCODING 12425
SWIDTH 1000 0
DWIDTH 24 0
BBX 15 20 5 -1
BITMAP
1C00
0F00
03C0
0080
6000
6000
6000
6000
6000
41F8
CFFC
DE0E
F806
E006
4006
0006
001C
0078
0FF0
0700
ENDCHAR
STARTCHAR 308A
ENCODING 12426
SWIDTH 1000 0
DWIDTH 24 0
BBX 13 19 5 -2
BITMAP
4018
6018
6018
C018
C018
C018
C018
C018
CC18
CC18
5818
7818
7038
0030
0030
0060
01E0
03C0
0700
ENDCHAR
STARTCHAR 308B
ENCODING 12427
SWIDTH 1000 0
DWIDTH 24 0
BBX 16 19 4 -1
BITMAP
00F0
3FF0
3870
00E0
01C0
0380
0700
0EF0
1FFC
3E0E
7003
E003
C003
0F03
1FC3
18C6
187E
1FF8
07E0
ENDCHAR
STARTCHAR 308C
ENCODING 12428
SWIDTH 1000 0
DWIDTH 24 0
BBX 21 20 2 -1
BITMAP
060000
060000
060000
040000
1E1E00
FF3F00
C6E300
05C300
070300
060300
0C0300
1C0300
3C0300
740300
640310
C40338
440370
0403E0
0401C0
040000
ENDCHAR
STARTCHAR 308D
ENCODING 12429
SWIDTH 1000 0
DWIDTH 24 0
BBX 17 19 4 -1
BITMAP
007000
7FF800
3C7000
00E000
00C000
018000
030000
06F800
0FFE00
1F0700
3C0300
700300
E00180
000300
000300
000600
003C00
0FF800
070000
ENDCHAR
STARTCHAR 308E
ENCODING 12430
SWIDTH 1000 0
DWIDTH 24 0
BBX 16 16 4 -1
BITMAP
0C00
0C00
0C00
3C00
FCF8
0B86
0E02
1C03
3803
3803
6803
C806
080E
087C
0870
0800
ENDCHAR
STARTCHAR 308F
ENCODING 12431
SWIDTH 1000 0
DWIDTH 24 0
BBX 20 20 2 -1
BITMAP
060000
060000
060000
060000
060000
FF1F00
667FC0
06E0E0
078060
070030
0E0030
1E0030
3E0030
760070
E60060
C600E0
0603C0
063F00
061C00
060000
ENDCHAR
STARTCHAR 3090
ENCODING 12432
SWIDTH 1000 0
DWIDTH 24 0
BBX 19 19 3 -1
BITMAP
00E000
1FF000
1C6000
006000
006000
007C00
07FF00
0EC780
3981C0
7180C0
6300C0
C30060
C60060
8678C0
8C7CC0
D8C6C0
F8C380
707F00
003E00
ENDCHAR
STARTCHAR 3091
ENCODING 12433
SWIDTH 1000 0
DWIDTH 24 0
BBX 20 19 2 -2
BITMAP
003C00
0FFC00
0C3800
006000
01FE00
03FF00
078380
1C0180
7BE180
262180
062300
06C600
03F800
060000
0C0F00
3F9FC0
7FF8E0
F0F070
C06030
ENDCHAR
STARTCHAR 3092
ENCODING 12434
SWIDTH 1000 0
DWIDTH 24 0
BBX 18 20 3 -1
BITMAP
018000
030000
030800
7FF800
7F8000
060000
0C0000
0BC000
1FE180
3C67C0
383E00
707000
E1F000
433000
063000
0C0000
0C0000
0E0000
07FF00
01FF80
ENDCHAR
STARTCHAR 3093
ENCODING 12435
SWIDTH 1000 0
DWIDTH 24 0
BBX 19 20 3 -1
BITMAP
008000
00C000
01C000
018000
038000
030000
060000
060000
0C0000
0DC000
1BE000
1E6000
3C2000
382040
703060
6030C0
6030C0
C03180
C03F00
001E00
ENDCHAR
STARTCHAR 3094
ENCODING 12436
SWIDTH 1000 0
DWIDTH 24 0
BBX 19 20 4 -1
BITMAP
0E0180
07C2C0
01F360
002300
000100
03F000
1FF800
FE1C00
700C00
000C00
000C00
000C00
000C00
000C00
001800
003800
007000
00E000
07C000
070000
ENDCHAR
STARTCHAR 3095
ENCODING 12437
SWIDTH 1000 0
DWIDTH 24 0
BBX 16 15 4 0
BITMAP
0600
0400
0C10
0C18
FF8C
EBC6
18C6
18C3
10C3
30C0
30C0
60C0
6880
CF80
0700
ENDCHAR
STARTCHAR 3096
ENCODING 12438
SWIDTH 1000 0
DWIDTH 24 0
BBX 15 16 5 -1
BITMAP
6030
6030
6030
4030
C03E
C7FC
C030
C030
C030
D030
F030
E020
E060
40C0
41C0
0100
ENDCHAR
STARTCHAR 3099
ENCODING 12441
SWIDTH 1000 0
DWIDTH 24 0
BBX 6 6 16 14
BITMAP
10
18
CC
64
30
20
ENDCHAR
STARTCHAR 309A
ENCODING 12442
SWIDTH 1000 0
DWIDTH 24 0
BBX 5 5 17 15
BITMAP
70
98
88
98
70
ENDCHAR
STARTCHAR 309B
ENCODING 12443
SWIDTH 1000 0
DWIDTH 24 0
BBX 6 5 1 14
BITMAP
10
38
DC
C8
60
ENDCHAR
STARTCHAR 309C
ENCODING 12444
SWIDTH 1000 0
DWIDTH 24 0
BBX 5 5 1 15
BITMAP
70
C8
88
C8
70
ENDCHAR
STARTCHAR 309D
ENCODING 12445
SWIDTH 1000 0
DWIDTH 24 0
BBX 10 12 7 2
BITMAP
C000
E000
7800
1C00
0E00
0300
0180
01C0
01C0
0380
1F00
3C00
ENDCHAR
STARTCHAR 309E
ENCODING 12446
SWIDTH 1000 0
DWIDTH 24 0
BBX 12 15 7 2
BITMAP
0040
00E0
0130
C380
E1C0
7880
1C00
0E00
0300
0180
01C0
01C0
0380
1F00
3C00
ENDCHAR
STARTCHAR 309F
ENCODING 12447
SWIDTH 1000 0
DWIDTH 24 0
BBX 13 22 6 -2
BITMAP
0400
0600
0C00
0C00
0FF8
0FF8
1800
1800
3000
3780
7FC0
78E0
E060
C030
0030
0020
0060
4060
60C0
71C0
3F80
1E00
ENDCHAR
STARTCHAR 30A0
ENCODING 12448
SWIDTH 1000 0
DWIDTH 24 0
BBX 10 6 7 6
BITMAP
FFC0
FFC0
0000
0000
FFC0
FFC0
ENDCHAR
STARTCHAR 30A1
ENCODING 12449
SWIDTH 1000 0
DWIDTH 24 0
BBX 14 13 5 -1
BITMAP
FFFC
FC0C
0018
0618
0630
0660
06C0
0600
0600
0C00
1C00
3800
7000
ENDCHAR
STARTCHAR 30A2
ENCODING 12450
SWIDTH 1000 0
DWIDTH 24 0
BBX 18 17 3 0
BITMAP
FFFFC0
F000C0
0001C0
018380
018300
018600
019C00
019800
018000
018000
018000
030000
030000
060000
1E0000
3C0000
300000
ENDCHAR
STARTCHAR 30A3
ENCODING 12451
SWIDTH 1000 0
DWIDTH 24 0
BBX 12 16 5 -1
BITMAP
0020
0030
0060
00C0
0180
0700
0F00
3F00
F300
C300
0300
0300
0300
0300
0300
0300
ENDCHAR
STARTCHAR 30A4
ENCODING 12452
SWIDTH 1000 0
DWIDTH 24 0
BBX 15 19 3 -1
BITMAP
0006
000E
001C
0038
0070
00E0
01E0
0760
0E60
3860
F060
4060
0060
0060
0060
0060
0060
0060
0060
ENDCHAR
STARTCHAR 30A5
ENCODING 12453
SWIDTH 1000 0
DWIDTH 24 0
BBX 12 16 6 -1
BITMAP
0600
0600
0600
FFF0
FFF0
8030
8030
8030
8030
0060
00E0
00C0
0180
0700
1E00
0800
ENDCHAR
STARTCHAR 30A6
ENCODING 12454
SWIDTH 1000 0
DWIDTH 24 0
BBX 16 19 4 -1
BITMAP
0180
0180
0180
0180
FFFE
FFFF
C003
C007
C006
C006
C006
000C
000C
0018
0038
0070
01E0
07C0
0F00
ENDCHAR
STARTCHAR 30A7
ENCODING 12455
SWIDTH 1000 0
DWIDTH 24 0
BBX 16 10 4 2
BITMAP
3FFC
3FFC
0180
0180
0180
0180
0180
0180
FFFF
FFFF
ENDCHAR
STARTCHAR 30A8
ENCODING 12456
SWIDTH 1000 0
DWIDTH 24 0
BBX 20 13 2 2
BITMAP
3FFFC0
3FFFC0
006000
006000
006000
006000
006000
006000
006000
006000
006000
FFFFF0
FFFFF0
ENDCHAR
STARTCHAR 30A9
ENCODING 12457
SWIDTH 1000 0
DWIDTH 24 0
BBX 15 15 4 0
BITMAP
0060
0060
0060
0060
7FFE
7FFE
00E0
01E0
0360
0660
0C60
3860
F060
43E0
03E0
ENDCHAR
STARTCHAR 30AA
ENCODING 12458
SWIDTH 1000 0
DWIDTH 24 0
BBX 19 19 2 0
BITMAP
001800
001800
001800
001800
001800
7FFFE0
7FFFE0
003800
007800
00D800
00D800
019800
031800
0E1800
1C1800
781800
E01800
01F800
01F800
ENDCHAR
STARTCHAR 30AB
ENCODING 12459
SWIDTH 1000 0
DWIDTH 24 0
BBX 17 19 3 0
BITMAP
018000
018000
018000
018000
018000
FFFF80
FFFF80
018180
018180
018180
030180
030180
030100
060300
0E0300
1C0300
384300
707F00
E03E00
ENDCHAR
STARTCHAR 30AC
ENCODING 12460
SWIDTH 1000 0
DWIDTH 24 0
BBX 20 20 3 0
BITMAP
000040
018160
018330
018180
0180C0
018000
FFFF80
FFFF80
018180
018180
018180
030180
030180
030100
060300
0E0300
1C0300
384300
707F00
E03E00
ENDCHAR
STARTCHAR 30AD
ENCODING 12461
SWIDTH 1000 0
DWIDTH 24 0
BBX 18 20 3 -1
BITMAP
030000
030000
010000
018000
01BF00
1FFC00
7F8000
408000
00C000
00C0C0
00FFC0
1FFC00
FF4000
C06000
006000
006000
006000
002000
003000
003000
ENDCHAR
STARTCHAR 30AE
ENCODING 12462
SWIDTH 1000 0
DWIDTH 24 0
BBX 20 21 3 -1
BITMAP
0000C0
030160
030130
010180
018080
01BF00
1FFC00
7F8000
408000
00C000
00C0C0
00FFC0
1FFC00
FF4000
C06000
006000
006000
006000
002000
003000
003000
ENDCHAR
STARTCHAR 30AF
ENCODING 12463
SWIDTH 1000 0
DWIDTH 24 0
BBX 15 20 4 -1
BITMAP
0300
0300
0700
07FE
0FFE
0C06
1C06
3806
700C
E00C
C018
0018
0030
0060
00E0
01C0
0380
0F00
3C00
1000
ENDCHAR
STARTCHAR 30B0
ENCODING 12464
SWIDTH 1000 0
DWIDTH 24 0
BBX 19 21 4 -1
BITMAP
0000C0
030360
030360
070180
07FE00
0FFE00
0C0600
1C0600
380600
700C00
E00C00
C01800
001800
003000
006000
00E000
01C000
038000
0F0000
3C0000
100000
ENDCHAR
STARTCHAR 30B1
ENCODING 12465
SWIDTH 1000 0
DWIDTH 24 0
BBX 18 20 3 -1
BITMAP
040000
060000
060000
0C0000
0C0000
0FFFC0
1FFFC0
181800
301800
701800
E01800
C03000
003000
003000
006000
00E000
01C000
038000
0F0000
060000
ENDCHAR
STARTCHAR 30B2
ENCODING 12466
SWIDTH 1000 0
DWIDTH 24 0
BBX 19 21 3 -1
BITMAP
000040
0400E0
060360
0601A0
0C0080
0C0000
0FFFC0
1FFFC0
181800
301800
701800
E01800
C03000
003000
003000
006000
00E000
01C000
038000
0F0000
060000
ENDCHAR
STARTCHAR 30B3
ENCODING 12467
SWIDTH 1000 0
DWIDTH 24 0
BBX 15 16 4 0
BITMAP
FFFE
FFFE
0006
0006
0006
0006
0006
0006
0006
0006
0006
0006
FFFE
FFFE
0006
0006
ENDCHAR
STARTCHAR 30B4
ENCODING 12468
SWIDTH 1000 0
DWIDTH 24 0
BBX 19 20 4 1
BITMAP
0000C0
000360
0001A0
000180
FFFE00
FFFE00
000600
000600
000600
000600
000600
000600
000600
000600
000600
000600
FFFE00
FFFE00
000600
000600
ENDCHAR
STARTCHAR 30B5
ENCODING 12469
SWIDTH 1000 0
DWIDTH 24 0
BBX 20 19 2 -1
BITMAP
060600
060600
060600
060600
060600
FFFFF0
FFFFF0
060600
060600
060600
060600
060400
000C00
000C00
001800
003800
007000
01E000
018000
ENDCHAR
STARTCHAR 30B6
ENCODING 12470
SWIDTH 1000 0
DWIDTH 24 0
BBX 21 20 2 -1
BITMAP
000030
060698
0606D8
060660
060600
060600
FFFFF0
FFFFF0
060600
060600
060600
060600
060400
000C00
000C00
001800
003800
007000
01E000
018000
ENDCHAR
STARTCHAR 30B7
ENCODING 12471
SWIDTH 1000 0
DWIDTH 24 0
BBX 18 18 3 0
BITMAP
080000
1C0000
0F0000
030000
010000
C00080
F000C0
380180
180380
000700
000E00
001C00
003800
00F000
03E000
0F8000
7E0000
300000
ENDCHAR
STARTCHAR 30B8
ENCODING 12472
SWIDTH 1000 0
DWIDTH 24 0
BBX 19 20 3 0
BITMAP
000080
0000C0
080660
1C0320
0F0180
030100
010000
C00080
F000C0
380180
180380
000700
000E00
001C00
003800
00F000
03E000
0F8000
7E0000
300000
ENDCHAR
STARTCHAR 30B9
ENCODING 12473
SWIDTH 1000 0
DWIDTH 24 0
BBX 19 17 2 0
BITMAP
1FFE00
1FFF00
000600
000600
000C00
000C00
001800
003800
003000
007000
00DC00
01CE00
038700
0E0380
1C01C0
F800E0
600040
ENDCHAR
STARTCHAR 30BA
ENCODING 12474
SWIDTH 1000 0
DWIDTH 24 0
BBX 21 20 2 0
BITMAP
000020
0000B0
0001D8
1FFED0
1FFF40
000600
000600
000C00
000C00
001800
003800
003000
007000
00DC00
01CE00
038700
0E0380
1C01C0
F800E0
600040
ENDCHAR
STARTCHAR 30BB
ENCODING 12475
SWIDTH 1000 0
DWIDTH 24 0
BBX 19 18 2 0
BITMAP
030000
030000
030000
030000
0300C0
03FFE0
FFF8C0
FB0180
030380
030700
030E00
030C00
030000
030000
030000
030000
03FFC0
01FFC0
ENDCHAR
STARTCHAR 30BC
ENCODING 12476
SWIDTH 1000 0
DWIDTH 24 0
BBX 20 20 2 0
BITMAP
000020
000030
0301B0
0300D0
0300C0
030000
0300C0
03FFE0
FFF8C0
FB0180
030380
030700
030E00
030C00
030000
030000
030000
030000
03FFC0
01FFC0
ENDCHAR
STARTCHAR 30BD
ENCODING 12477
SWIDTH 1000 0
DWIDTH 24 0
BBX 16 17 4 -1
BITMAP
4003
E003
6007
7006
3006
3806
180C
000C
0018
0038
0030
0070
00E0
01C0
0780
1E00
1C00
ENDCHAR
STARTCHAR 30BE
ENCODING 12478
SWIDTH 1000 0
DWIDTH 24 0
BBX 19 20 4 0
BITMAP
0002C0
000360
000120
400100
E00300
600700
700600
300600
380E00
180C00
000C00
001800
003800
003000
007000
00E000
01C000
078000
1E0000
1C0000
ENDCHAR
STARTCHAR 30BF
ENCODING 12479
SWIDTH 1000 0
DWIDTH 24 0
BBX 15 20 4 -1
BITMAP
0200
0300
0600
07FE
0FFE
0C06
1806
1C06
3E0C
670C
C198
80D8
0070
0060
00E0
01C0
0380
0F00
3C00
3800
ENDCHAR
STARTCHAR 30C0
ENCODING 12480
SWIDTH 1000 0
DWIDTH 24 0
BBX 19 21 4 -1
BITMAP
0000C0
020360
030320
060180
07FE00
0FFE00
0C0600
180600
1C0600
3E0C00
670C00
C19800
80D800
007000
006000
00E000
01C000
038000
0F0000
3C0000
380000
ENDCHAR
STARTCHAR 30C1
ENCODING 12481
SWIDTH 1000 0
DWIDTH 24 0
BBX 20 19 2 -1
BITMAP
000700
00FF00
1FF000
0C3000
003000
003000
003000
FFFFF0
FFFFF0
006000
006000
006000
006000
00E000
00C000
01C000
078000
1E0000
0C0000
ENDCHAR
STARTCHAR 30C2
ENCODING 12482
SWIDTH 1000 0
DWIDTH 24 0
BBX 21 20 2 -1
BITMAP
000030
0006D0
00FFD8
1FF060
0C3040
003000
003000
003000
FFFFF0
FFFFF0
006000
006000
006000
006000
00E000
00C000
01C000
078000
1E0000
0C0000
ENDCHAR
STARTCHAR 30C3
ENCODING 12483
SWIDTH 1000 0
DWIDTH 24 0
BBX 14 14 5 0
BITMAP
0400
460C
C618
E318
6318
6038
0030
0070
0060
00C0
0180
0700
1E00
1800
ENDCHAR
STARTCHAR 30C4
ENCODING 12484
SWIDTH 1000 0
DWIDTH 24 0
BBX 17 18 3 -1
BITMAP
010000
030180
C38180
E18180
618380
71C300
308300
300300
000600
000600
000E00
001C00
001800
003800
00F000
01E000
078000
0F0000
ENDCHAR
STARTCHAR 30C5
ENCODING 12485
SWIDTH 1000 0
DWIDTH 24 0
BBX 20 21 3 -1
BITMAP
000020
000160
0001B0
010090
030000
C38180
E18180
618380
71C300
308300
300300
000600
000600
000E00
001C00
001800
003800
00F000
01C000
078000
0F0000
ENDCHAR
STARTCHAR 30C6
ENCODING 12486
SWIDTH 1000 0
DWIDTH 24 0
BBX 20 18 2 -1
BITMAP
1FFF80
1FFF80
000000
000000
000000
FFFFF0
FFFFF0
006000
006000
006000
006000
006000
00C000
01C000
038000
070000
1E0000
080000
ENDCHAR
STARTCHAR 30C7
ENCODING 12487
SWIDTH 1000 0
DWIDTH 24 0
BBX 21 21 2 -1
BITMAP
000030
000018
0000D8
1FFF68
1FFF60
000000
000000
000000
FFFFF0
FFFFF0
006000
006000
006000
006000
006000
00C000
01C000
038000
070000
1E0000
080000
ENDCHAR
STARTCHAR 30C8
ENCODING 12488
SWIDTH 1000 0
DWIDTH 24 0
BBX 10 20 9 -1
BITMAP
C000
C000
C000
C000
C000
C000
C000
E000
F800
DC00
CF00
C3C0
C1C0
C040
C000
C000
C000
C000
C000
C000
ENDCHAR
STARTCHAR 30C9
ENCODING 12489
SWIDTH 1000 0
DWIDTH 24 0
BBX 12 20 9 -1
BITMAP
C000
C060
C130
C1B0
C0C0
C080
C000
E000
F800
DC00
CF00
C3C0
C1C0
C040
C000
C000
C000
C000
C000
C000
ENDCHAR
STARTCHAR 30CA
ENCODING 12490
SWIDTH 1000 0
DWIDTH 24 0
BBX 18 20 3 -1
BITMAP
006000
006000
006000
006000
006000
006000
FFFFC0
FFFFC0
006000
006000
00C000
00C000
00C000
00C000
018000
038000
030000
0E0000
1C0000
080000
ENDCHAR
STARTCHAR 30CB
ENCODING 12491
SWIDTH 1000 0
DWIDTH 24 0
BBX 20 12 2 3
BITMAP
1FFF80
1FFF80
000000
000000
000000
000000
000000
000000
000000
000000
FFFFF0
FFFFF0
ENDCHAR
STARTCHAR 30CC
ENCODING 12492
SWIDTH 1000 0
DWIDTH 24 0
BBX 15 18 4 -1
BITMAP
7FFC
7FFE
000C
000C
001C
0818
1E18
0730
03F0
01E0
00E0
01B8
031C
0E0E
1C06
7800
E000
4000
ENDCHAR
STARTCHAR 30CD
ENCODING 12493
SWIDTH 1000 0
DWIDTH 24 0
BBX 18 21 3 -1
BITMAP
020000
078000
01C000
00E000
000000
3FFE00
3FFF00
000E00
001C00
003800
006000
01CC00
07CE00
1EC780
F8C1C0
E0C0C0
00C000
00C000
00C000
00C000
00C000
ENDCHAR
STARTCHAR 30CE
ENCODING 12494
SWIDTH 1000 0
DWIDTH 24 0
BBX 13 16 5 0
BITMAP
0018
0018
0038
0030
0030
0060
0060
00E0
00C0
0180
0380
0700
0E00
1C00
7800
E000
ENDCHAR
STARTCHAR 30CF
ENCODING 12495
SWIDTH 1000 0
DWIDTH 24 0
BBX 21 13 1 2
BITMAP
020200
030600
030300
060380
060180
0E00C0
0C00E0
1C0060
180070
380030
700038
E00018
200000
ENDCHAR
STARTCHAR 30D0
ENCODING 12496
SWIDTH 1000 0
DWIDTH 24 0
BBX 22 17 1 2
BITMAP
000030
000098
0000CC
000060
020260
030600
030300
060380
060180
0E00C0
0C00E0
1C0060
180070
380030
700038
E00018
200000
ENDCHAR
STARTCHAR 30D1
ENCODING 12497
SWIDTH 1000 0
DWIDTH 24 0
BBX 21 18 1 2
BITMAP
000070
0000C8
000088
000088
0000C8
020270
030600
030300
060380
060180
0E00C0
0C00E0
1C0060
180070
380030
700038
E00018
200000
ENDCHAR
STARTCHAR 30D2
ENCODING 12498
SWIDTH 1000 0
DWIDTH 24 0
BBX 15 18 5 0
BITMAP
C000
C000
C000
C000
C01C
C078
C3E0
FF00
F800
C000
C000
C000
C000
C000
C000
E006
7FFE
3FF8
ENDCHAR
STARTCHAR 30D3
ENCODING 12499
SWIDTH 1000 0
DWIDTH 24 0
BBX 18 19 5 0
BITMAP
000180
C00D80
C006C0
C00300
C00200
C01C00
C07800
C3E000
FF0000
F80000
C00000
C00000
C00000
C00000
C00000
C00000
E00600
7FFE00
3FF800
ENDCHAR
STARTCHAR 30D4
ENCODING 12500
SWIDTH 1000 0
DWIDTH 24 0
BBX 18 20 5 0
BITMAP
000380
000440
C00440
C00440
C004C0
C00380
C01C00
C07800
C3E000
FF0000
F80000
C00000
C00000
C00000
C00000
C00000
C00000
E00600
7FFE00
3FF800
ENDCHAR
STARTCHAR 30D5
ENCODING 12501
SWIDTH 1000 0
DWIDTH 24 0
BBX 16 16 4 0
BITMAP
FFFE
FFFF
0006
0006
0006
000E
000C
000C
0018
0038
0070
00E0
01C0
0780
1E00
3800
ENDCHAR
STARTCHAR 30D6
ENCODING 12502
SWIDTH 1000 0
DWIDTH 24 0
BBX 19 20 4 0
BITMAP
0000C0
000360
000120
000180
FFFE00
FFFE00
000600
000600
000600
000C00
000C00
001800
001800
003000
007000
00E000
01C000
078000
3E0000
180000
ENDCHAR
STARTCHAR 30D7
ENCODING 12503
SWIDTH 1000 0
DWIDTH 24 0
BBX 20 21 4 0
BITMAP
0000C0
000120
000210
000210
000120
FFFEC0
FFFE00
000600
000600
000600
000C00
000C00
001800
001800
003000
007000
00E000
01C000
078000
3E0000
180000
ENDCHAR
STARTCHAR 30D8
ENCODING 12504
SWIDTH 1000 0
DWIDTH 24 0
BBX 20 11 2 3
BITMAP
018000
03C000
06E000
0C7000
1C3800
380C00
700700
E00380
C001C0
0000F0
000070
ENDCHAR
STARTCHAR 30D9
ENCODING 12505
SWIDTH 1000 0
DWIDTH 24 0
BBX 20 13 2 3
BITMAP
0000C0
0002C0
018360
03C320
06E180
0C7000
1C3800
380C00
700700
E00380
C001C0
0000F0
000070
ENDCHAR
STARTCHAR 30DA
ENCODING 12506
SWIDTH 1000 0
DWIDTH 24 0
BBX 20 14 2 3
BITMAP
000380
000440
000440
018440
03C440
06E380
0C7000
1C3800
380C00
700700
E00380
C001C0
0000F0
000070
ENDCHAR
STARTCHAR 30DB
ENCODING 12507
SWIDTH 1000 0
DWIDTH 24 0
BBX 19 19 3 0
BITMAP
00C000
00C000
00C000
00C000
00C000
FFFFC0
FFFFC0
00C000
00C000
10C600
18C600
30C300
30C380
70C180
60C0C0
C0C0E0
C0C000
0FC000
0FC000
ENDCHAR
STARTCHAR 30DC
ENCODING 12508
SWIDTH 1000 0
DWIDTH 24 0
BBX 20 20 3 0
BITMAP
0000C0
00C360
00C130
00C1A0
00C000
00C000
FFFFC0
FFFFC0
00C000
00C000
10C600
18C600
30C300
30C380
70C180
60C0C0
C0C0E0
C0C000
0FC000
0FC000
ENDCHAR
STARTCHAR 30DD
ENCODING 12509
SWIDTH 1000 0
DWIDTH 24 0
BBX 19 20 3 0
BITMAP
0001C0
00C260
00C220
00C260
00C1C0
00C000
FFFFC0
FFFFC0
00C000
00C000
10C600
18C600
30C300
30C380
70C180
60C0C0
C0C0E0
C0C000
0FC000
0FC000
ENDCHAR
STARTCHAR 30DE
ENCODING 12510
SWIDTH 1000 0
DWIDTH 24 0
BBX 18 14 3 0
BITMAP
FFFFC0
000180
000380
000700
000E00
081C00
1C3800
0E7000
03E000
01C000
00C000
00E000
007000
003000
ENDCHAR
STARTCHAR 30DF
ENCODING 12511
SWIDTH 1000 0
DWIDTH 24 0
BBX 13 18 5 -1
BITMAP
3000
7E00
0FC0
01F8
0038
0000
3000
3E00
0FC0
01F0
0020
0000
E000
FC00
1F00
07E0
00F8
0038
ENDCHAR
STARTCHAR 30E0
ENCODING 12512
SWIDTH 1000 0
DWIDTH 24 0
BBX 18 16 3 2
BITMAP
01C000
018000
018000
038000
030000
030000
060800
061800
0E0C00
0C0E00
0C0700
180300
180F80
3FFFC0
FFE0C0
E000C0
ENDCHAR
STARTCHAR 30E1
ENCODING 12513
SWIDTH 1000 0
DWIDTH 24 0
BBX 14 18 4 -1
BITMAP
0008
001C
0018
0018
1030
1830
0E60
0760
01C0
01E0
01F0
0338
071C
0E0C
1C00
3800
F000
C000
ENDCHAR
STARTCHAR 30E2
ENCODING 12514
SWIDTH 1000 0
DWIDTH 24 0
BBX 18 17 3 0
BITMAP
3FFF00
3FFF00
010000
010000
010000
010000
010000
FFFFC0
FFFFC0
010000
010000
010000
010000
010000
018000
01FF80
00FF80
ENDCHAR
STARTCHAR 30E3
ENCODING 12515
SWIDTH 1000 0
DWIDTH 24 0
BBX 15 16 4 -1
BITMAP
0400
0C00
0C00
0C0E
07FE
FFC6
F60C
061C
0218
0330
0300
0300
0300
0180
0180
0180
ENDCHAR
STARTCHAR 30E4
ENCODING 12516
SWIDTH 1000 0
DWIDTH 24 0
BBX 19 19 2 -1
BITMAP
060000
030000
030000
0300C0
031FE0
07FEE0
FFC0C0
7181C0
018180
018300
008700
00C200
00C000
00C000
00C000
006000
006000
006000
006000
ENDCHAR
STARTCHAR 30E5
ENCODING 12517
SWIDTH 1000 0
DWIDTH 24 0
BBX 16 10 4 2
BITMAP
3FF0
3FF0
0030
0030
0030
0030
0020
0060
FFFF
FFFF
ENDCHAR
STARTCHAR 30E6
ENCODING 12518
SWIDTH 1000 0
DWIDTH 24 0
BBX 20 13 2 2
BITMAP
1FFE00
1FFE00
000600
000600
000600
000600
000600
000C00
000C00
000C00
000C00
FFFFF0
FFFFF0
ENDCHAR
STARTCHAR 30E7
ENCODING 12519
SWIDTH 1000 0
DWIDTH 24 0
BBX 11 13 6 0
BITMAP
FFE0
FFE0
0020
0020
0020
7FE0
7FE0
0020
0020
0020
FFE0
FFE0
0020
ENDCHAR
STARTCHAR 30E8
ENCODING 12520
SWIDTH 1000 0
DWIDTH 24 0
BBX 15 16 4 0
BITMAP
FFFE
FFFE
0006
0006
0006
0006
7FFE
7FFE
0006
0006
0006
0006
FFFE
FFFE
0006
0006
ENDCHAR
STARTCHAR 30E9
ENCODING 12521
SWIDTH 1000 0
DWIDTH 24 0
BBX 17 18 3 -1
BITMAP
3FFE00
3FFE00
000000
000000
000000
FFFF80
FFFF80
000180
000180
000300
000700
000600
000C00
001C00
007800
01E000
0FC000
070000
ENDCHAR
STARTCHAR 30EA
ENCODING 12522
SWIDTH 1000 0
DWIDTH 24 0
BBX 11 19 6 -1
BITMAP
C060
C060
C060
C060
C060
C060
C060
C060
C060
C060
C060
0060
0060
00C0
00C0
0180
0780
0E00
1C00
ENDCHAR
STARTCHAR 30EB
ENCODING 12523
SWIDTH 1000 0
DWIDTH 24 0
BBX 20 18 2 0
BITMAP
003000
003000
0C3000
0C3000
0C3000
0C3000
0C3000
0C3000
0C3010
0C3030
0C3070
0C30E0
1831C0
183380
303700
703E00
E03800
C01000
ENDCHAR
STARTCHAR 30EC
ENCODING 12524
SWIDTH 1000 0
DWIDTH 24 0
BBX 14 18 6 0
BITMAP
C000
C000
C000
C000
C000
C000
C000
C004
C00C
C01C
C038
C070
C0E0
C3C0
CF00
FE00
F800
E000
ENDCHAR
STARTCHAR 30ED
ENCODING 12525
SWIDTH 1000 0
DWIDTH 24 0
BBX 16 15 4 1
BITMAP
FFFF
FFFF
C003
C003
C003
C003
C003
C003
C003
C003
C003
C003
FFFF
FFFF
C003
ENDCHAR
STARTCHAR 30EE
ENCODING 12526
SWIDTH 1000 0
DWIDTH 24 0
BBX 12 14 6 -1
BITMAP
FFF0
FFF0
8030
8030
8030
8030
8060
0060
00C0
01C0
0380
0700
1E00
0800
ENDCHAR
STARTCHAR 30EF
ENCODING 12527
SWIDTH 1000 0
DWIDTH 24 0
BBX 16 16 4 0
BITMAP
FFFE
FFFF
C003
C003
C006
C006
C006
000E
000C
001C
0018
0030
0070
01C0
0780
0E00
ENDCHAR
STARTCHAR 30F0
ENCODING 12528
SWIDTH 1000 0
DWIDTH 24 0
BBX 20 20 2 -1
BITMAP
001800
001800
001800
001800
001800
3FFFC0
3FFFC0
061800
061800
061800
061800
061800
FFFFF0
FFFFF0
001800
001800
001800
001800
001800
001800
ENDCHAR
STARTCHAR 30F1
ENCODING 12529
SWIDTH 1000 0
DWIDTH 24 0
BBX 20 13 2 2
BITMAP
3FFFC0
3FFFC0
0001C0
006380
006700
006E00
006800
006000
006000
006000
006000
FFFFF0
FFFFF0
ENDCHAR
STARTCHAR 30F2
ENCODING 12530
SWIDTH 1000 0
DWIDTH 24 0
BBX 16 18 4 -1
BITMAP
FFFE
FFFF
0003
0006
0006
0006
7FFE
7FFC
000C
000C
0018
0038
0070
00E0
01C0
0F80
3E00
3000
ENDCHAR
STARTCHAR 30F3
ENCODING 12531
SWIDTH 1000 0
DWIDTH 24 0
BBX 17 17 4 0
BITMAP
400000
F00000
780000
1C0180
0C0180
000300
000700
000600
000C00
001C00
003800
00F000
01C000
078000
7E0000
780000
400000
ENDCHAR
STARTCHAR 30F4
ENCODING 12532
SWIDTH 1000 0
DWIDTH 24 0
BBX 19 20 4 0
BITMAP
0002C0
018660
018360
018180
018000
FFFE00
FFFF00
C00300
C00700
C00600
C00600
C00600
000C00
000C00
001800
003800
007000
01E000
07C000
0F0000
ENDCHAR
STARTCHAR 30F5
ENCODING 12533
SWIDTH 1000 0
DWIDTH 24 0
BBX 13 15 5 0
BITMAP
0600
0600
0600
0600
FFF8
FFF8
0618
0618
0618
0C18
0C18
1818
3818
71F0
E1F0
ENDCHAR
STARTCHAR 30F6
ENCODING 12534
SWIDTH 1000 0
DWIDTH 24 0
BBX 15 16 5 -1
BITMAP
0800
0C00
1800
1800
1FFE
3FFE
70C0
60C0
C0C0
C0C0
00C0
0180
0380
0700
0E00
1C00
ENDCHAR
STARTCHAR 30F7
ENCODING 12535
SWIDTH 1000 0
DWIDTH 24 0
BBX 19 20 4 0
BITMAP
0000C0
000340
000160
000180
FFFE00
FFFF00
C00300
C00300
C00600
C00600
C00600
000E00
000C00
001C00
001800
003000
007000
01C000
078000
0E0000
ENDCHAR
STARTCHAR 30F8
ENCODING 12536
SWIDTH 1000 0
DWIDTH 24 0
BBX 20 21 2 -1
BITMAP
000060
0019B0
001990
0018D0
0018C0
001800
3FFFC0
3FFFC0
061800
061800
061800
061800
061800
FFFFF0
FFFFF0
001800
001800
001800
001800
001800
001800
ENDCHAR
STARTCHAR 30F9
ENCODING 12537
SWIDTH 1000 0
DWIDTH 24 0
BBX 21 18 2 2
BITMAP
000030
000098
0000D8
000060
000040
3FFFC0
3FFFC0
0001C0
006380
006700
006E00
006800
006000
006000
006000
006000
FFFFF0
FFFFF0
ENDCHAR
STARTCHAR 30FA
ENCODING 12538
SWIDTH 1000 0
DWIDTH 24 0
BBX 19 21 4 0
BITMAP
0000C0
000360
0001A0
FFFE80
FFFF00
000600
000600
000600
000600
7FFE00
7FFC00
000C00
000C00
001800
003800
007000
00E000
03C000
0F8000
3E0000
300000
ENDCHAR
STARTCHAR 30FB
ENCODING 12539
SWIDTH 1000 0
DWIDTH 24 0
BBX 4 3 10 8
BITMAP
F0
F0
F0
ENDCHAR
STARTCHAR 30FC
ENCODING 12540
SWIDTH 1000 0
DWIDTH 24 0
BBX 20 2 2 8
BITMAP
FFFFF0
FFFFF0
ENDCHAR
STARTCHAR 30FD
ENCODING 12541
SWIDTH 1000 0
DWIDTH 24 0
BBX 11 10 6 5
BITMAP
E000
7000
3800
1C00
0E00
0700
0380
01C0
00E0
0040
ENDCHAR
STARTCHAR 30FE
ENCODING 12542
SWIDTH 1000 0
DWIDTH 24 0
BBX 13 13 6 4
BITMAP
0060
0070
0338
E190
70C0
3840
1C00
0E00
0700
0380
01C0
00E0
0040
ENDCHAR
STARTCHAR 30FF
ENCODING 12543
SWIDTH 1000 0
DWIDTH 24 0
BBX 15 18 4 -1
BITMAP
FFFE
FFFE
0006
0006
0006
0006
0006
0006
0006
0006
0006
0006
0006
0006
0006
0006
0006
0006
ENDCHAR
STARTCHAR 31F0
ENCODING 12784
SWIDTH 1000 0
DWIDTH 24 0
BBX 13 16 5 -1
BITMAP
0600
0600
0FF0
0FF8
1818
3830
7030
E020
4060
00C0
00C0
0380
0700
1E00
3800
1000
ENDCHAR
STARTCHAR 31F1
ENCODING 12785
SWIDTH 1000 0
DWIDTH 24 0
BBX 15 14 5 0
BITMAP
1000
1C00
0F00
0200
E006
700E
380C
0018
0030
0060
01C0
0780
3E00
3800
ENDCHAR
STARTCHAR 31F2
ENCODING 12786
SWIDTH 1000 0
DWIDTH 24 0
BBX 14 13 5 0
BITMAP
7FE0
7FE0
0060
0060
00C0
01C0
0180
0380
06E0
0C70
3838
F01C
C008
ENDCHAR
STARTCHAR 31F3
ENCODING 12787
SWIDTH 1000 0
DWIDTH 24 0
BBX 9 15 9 0
BITMAP
C000
C000
C000
C000
C000
E000
F800
DE00
C780
C180
C000
C000
C000
C000
C000
ENDCHAR
STARTCHAR 31F4
ENCODING 12788
SWIDTH 1000 0
DWIDTH 24 0
BBX 11 13 6 0
BITMAP
FFE0
0060
0040
00C0
38C0
1D80
0F80
0300
0780
1CC0
3860
F020
C000
ENDCHAR
STARTCHAR 31F5
ENCODING 12789
SWIDTH 1000 0
DWIDTH 24 0
BBX 16 11 4 1
BITMAP
0020
0C70
0C30
1818
1818
380C
300C
7006
6007
E003
C003
ENDCHAR
STARTCHAR 31F6
ENCODING 12790
SWIDTH 1000 0
DWIDTH 24 0
BBX 12 14 7 0
BITMAP
C000
C000
C040
C0E0
C7C0
FF00
F800
C000
C000
C000
C000
C010
FFF0
3FE0
ENDCHAR
STARTCHAR 31F7
ENCODING 12791
SWIDTH 1000 0
DWIDTH 24 0
BBX 13 13 5 0
BITMAP
FFF8
FFF8
0018
0018
0030
0030
0070
0060
00C0
0180
0700
1E00
3800
ENDCHAR
STARTCHAR 31F8
ENCODING 12792
SWIDTH 1000 0
DWIDTH 24 0
BBX 16 9 4 3
BITMAP
0600
0F00
1DC0
38E0
7070
E038
C01E
0007
0003
ENDCHAR
STARTCHAR 31F9
ENCODING 12793
SWIDTH 1000 0
DWIDTH 24 0
BBX 15 16 5 -1
BITMAP
0300
0300
0300
0300
FFFC
FFFC
0300
2320
3330
3338
6318
E30C
C30E
8300
1F00
0F00
ENDCHAR
STARTCHAR 31FA
ENCODING 12794
SWIDTH 1000 0
DWIDTH 24 0
BBX 16 13 4 0
BITMAP
0180
0300
0300
0300
0600
0620
0C30
0C38
0C18
180C
187E
FFFE
7C03
ENDCHAR
STARTCHAR 31FB
ENCODING 12795
SWIDTH 1000 0
DWIDTH 24 0
BBX 14 15 5 -1
BITMAP
3FF0
3FF0
0000
0000
FFF8
FFFC
0018
0018
0030
0070
00E0
01C0
0780
0E00
0800
ENDCHAR
STARTCHAR 31FC
ENCODING 12796
SWIDTH 1000 0
DWIDTH 24 0
BBX 8 14 8 0
BITMAP
83
83
83
83
83
83
83
83
03
07
06
0E
3C
30
ENDCHAR
STARTCHAR 31FD
ENCODING 12797
SWIDTH 1000 0
DWIDTH 24 0
BBX 17 14 4 0
BITMAP
00C000
0CC000
0CC000
0CC000
0CC000
0CC000
0CC100
08C380
18C700
18CE00
38DC00
70F800
E0E000
404000
ENDCHAR
STARTCHAR 31FE
ENCODING 12798
SWIDTH 1000 0
DWIDTH 24 0
BBX 12 14 7 0
BITMAP
C000
C000
C000
C000
C000
C020
C030
C070
C0E0
C1C0
C780
DE00
FC00
F000
ENDCHAR
STARTCHAR 31FF
ENCODING 12799
SWIDTH 1000 0
DWIDTH 24 0
BBX 12 12 6 1
BITMAP
FFF0
FFF0
C030
C030
C030
C030
C030
C030
C030
FFF0
FFF0
C030
ENDCHAR
STARTCHAR 3231
ENCODING 12849
SWIDTH 1000 0
DWIDTH 24 0
BBX 22 22 1 -2
BITMAP
100020
220630
220610
621618
423608
5FBFC8
C6260C
C6660C
86260C
860604
8F7FE4
8B8604
9ACF04
9A0F0C
F21E8C
D216CC
423668
426668
624618
220610
220630
100020
ENDCHAR
STARTCHAR 3232
ENCODING 12850
SWIDTH 1000 0
DWIDTH 24 0
BBX 22 22 1 -2
BITMAP
100020
206030
204010
60C018
5FFFE8
408008
C1800C
C1800C
83FF8C
878184
878184
8DFF84
9D8184
99818C
D1818C
C1FF8C
418188
418188
618F98
218F90
218030
100020
ENDCHAR
STARTCHAR 3239
ENCODING 12857
SWIDTH 1000 0
DWIDTH 24 0
BBX 22 22 1 -2
BITMAP
100020
211830
231B10
631998
421988
461888
C6180C
C6FFCC
8EFF0C
8E0804
9E0804
B60804
960C04
860C0C
C60C0C
C6046C
460668
4606C8
6603D8
260190
260030
100020
ENDCHAR
STARTCHAR 3251
ENCODING 12881
SWIDTH 1000 0
DWIDTH 24 0
BBX 22 23 1 -2
BITMAP
00FC00
030380
0C00C0
100020
238110
67C718
4CC708
CC410C
88C104
80C104
808104
818104
830104
820104
860104
C4010C
4C0108
6FC118
3FC110
180020
0C00C0
070380
00FC00
ENDCHAR
STARTCHAR 3252
ENCODING 12882
SWIDTH 1000 0
DWIDTH 24 0
BBX 22 23 1 -2
BITMAP
00FC00
030300
0C00C0
100020
238790
67CFD0
4CCCC8
CC48C8
88C8C4
80C0C4
818184
818104
830304
820604
860404
C40C0C
4C0C08
6FCFD8
3FCFF0
180060
0C00C0
070380
00FC00
ENDCHAR
STARTCHAR 3253
ENCODING 12883
SWIDTH 1000 0
DWIDTH 24 0
BBX 22 23 1 -2
BITMAP
00FC00
030380
0C00C0
100020
238710
67CF98
4CCCC8
CC48CC
8CC0C4
80C0C4
808184
818704
830784
8200C4
8600C4
C418CC
4C18C8
6FCFD8
2FC790
180020
0C00C0
070380
00FC00
ENDCHAR
STARTCHAR 3254
ENCODING 12884
SWIDTH 1000 0
DWIDTH 24 0
BBX 22 23 1 -2
BITMAP
00FC00
030380
0C00C0
100020
238190
67C198
4CC388
CC438C
8C4784
80C584
808D84
818D84
830984
821984
861FC4
C41FCC
4C0188
6FC198
2FC190
180020
0C00C0
070380
00FC00
ENDCHAR
STARTCHAR 3255
ENCODING 12885
SWIDTH 1000 0
DWIDTH 24 0
BBX 22 23 1 -2
BITMAP
00FC00
030380
0C00C0
100020
238F90
67CF98
4CCC08
CC4C0C
8C4804
80CB84
808CC4
8188C4
830044
820044
8600C4
C408CC
4C0CC8
6FCF98
2FC790
180020
0C00C0
070380
00FC00
ENDCHAR
STARTCHAR 3256
ENCODING 12886
SWIDTH 1000 0
DWIDTH 24 0
BBX 22 22 1 -2
BITMAP
01FC00
070380
1C00C0
3387A0
27C790
4CCCC8
CC4CC8
8CC804
80D804
809B84
819CC4
8318C4
821844
860844
8408C4
4C0CC8
6FCFD8
2FC790
180020
0C00C0
070380
00FC00
ENDCHAR
STARTCHAR 3257
ENCODING 12887
SWIDTH 1000 0
DWIDTH 24 0
BBX 22 23 1 -2
BITMAP
00FC00
030380
0C00C0
100020
239FD0
67DFD8
4CC088
CC418C
8C4184
80C184
808104
818304
830304
820304
860204
C4060C
4C0608
6FC618
2FC610
180020
0C00C0
070380
00FC00
ENDCHAR
STARTCHAR 3258
ENCODING 12888
SWIDTH 1000 0
DWIDTH 24 0
BBX 22 23 1 -2
BITMAP
00FC00
030380
0C00C0
100020
238710
67CC98
4CC8C8
CC48CC
8C48C4
80CCC4
808784
818784
830CC4
821844
861844
C4184C
4C0CC8
6FCFD8
2FC790
180020
0C00C0
070380
00FC00
ENDCHAR
STARTCHAR 3259
ENCODING 12889
SWIDTH 1000 0
DWIDTH 24 0
BBX 22 23 1 -2
BITMAP
00FC00
030380
0C00C0
100020
238790
67CF98
4CCCC8
CC48CC
8CD844
80D844
808864
8188E4
830CC4
820744
860044
C400CC
4C0CC8
6FCF98
2FC710
180020
0C00C0
070380
00FC00
ENDCHAR
STARTCHAR 325A
ENCODING 12890
SWIDTH 1000 0
DWIDTH 24 0
BBX 22 23 1 -2
BITMAP
00FC00
030380
0C00C0
100020
278790
6FC798
4CCCC8
CCCCCC
80C844
80C844
80C864
838864
838864
80C844
804844
C84CCC
4CCCC8
6FC7D8
278790
100020
0C00C0
070380
00FC00
ENDCHAR
STARTCHAR 325B
ENCODING 12891
SWIDTH 1000 0
DWIDTH 24 0
BBX 22 23 1 -2
BITMAP
00FC00
030380
0C00C0
100020
278110
67C718
4CC708
CCC10C
804104
80C104
80C104
838104
838104
80C104
804104
C8410C
4CC108
6FC118
278110
100020
0C00C0
070380
00FC00
ENDCHAR
STARTCHAR 325C
ENCODING 12892
SWIDTH 1000 0
DWIDTH 24 0
BBX 22 23 1 -2
BITMAP
00FC00
030380
0C00C0
100020
278790
6FCFD8
4CCCC8
CCC8CC
80C8C4
80C0C4
80C184
838104
838304
80C604
804404
C84C0C
4CCC08
6FCFD8
278FF0
100060
0C00C0
070380
00FC00
ENDCHAR
STARTCHAR 325D
ENCODING 12893
SWIDTH 1000 0
DWIDTH 24 0
BBX 22 23 1 -2
BITMAP
00FC00
030380
0C00C0
100020
278790
6FCF98
4CCCC8
CCC8CC
80C0C4
80C0C4
80C184
838704
838784
80C0C4
8040C4
C858CC
4CCCC8
6FCFD8
278790
100020
0C00C0
070380
00FC00
ENDCHAR
STARTCHAR 325E
ENCODING 12894
SWIDTH 1000 0
DWIDTH 24 0
BBX 22 23 1 -2
BITMAP
00FC00
030380
0C00C0
100020
278190
6FC198
4CC388
CCC38C
80C284
80C684
80C484
838C84
838884
80D884
805FE4
C85FEC
4CC088
6FC098
278090
100020
0C00C0
070380
00FC00
ENDCHAR
STARTCHAR 325F
ENCODING 12895
SWIDTH 1000 0
DWIDTH 24 0
BBX 22 23 1 -2
BITMAP
00FC00
030380
0C00C0
100020
278F90
6FCF98
4CC808
CCC80C
80C804
80C804
80CB84
838CC4
8388C4
80C0C4
8040C4
C848CC
4CCCC8
6FCF98
278790
100020
0C00C0
070380
00FC00
ENDCHAR
STARTCHAR 32A4
ENCODING 12964
SWIDTH 1000 0
DWIDTH 24 0
BBX 22 22 1 -2
BITMAP
01FC00
070380
0C00C0
302020
202010
602008
C02008
802004
803F84
802004
802004
802004
802004
802004
802004
402008
4FFFD8
200010
100020
0C00C0
070380
00FC00
ENDCHAR
STARTCHAR 32A5
ENCODING 12965
SWIDTH 1000 0
DWIDTH 24 0
BBX 22 22 1 -2
BITMAP
00FC00
070380
0C00C0
103020
203010
603008
4FFFC8
8C30C4
8C30C4
8C30C4
8C30C4
8C30C4
8FFFC4
8C30C4
8C30C4
403008
403018
203010
103020
0C00C0
070380
00FC00
ENDCHAR
STARTCHAR 32A6
ENCODING 12966
SWIDTH 1000 0
DWIDTH 24 0
BBX 22 22 1 -2
BITMAP
00FC00
070380
0C00C0
100020
200010
6FFFC8
C02008
802004
803004
803804
802E04
802704
802184
802004
802004
402008
402018
202010
102020
0C00C0
070380
00FC00
ENDCHAR
STARTCHAR 32A7
ENCODING 12967
SWIDTH 1000 0
DWIDTH 24 0
BBX 22 23 1 -3
BITMAP
00FC00
070380
0C00C0
104020
206010
604018
4FFFC8
C0C00C
808004
818004
818004
83FF84
831804
861804
861804
CC180C
481808
63FFD8
200010
100020
0C00C0
070380
00FC00
ENDCHAR
STARTCHAR 32A8
ENCODING 12968
SWIDTH 1000 0
DWIDTH 24 0
BBX 22 22 1 -2
BITMAP
01FC00
070380
0C00C0
306020
206010
606008
CFFFC8
80C004
818004
818004
838004
83FF84
878184
8D8184
998184
418188
41FF98
218190
100020
0C00C0
070380
00FC00
ENDCHAR
STARTCHAR 32B1
ENCODING 12977
SWIDTH 1000 0
DWIDTH 24 0
BBX 22 22 1 -2
BITMAP
01FC00
070380
1C00C0
3787A0
2FC790
6CCCC8
CCCCC8
80C804
80D804
80DB84
839CC4
8398C4
80D844
804844
8848C4
4CCCC8
4FCFD8
278790
100020
0C00C0
070380
00FC00
ENDCHAR
STARTCHAR 32B2
ENCODING 12978
SWIDTH 1000 0
DWIDTH 24 0
BBX 22 23 1 -2
BITMAP
00FC00
030380
0C00C0
100020
279FD0
6FDFD8
4CC088
CCC18C
80C184
80C104
80C304
838304
838304
80C204
804604
C8460C
4CC608
6FC618
278410
100020
0C00C0
070380
00FC00
ENDCHAR
STARTCHAR 32B3
ENCODING 12979
SWIDTH 1000 0
DWIDTH 24 0
BBX 22 23 1 -2
BITMAP
00FC00
030380
0C00C0
100020
278710
6FCC98
4CC8C8
C8C8CC
80C8C4
80C8C4
808C84
830784
838F84
80CCC4
805844
C8584C
4CCCC8
6FCFD8
278790
100020
0C00C0
070380
00FC00
ENDCHAR
STARTCHAR 32B4
ENCODING 12980
SWIDTH 1000 0
DWIDTH 24 0
BBX 22 24 1 -3
BITMAP
00FC00
030300
0C00C0
180060
3787B0
2FCFD0
4CCCC8
CCCC48
80C844
80C864
80C864
838864
838CE4
80C764
804064
884044
C84CC8
4CCCC8
6FCF90
378730
180060
0C00C0
030300
00FC00
ENDCHAR
STARTCHAR 32B5
ENCODING 12981
SWIDTH 1000 0
DWIDTH 24 0
BBX 22 23 1 -2
BITMAP
00FC00
030380
0C00C0
100020
218710
638F98
438CC8
C38CCC
8788C4
859844
8D9844
899844
999844
999844
9FC8C4
DFCCCC
418CC8
618F98
218710
100020
0C00C0
070380
00FC00
ENDCHAR
STARTCHAR 32B6
ENCODING 12982
SWIDTH 1000 0
DWIDTH 24 0
BBX 22 23 1 -2
BITMAP
00FC00
030380
0C00C0
100020
218110
618718
438708
C2810C
868104
868104
848104
8C8104
888104
988104
9FE104
DFE10C
408108
608118
208110
100020
0C00C0
070380
00FC00
ENDCHAR
STARTCHAR 32B7
ENCODING 12983
SWIDTH 1000 0
DWIDTH 24 0
BBX 22 23 1 -2
BITMAP
00FC00
030380
0C00C0
100020
218790
618FD8
438CC8
C388CC
8788C4
8580C4
8D8184
8D8104
998304
998604
9FC404
DFCC0C
418C08
618FD8
218FF0
100060
0C00C0
070380
00FC00
ENDCHAR
STARTCHAR 32B8
ENCODING 12984
SWIDTH 1000 0
DWIDTH 24 0
BBX 22 23 1 -2
BITMAP
00FC00
030380
0C00C0
100020
218710
618F98
438CC8
C388CC
8780C4
8580C4
8D8184
8D8704
998784
9980C4
9FC0C4
DFD8CC
4198C8
618FD8
218790
100020
0C00C0
070380
00FC00
ENDCHAR
STARTCHAR 32B9
ENCODING 12985
SWIDTH 1000 0
DWIDTH 24 0
BBX 22 23 1 -2
BITMAP
00FC00
030380
0C00C0
100020
218190
638198
438388
C3828C
878684
858684
8D8484
898C84
998884
919884
9FDFE4
DFDFEC
418088
618098
218090
100020
0C00C0
070380
00FC00
ENDCHAR
STARTCHAR 32BA
ENCODING 12986
SWIDTH 1000 0
DWIDTH 24 0
BBX 22 23 1 -2
BITMAP
00FC00
030380
0C00C0
100020
218F90
638F98
438808
C7880C
878804
858B84
8D8C84
8988C4
9980C4
9180C4
9FC0C4
DFC8CC
418CC8
618F98
218710
100020
0C00C0
070380
00FC00
ENDCHAR
STARTCHAR 32BB
ENCODING 12987
SWIDTH 1000 0
DWIDTH 24 0
BBX 22 23 1 -2
BITMAP
00FC00
030380
0C00C0
100020
218790
638F98
438CC8
C788CC
879804
859804
8D9B84
899CC4
9998C4
919844
9FD844
DFC8CC
418CC8
618FD8
218790
100020
0C00C0
070380
00FC00
ENDCHAR
STARTCHAR 32BC
ENCODING 12988
SWIDTH 1000 0
DWIDTH 24 0
BBX 22 23 1 -2
BITMAP
00FC00
030380
0C00C0
100020
219FD0
619FD8
438088
C2818C
868184
868104
8C8304
8C8304
888304
988204
9FE604
DFE60C
408608
608618
208410
100020
0C00C0
070380
00FC00
ENDCHAR
STARTCHAR 32BD
ENCODING 12989
SWIDTH 1000 0
DWIDTH 24 0
BBX 22 23 1 -2
BITMAP
00FC00
030380
0C00C0
100020
218710
618C98
4388C8
C388CC
8788C4
858CC4
8D8784
898F84
998CC4
999844
9FD844
DFD84C
418CC8
618FD8
218790
100020
0C00C0
070380
00FC00
ENDCHAR
STARTCHAR 32BE
ENCODING 12990
SWIDTH 1000 0
DWIDTH 24 0
BBX 22 23 1 -2
BITMAP
00FC00
030380
0C00C0
100020
218790
618F98
438CC8
C3884C
879844
858844
8D8864
898CE4
998744
998044
9FC044
DFC0CC
418CC8
618F98
218710
100020
0C00C0
070380
00FC00
ENDCHAR
STARTCHAR 32BF
ENCODING 12991
SWIDTH 1000 0
DWIDTH 24 0
BBX 22 23 1 -2
BITMAP
00FC00
030380
0C00C0
100020
2FC390
6FC7D8
4C0CC8
CC0CCC
8C0C44
8F8864
8CC864
8C4864
804864
804864
804C44
CCCCCC
4CCCC8
67C7D8
278390
100020
0C00C0
070380
00FC00
ENDCHAR
STARTCHAR 32D0
ENCODING 13008
SWIDTH 1000 0
DWIDTH 24 0
BBX 22 23 1 -2
BITMAP
00FC00
030380
0400C0
180020
200010
200018
4FFFC8
CFFCCC
8000C4
803184
803384
803704
803E04
802404
806004
C0600C
40C008
61C018
238010
120020
0C00C0
070380
00FC00
ENDCHAR
STARTCHAR 32D1
ENCODING 13009
SWIDTH 1000 0
DWIDTH 24 0
BBX 22 23 1 -2
BITMAP
00FC00
030380
0C00C0
100020
200210
600718
400E08
C01C0C
803804
807004
81F004
87B004
9E3004
883004
803004
C0300C
403008
603018
203010
103020
0C00C0
070380
00FC00
ENDCHAR
STARTCHAR 32D2
ENCODING 13010
SWIDTH 1000 0
DWIDTH 24 0
BBX 22 22 1 -2
BITMAP
00FC00
070380
0C00C0
103020
203010
603008
47FF88
87FFC4
8600C4
8600C4
860184
860184
800184
800304
800704
400E08
401C18
207810
106020
0C00C0
070380
00FC00
ENDCHAR
STARTCHAR 32D3
ENCODING 13011
SWIDTH 1000 0
DWIDTH 24 0
BBX 22 23 1 -2
BITMAP
00FC00
030380
0C00C0
100020
200010
600018
47FF88
C7FF8C
803004
803004
803004
803004
803004
803004
803004
DFFFEC
5FFFE8
600018
200010
100020
0C00C0
070380
00FC00
ENDCHAR
STARTCHAR 32D4
ENCODING 13012
SWIDTH 1000 0
DWIDTH 24 0
BBX 22 24 1 -3
BITMAP
00FC00
030300
0C00C0
180060
300C30
200C10
400C08
400C08
8FFFC4
8FFFC4
801C04
803C04
803C04
806C04
80CC04
838C04
C70C08
4C0C08
607C10
307C30
180060
0C00C0
030300
00FC00
ENDCHAR
STARTCHAR 32D5
ENCODING 13013
SWIDTH 1000 0
DWIDTH 24 0
BBX 22 23 1 -3
BITMAP
01FC00
070380
0C00C0
103020
203010
603018
403008
C7FFCC
87FFC4
8030C4
8030C4
806084
806084
806084
80C184
C1818C
439188
6F1F98
240F10
100020
0C00C0
030380
00FC00
ENDCHAR
STARTCHAR 32D6
ENCODING 13014
SWIDTH 1000 0
DWIDTH 24 0
BBX 22 22 1 -2
BITMAP
01FC00
070380
1C00C0
306020
206010
606008
C07F08
8FFE04
8FA004
803004
8030E4
803FE4
8FFC04
8F1004
801804
401808
401818
201810
100820
0C00C0
070380
00FC00
ENDCHAR
STARTCHAR 32D7
ENCODING 13015
SWIDTH 1000 0
DWIDTH 24 0
BBX 22 23 1 -3
BITMAP
00FC00
070380
0C00C0
103020
203010
606018
407F88
C0FF8C
81C184
818184
830304
860304
840604
800604
800C04
C0180C
403008
60E018
23C010
110020
0C00C0
030380
00FC00
ENDCHAR
STARTCHAR 32D8
ENCODING 13016
SWIDTH 1000 0
DWIDTH 24 0
BBX 22 23 1 -3
BITMAP
00FC00
070380
0C00C0
10C020
20C010
618018
418008
C1FFEC
83FFE4
870C04
860C04
8C0C04
9C0C04
880C04
801804
C0180C
403008
606018
21C010
118020
0C00C0
070380
00FC00
ENDCHAR
STARTCHAR 32D9
ENCODING 13017
SWIDTH 1000 0
DWIDTH 24 0
BBX 22 22 1 -2
BITMAP
01FC00
070380
1C00C0
300020
200010
67FF88
C7FF88
800184
800184
800184
800184
800184
800184
800184
8FFF84
4FFF88
400198
200010
100020
0C00C0
070380
00FC00
ENDCHAR
STARTCHAR 32DA
ENCODING 13018
SWIDTH 1000 0
DWIDTH 24 0
BBX 22 23 1 -2
BITMAP
00FC00
030380
0400C0
180020
200610
218618
418608
C1860C
818604
9FFFE4
9FFFE4
818604
818604
818604
818604
C0060C
400C08
601C18
203810
10F020
0C00C0
070380
00FC00
ENDCHAR
STARTCHAR 32DB
ENCODING 13019
SWIDTH 1000 0
DWIDTH 24 0
BBX 22 22 1 -2
BITMAP
01FC00
070380
1C00C0
300020
21C010
60E008
C06008
802044
860064
8700E4
8380C4
800184
800304
800E04
801C04
407808
43E018
238010
100020
0C00C0
070380
00FC00
ENDCHAR
STARTCHAR 32DC
ENCODING 13020
SWIDTH 1000 0
DWIDTH 24 0
BBX 22 22 1 -2
BITMAP
01FC00
070380
1C00C0
300020
27FE10
67FF08
C00308
800604
800604
800C04
801804
801804
803C04
806704
81C384
4381C8
4F00D8
240010
100020
0C00C0
070380
00FC00
ENDCHAR
STARTCHAR 32DD
ENCODING 13021
SWIDTH 1000 0
DWIDTH 24 0
BBX 22 23 1 -3
BITMAP
00FC00
070380
0C00C0
100020
218010
618018
418008
C1808C
81FFC4
9FF984
998184
818304
818604
818C04
818004
C1800C
41FF88
60FF98
200010
100020
0C00C0
070380
00FC00
ENDCHAR
STARTCHAR 32DE
ENCODING 13022
SWIDTH 1000 0
DWIDTH 24 0
BBX 22 22 1 -2
BITMAP
01FC00
070380
1C00C0
300020
200010
6600C8
C700C8
8301C4
838184
818184
800304
800304
800604
800E04
801C04
403808
40F018
21C010
100020
0C00C0
070380
00FC00
ENDCHAR
STARTCHAR 32DF
ENCODING 13023
SWIDTH 1000 0
DWIDTH 24 0
BBX 22 23 1 -2
BITMAP
00FC00
030380
0C00C0
102020
202010
606018
407F88
C0FF8C
80C184
818184
83C184
876304
8E3304
841E04
800C04
C01C0C
403808
607018
21E010
138020
0C00C0
070380
00FC00
ENDCHAR
STARTCHAR 32E0
ENCODING 13024
SWIDTH 1000 0
DWIDTH 24 0
BBX 22 23 1 -2
BITMAP
00FC00
030380
0C00C0
100020
200310
607F18
43F008
C0100C
801004
801004
9FFFE4
9FFFE4
803004
803004
803004
C0300C
406008
60C018
23C010
110020
0C00C0
070380
00FC00
ENDCHAR
STARTCHAR 32E1
ENCODING 13025
SWIDTH 1000 0
DWIDTH 24 0
BBX 22 22 1 -2
BITMAP
01FC00
070380
1C00C0
300020
202010
6460C8
CC60C8
8C30C4
863184
860184
800184
800304
800704
800E04
801C04
403808
40F018
21C010
110020
0C00C0
070380
00FC00
ENDCHAR
STARTCHAR 32E2
ENCODING 13026
SWIDTH 1000 0
DWIDTH 24 0
BBX 22 23 1 -3
BITMAP
01FC00
070380
1C00C0
300020
23FF10
63FF18
400008
C0000C
800004
9FFFE4
9FFFE4
801804
801804
803004
803004
C0300C
406008
61C018
238010
100020
0C00C0
030380
00FC00
ENDCHAR
STARTCHAR 32E3
ENCODING 13027
SWIDTH 1000 0
DWIDTH 24 0
BBX 22 22 1 -2
BITMAP
01FC00
070380
0C00C0
30C020
20C010
60C008
C0C008
80C004
80C004
80F804
80DC04
80CF04
80C384
80C004
80C004
40C008
40C018
20C010
10C020
0C00C0
070380
00FC00
ENDCHAR
STARTCHAR 32E5
ENCODING 13029
SWIDTH 1000 0
DWIDTH 24 0
BBX 22 23 1 -3
BITMAP
00FC00
070380
0C00C0
100020
200010
600018
47FF88
C7FF8C
800004
800004
800004
800004
800004
800004
8FFFC4
CFFFCC
400008
600018
200010
100020
0C00C0
070380
00FC00
ENDCHAR
STARTCHAR 32E9
ENCODING 13033
SWIDTH 1000 0
DWIDTH 24 0
BBX 22 22 1 -2
BITMAP
01FC00
070380
1C00C0
300020
200010
600408
C18E08
818704
830304
830184
8701C4
8600C4
8E00E4
8C0064
9C0064
580008
400018
200010
100020
0C00C0
070380
00FC00
ENDCHAR
STARTCHAR 32EC
ENCODING 13036
SWIDTH 1000 0
DWIDTH 24 0
BBX 22 22 1 -2
BITMAP
01FC00
070380
1C00C0
300020
200010
600008
C0C008
81E004
83B004
871804
8E0E04
9C0704
B80384
9001E4
8000E4
400008
400018
200010
100020
0C00C0
070380
00FC00
ENDCHAR
STARTCHAR 32ED
ENCODING 13037
SWIDTH 1000 0
DWIDTH 24 0
BBX 22 24 1 -3
BITMAP
00FC00
030300
0400C0
180060
303030
203010
403008
403008
8FFFC4
8FFFC4
803004
823004
833304
833184
8631C4
8E30C4
CC30E8
483048
61F010
31F030
180060
0C00C0
030300
00FC00
ENDCHAR
STARTCHAR 32FA
ENCODING 13050
SWIDTH 1000 0
DWIDTH 24 0
BBX 22 22 1 -2
BITMAP
00FC00
070380
0C00C0
100020
200010
67FF88
47FF88
860184
860184
860184
860184
860184
860184
860184
87FF84
47FF88
460198
200010
100020
0C00C0
070380
00FC00
ENDCHAR
STARTCHAR 3303
ENCODING 13059
SWIDTH 1000 0
DWIDTH 24 0
BBX 21 20 1 -1
BITMAP
7FE000
006000
044000
04C000
059FF8
0F1FF8
0D0000
080000
180000
300000
000000
130000
130000
130000
131000
131800
333000
23E000
63C000
C30000
ENDCHAR
STARTCHAR 330D
ENCODING 13069
SWIDTH 1000 0
DWIDTH 24 0
BBX 21 22 1 -2
BITMAP
0C0000
0C07F8
7FC408
0CC408
08C408
08C408
18C408
10C408
3787F8
E78408
000000
018000
218000
218000
218000
219FF8
219FF8
210000
030000
030000
060000
0C0000
ENDCHAR
STARTCHAR 3314
ENCODING 13076
SWIDTH 1000 0
DWIDTH 24 0
BBX 21 20 1 -1
BITMAP
0C0000
040000
07C000
7F0000
060000
067000
1FF000
FA0000
020000
030000
030FF8
030818
000818
000818
000818
000818
000818
000818
000FF8
000818
ENDCHAR
STARTCHAR 3318
ENCODING 13080
SWIDTH 1000 0
DWIDTH 24 0
BBX 21 22 1 -1
BITMAP
002000
002000
0847F0
184000
3F8000
318FF8
E10008
030018
020010
0E0030
1800E0
700380
000000
0C0000
0C0000
080000
190000
190000
118000
30C000
27E000
FE6000
ENDCHAR
ENDFONT
